<?xml version="1.0" encoding="utf-8"?>
<!-- Generator: Adobe Illustrator 16.0.4, SVG Export Plug-In . SVG Version: 6.00 Build 0)  -->
<!DOCTYPE svg PUBLIC "-//W3C//DTD SVG 1.1//EN" "http://www.w3.org/Graphics/SVG/1.1/DTD/svg11.dtd">
<svg version="1.1" id="图层_1" xmlns="http://www.w3.org/2000/svg" xmlns:xlink="http://www.w3.org/1999/xlink" x="0px" y="0px"
	 width="595.28px" height="110px" viewBox="0 0 595.28 110" enable-background="new 0 0 595.28 110" xml:space="preserve">
<g>
	<polygon fill="#00AA71" points="167.56,62.216 179.37,69.033 167.56,75.854 	"/>
	<polygon fill="#00AA71" points="168.493,60.608 180.296,53.791 180.296,67.416 	"/>
	<polygon fill="#00AA71" points="167.56,45.357 179.37,52.173 167.56,58.996 	"/>
	<polygon fill="#00AA71" points="124.694,35.316 136.495,28.497 136.495,42.132 	"/>
	<polygon fill="#00AA71" points="123.757,36.927 135.562,43.747 123.757,50.559 	"/>
	<polygon fill="#00AA71" points="123.757,53.788 135.566,60.608 123.757,67.426 	"/>
	<polygon fill="#00AA71" points="167.56,28.493 179.372,35.316 167.56,42.137 	"/>
	<polygon fill="#00AA71" points="168.493,43.747 180.296,36.935 180.296,50.559 	"/>
	<polygon fill="#00AA71" points="153.892,35.316 165.7,28.497 165.7,42.129 	"/>
	<polygon fill="#00AA71" points="153.892,69.028 165.7,62.216 165.7,75.847 	"/>
	<polygon fill="#00AA71" points="139.29,26.885 151.095,20.068 151.095,33.7 	"/>
	<polygon fill="#00AA71" points="152.954,20.066 164.768,26.885 152.954,33.705 	"/>
	<polygon fill="#00AA71" points="152.954,70.648 164.768,77.465 152.954,84.284 	"/>
	<polygon fill="#00AA71" points="153.892,85.898 165.7,79.079 165.7,92.712 	"/>
	<polygon fill="#00AA71" points="138.353,62.216 150.167,69.033 138.353,75.854 	"/>
	<polygon fill="#00AA71" points="138.353,28.488 150.167,35.312 138.353,42.129 	"/>
	<polygon fill="#00AA71" points="124.689,52.173 136.495,45.364 136.495,58.988 	"/>
	<polygon fill="#00AA71" points="124.694,69.033 136.495,62.22 136.495,75.854 	"/>
	<polygon fill="#00AA71" points="139.29,77.468 151.095,70.648 151.095,84.284 	"/>
	<g>
		<path fill="#FFFFFF" d="M217.688,61.559c0,2.452-3.095,5.442-5.816,6.884c2.35,1.18,3.627,1.872,4.751,2.618
			c0.853,0.53,1.12,1.016,0.8,1.919c-0.216,0.696-1.282,2.245-2.081,2.245c-0.642,0-1.016-0.216-1.978-0.907
			c-1.6-1.012-5.016-3.15-8.913-4.754c-3.419-1.386-7.688-5.07-7.688-8.005v-18.79c0-3.687,6.831-8.653,10.41-8.653
			c3.683,0,10.515,4.967,10.515,8.653V61.559z M202.046,60.862c0,1.869,3.471,4.43,5.128,4.43c1.76,0,5.231-2.561,5.231-4.43V43.457
			c0-1.868-3.417-4.427-5.231-4.427c-1.657,0-5.128,2.559-5.128,4.427V60.862z"/>
		<path fill="#FFFFFF" d="M229.109,68.551c0,0.642-0.479,1.178-1.176,1.178h-2.933c-0.645,0-1.175-0.536-1.175-1.178V35.772
			c0-0.641,0.53-1.173,1.175-1.173h2.933c0.696,0,1.176,0.532,1.176,1.173V68.551z"/>
		<path fill="#FFFFFF" d="M240.96,46.128v22.423c0,0.695-0.533,1.178-1.279,1.178h-2.672c-0.64,0-1.225-0.482-1.225-1.178V35.772
			c0-0.641,0.585-1.173,1.225-1.173h2.242c0.855,0,1.229,0.426,1.656,1.173l10.784,22.635V35.772c0-0.696,0.479-1.173,1.177-1.173
			h2.721c0.696,0,1.228,0.477,1.228,1.173v32.778c0,0.695-0.531,1.178-1.228,1.178h-2.187c-0.804,0-1.339-0.592-1.659-1.178
			L240.96,46.128z"/>
		<path fill="#FFFFFF" d="M274.377,50.771c0-0.641,0.587-1.173,1.226-1.173h6.516c0.695,0,1.707,1.015,1.707,1.654v10.306
			c0,3.575-6.725,8.647-10.41,8.647c-3.577,0-10.465-5.072-10.465-8.647v-18.79c0-3.687,6.941-8.653,10.465-8.653
			c2.296,0,5.713,1.762,8.221,3.313c0.643,0.375,0.856,1.121,0.533,1.758l-0.905,1.763c-0.32,0.589-1.176,0.804-1.869,0.43
			c-1.922-1.017-4.538-2.349-5.979-2.349c-1.6,0-5.179,2.559-5.179,4.427v17.405c0,1.816,3.524,4.43,5.179,4.43
			c1.602,0,5.127-2.668,5.127-4.43v-6.618h-2.939c-0.639,0-1.226-0.537-1.226-1.175V50.771z"/>
		<path fill="#FFFFFF" d="M293.966,60.862c0,1.926,3.684,4.481,5.127,4.481c1.494,0,3.682-1.171,5.604-2.238
			c0.748-0.374,1.655-0.159,1.977,0.536l0.853,1.761c0.319,0.694,0.106,1.442-0.479,1.76c-2.457,1.495-5.446,3.044-7.954,3.044
			c-3.473,0-10.41-4.748-10.41-8.647v-18.79c0-3.791,6.885-8.653,10.463-8.653c2.241,0,5.337,1.555,7.847,2.992
			c0.641,0.321,0.854,1.173,0.481,1.814l-0.8,1.708c-0.321,0.642-1.177,0.853-1.869,0.48c-1.923-0.96-4.165-2.133-5.659-2.133
			c-1.496,0-5.18,2.561-5.18,4.479V60.862z"/>
		<path fill="#FFFFFF" d="M312.009,67.536V35.772c0-0.641,0.586-1.173,1.229-1.173h2.776c0.69,0,1.277,0.532,1.277,1.173v29.309
			h10.04c0.692,0,1.229,0.533,1.229,1.172v2.298c0,0.642-0.536,1.178-1.229,1.178h-13.242
			C313.342,69.729,312.009,68.23,312.009,67.536z"/>
		<path fill="#FFFFFF" d="M351.726,61.559c0,3.682-6.834,8.647-10.518,8.647c-3.578,0-10.411-4.914-10.411-8.647v-18.79
			c0-3.687,6.833-8.653,10.411-8.653c3.684,0,10.518,4.967,10.518,8.653V61.559z M336.083,60.862c0,1.869,3.468,4.43,5.125,4.43
			c1.762,0,5.232-2.561,5.232-4.43V43.457c0-1.868-3.416-4.427-5.232-4.427c-1.657,0-5.125,2.559-5.125,4.427V60.862z"/>
		<path fill="#FFFFFF" d="M368.004,70.206c-3.525,0-10.409-4.748-10.409-8.598V35.772c0-0.641,0.584-1.173,1.228-1.173h2.829
			c0.691,0,1.225,0.532,1.225,1.173v25.145c0,1.871,3.474,4.427,5.128,4.427c1.657,0,5.124-2.556,5.124-4.427V35.772
			c0-0.641,0.482-1.173,1.126-1.173h2.931c0.645,0,1.23,0.532,1.23,1.173v25.836C378.415,65.344,371.528,70.206,368.004,70.206z"/>
		<path fill="#FFFFFF" d="M405.316,61.452c0,3.202-5.98,8.276-9.609,8.276h-8.329c-1.496,0-2.559-0.912-2.559-1.979V36.681
			c0-1.123,1.172-2.081,2.559-2.081h8.224c3.734,0,9.715,4.697,9.715,8.272V61.452z M400.03,43.619c0-1.763-3.202-4.433-5.123-4.433
			h-4.804v25.947h4.912c1.866,0,5.015-2.718,5.015-4.428V43.619z"/>
		<g>
			<g>
				<path fill="#FFFFFF" d="M445.578,39.715h23.864c0.338,0,0.614-0.275,0.614-0.614v-2.686c0-0.335-0.276-0.614-0.614-0.614
					h-23.864c-0.339,0-0.612,0.279-0.612,0.614v2.686C444.966,39.439,445.239,39.715,445.578,39.715z"/>
				<path fill="#FFFFFF" d="M469.87,46.638h-24.729c-0.338,0-0.612,0.279-0.612,0.617v2.687c0,0.333,0.274,0.613,0.612,0.613h3.429
					l-2.742,15.27c-0.153,0.845,0.378,1.663,1.211,1.862l10.088,2.472c0.125,0.031,0.255,0.048,0.387,0.048
					c0.128,0,0.258-0.017,0.384-0.048l10.084-2.472c0.727-0.176,1.235-0.83,1.235-1.576v-1.004V60.53v-4
					c0-0.338-0.274-0.613-0.611-0.613h-2.911c-0.336,0-0.612,0.275-0.612,0.613v8.077l-6.935,1.701
					c-0.212,0.049-0.422,0.076-0.634,0.076c-0.213,0-0.427-0.027-0.634-0.076l-6.646-1.627l2.547-14.127h17.09
					c0.34,0,0.614-0.28,0.614-0.613v-2.687C470.484,46.917,470.21,46.638,469.87,46.638z"/>
			</g>
			<g>
				<path fill="#FFFFFF" d="M439.575,46.97h-11.018V44.8h9.175c0.34,0,0.613-0.274,0.613-0.61v-2.021
					c0-0.34-0.273-0.617-0.613-0.617h-9.175v-2.167h9.723c0.338,0,0.615-0.276,0.615-0.612v-2.024c0-0.337-0.277-0.611-0.615-0.611
					h-9.723v-0.955c0-0.343-0.274-0.618-0.611-0.618h-2.91c-0.34,0-0.613,0.275-0.613,0.618v0.955h-9.725
					c-0.341,0-0.613,0.274-0.613,0.611v2.024c0,0.336,0.272,0.612,0.613,0.612h9.725v2.167h-9.177c-0.337,0-0.614,0.277-0.614,0.617
					v2.021c0,0.336,0.277,0.61,0.614,0.61h9.177v2.17h-11.014c-0.343,0-0.617,0.278-0.617,0.618v2.017
					c0,0.339,0.274,0.613,0.617,0.613h26.166c0.334,0,0.613-0.274,0.613-0.613v-2.017C440.188,47.248,439.909,46.97,439.575,46.97z"
					/>
				<path fill="#FFFFFF" d="M436.651,52.518l-10.04-0.733c-0.039-0.006-0.08-0.006-0.119-0.006c-0.062,0-0.062,0-10.164,0.739
					c-0.849,0.065-1.507,0.769-1.507,1.624v1.511v12.826v0.634c0,0.333,0.275,0.616,0.611,0.616h2.726
					c0.337,0,0.614-0.283,0.614-0.616v-3.31h15.436v3.31c0,0.333,0.275,0.616,0.612,0.616h2.724c0.336,0,0.613-0.283,0.613-0.616
					V67.91V55.652v-1.511C438.157,53.286,437.502,52.583,436.651,52.518z M434.208,55.597v0.056v0.67v1.003h-15.436v-1.003v-0.67
					v-0.056c2.688-0.197,6.961-0.513,7.72-0.563L434.208,55.597z M418.772,62.554v-1.981h15.436v1.981H418.772z"/>
			</g>
		</g>
	</g>
</g>
</svg>
