<?xml version="1.0" encoding="utf-8"?>
<!-- Generator: Adobe Illustrator 16.0.4, SVG Export Plug-In . SVG Version: 6.00 Build 0)  -->
<!DOCTYPE svg PUBLIC "-//W3C//DTD SVG 1.1//EN" "http://www.w3.org/Graphics/SVG/1.1/DTD/svg11.dtd">
<svg version="1.1" id="App_Store" xmlns="http://www.w3.org/2000/svg" xmlns:xlink="http://www.w3.org/1999/xlink" x="0px" y="0px"
	 width="450.272px" height="523.847px" viewBox="72.504 151.581 450.272 523.847"
	 enable-background="new 72.504 151.581 450.272 523.847" xml:space="preserve">
<path fill="#FFFFFF" d="M522.776,535.902c-12.303,27.25-18.203,39.441-34.044,63.536c-22.1,33.645-53.263,75.542-91.877,75.899
	c-34.301,0.325-43.107-22.321-89.678-22.064c-46.551,0.256-56.281,22.475-90.598,22.15c-38.599-0.358-68.134-38.197-90.249-71.842
	c-61.823-94.077-68.285-204.506-30.157-263.2c27.104-41.708,69.845-66.128,110.039-66.128c40.925,0,66.656,22.441,100.487,22.441
	c32.825,0,52.828-22.476,100.13-22.476c35.76,0,73.649,19.475,100.652,53.117C419.014,375.816,433.389,502.141,522.776,535.902z
	 M370.935,236.637c17.188-22.065,30.251-53.221,25.511-85.056c-28.085,1.944-60.929,19.798-80.104,43.091
	c-17.401,21.128-31.776,52.469-26.183,82.958C320.819,278.569,352.535,260.255,370.935,236.637z"/>
</svg>
