<?xml version="1.0" encoding="utf-8"?>
<!-- Generator: Adobe Illustrator 16.0.4, SVG Export Plug-In . SVG Version: 6.00 Build 0)  -->
<!DOCTYPE svg PUBLIC "-//W3C//DTD SVG 1.1//EN" "http://www.w3.org/Graphics/SVG/1.1/DTD/svg11.dtd">
<svg version="1.1" id="图层_1" xmlns="http://www.w3.org/2000/svg" xmlns:xlink="http://www.w3.org/1999/xlink" x="0px" y="0px"
	 width="73px" height="73.389px" viewBox="0 0 73 73.389" enable-background="new 0 0 73 73.389"
	 xml:space="preserve">
<path opacity="0.4" fill="#64AD87" d="M60.5,35.327l-8.302,4.793c-0.493,0.286-0.776,0.65-0.776,1.002c0,0.353,0.283,0.718,0.776,1.002
	l8.302,4.793c0.306,0.178,0.603,0.271,0.856,0.271s0.458-0.093,0.605-0.278c0.181-0.222,0.275-0.565,0.275-0.995v-9.585
	c0-0.382-0.085-1.273-0.88-1.273C61.103,35.056,60.806,35.15,60.5,35.327">
	<animate attributeType="XML" attributeName="opacity" from="1" to="0.4" dur="0.95s" begin="0.35s" restart="always" repeatCount="indefinite" ></animate>
</path>
<path opacity="0.4" fill="#64AD87" d="M59.991,32.435l-8.301-4.793c-0.306-0.176-0.603-0.271-0.857-0.271
	c-0.794,0-0.879,0.892-0.879,1.274v9.59c0,0.298,0.063,1.272,0.879,1.272h0c0.254,0,0.55-0.093,0.857-0.27l8.301-4.798
	c0.494-0.285,0.776-0.65,0.776-1.003C60.768,33.085,60.483,32.721,59.991,32.435">
	<animate attributeType="XML" attributeName="opacity" from="1" to="0.4" dur="0.95s" begin="0.3s" restart="always" repeatCount="indefinite" ></animate>
</path>
<path opacity="0.4" fill="#64AD87" d="M59.991,17.071l-8.301-4.793c-0.306-0.177-0.603-0.271-0.857-0.271c-0.794,0-0.879,0.892-0.879,1.274v9.591
	c0,0.297,0.063,1.272,0.879,1.273h0c0.254,0,0.55-0.095,0.857-0.271l8.301-4.796c0.494-0.285,0.776-0.651,0.776-1.004
	C60.768,17.721,60.483,17.356,59.991,17.071">
	<animate attributeType="XML" attributeName="opacity" from="1" to="0.4" dur="0.95s" begin="0.2s" restart="always" repeatCount="indefinite" ></animate>
</path>
<path opacity="0.4" fill="#64AD87" d="M59.991,47.8l-8.301-4.793c-0.306-0.178-0.603-0.271-0.857-0.271c-0.794,0-0.879,0.89-0.879,1.273V53.6
	c0,0.299,0.063,1.273,0.879,1.273h0c0.254,0,0.55-0.094,0.857-0.271l8.301-4.797c0.494-0.284,0.776-0.65,0.776-1.002
	C60.768,48.45,60.483,48.084,59.991,47.8">
	<animate attributeType="XML" attributeName="opacity" from="1" to="0.4" dur="0.95s" begin="0.4s" restart="always" repeatCount="indefinite" ></animate>
</path>
<path opacity="0.4" fill="#64AD87" d="M20.584,12.279l-8.302,4.793c-0.493,0.286-0.776,0.651-0.776,1.003c0,0.353,0.283,0.718,0.776,1.003
	l8.302,4.793c0.306,0.176,0.603,0.27,0.856,0.27c0.254,0,0.458-0.093,0.605-0.277c0.182-0.224,0.275-0.568,0.275-0.996v-9.587
	c0-0.382-0.085-1.272-0.88-1.272C21.187,12.009,20.89,12.103,20.584,12.279">
	<animate attributeType="XML" attributeName="opacity" from="1" to="0.4" dur="0.95s" begin="0.9s" restart="always" repeatCount="indefinite" ></animate>
</path>
<path opacity="0.4" fill="#64AD87" d="M20.073,24.757l-8.301-4.793c-0.307-0.177-0.603-0.271-0.858-0.271c-0.794,0-0.879,0.891-0.879,1.273v9.587
	c0,0.382,0.085,1.273,0.879,1.273c0.255,0,0.551-0.094,0.858-0.271l8.301-4.794c0.495-0.285,0.777-0.65,0.777-1.002
	C20.851,25.408,20.568,25.043,20.073,24.757">
	<animate attributeType="XML" attributeName="opacity" from="1" to="0.4" dur="0.95s" begin="0.85s" restart="always" repeatCount="indefinite" ></animate>
</path>
<path opacity="0.4" fill="#64AD87" d="M46.683,9.39l-8.302-4.793c-0.306-0.178-0.603-0.272-0.857-0.272c-0.794,0-0.88,0.891-0.88,1.274v9.586
	c0,0.383,0.086,1.273,0.88,1.273c0.254,0,0.551-0.094,0.857-0.271l8.302-4.793c0.493-0.285,0.776-0.649,0.776-1.002
	C47.459,10.041,47.176,9.674,46.683,9.39">
	<animate attributeType="XML" attributeName="opacity" from="1" to="0.4" dur="0.95s" begin="0.1s" restart="always" repeatCount="indefinite" ></animate>
</path>
<path opacity="0.4" fill="#64AD87" d="M20.073,40.123l-8.301-4.793c-0.307-0.177-0.603-0.271-0.858-0.271c-0.794,0-0.879,0.891-0.879,1.274v9.586
	c0,0.383,0.085,1.273,0.879,1.273c0.255,0,0.551-0.094,0.858-0.271l8.301-4.792c0.495-0.286,0.777-0.652,0.777-1.004
	C20.851,40.772,20.568,40.408,20.073,40.123">
	<animate attributeType="XML" attributeName="opacity" from="1" to="0.4" dur="0.95s" begin="0.75s" restart="always" repeatCount="indefinite" ></animate>
</path>
<path opacity="0.4" fill="#64AD87" d="M60.5,19.963l-8.302,4.792c-0.493,0.285-0.776,0.65-0.776,1.001c0,0.353,0.283,0.718,0.776,1.004
	l8.302,4.792c0.306,0.177,0.603,0.271,0.856,0.271s0.458-0.094,0.605-0.278c0.181-0.223,0.275-0.567,0.275-0.996v-9.584
	c0-0.383-0.085-1.273-0.88-1.273C61.103,19.693,60.806,19.786,60.5,19.963">
	<animate attributeType="XML" attributeName="opacity" from="1" to="0.4" dur="0.95s" begin="0.25s" restart="always" repeatCount="indefinite" ></animate>
</path>
<path opacity="0.4" fill="#64AD87" d="M47.196,12.278l-8.303,4.793c-0.495,0.285-0.777,0.65-0.777,1.002
	c0,0.352,0.282,0.718,0.777,1.003l8.303,4.793c0.307,0.178,0.603,0.271,0.856,0.271c0.254,0,0.457-0.093,0.605-0.278
	c0.179-0.223,0.275-0.567,0.275-0.995v-9.586c0-0.382-0.086-1.273-0.88-1.273C47.799,12.008,47.502,12.101,47.196,12.278">
	<animate attributeType="XML" attributeName="opacity" from="1" to="0.4" dur="0.95s" begin="0.15s" restart="always" repeatCount="indefinite" ></animate>
</path>
<path opacity="0.4" fill="#64AD87" d="M47.196,43.005l-8.303,4.792c-0.495,0.285-0.777,0.651-0.777,1.002
	c0,0.353,0.282,0.719,0.777,1.004l8.303,4.793c0.307,0.178,0.603,0.271,0.856,0.271c0.254,0,0.457-0.094,0.605-0.279
	c0.179-0.223,0.275-0.566,0.275-0.994v-9.586c0-0.383-0.086-1.272-0.88-1.272C47.799,42.736,47.502,42.829,47.196,43.005">
	<animate attributeType="XML" attributeName="opacity" from="1" to="0.4" dur="0.95s" begin="0.45s" restart="always" repeatCount="indefinite" ></animate>
</path>
<path opacity="0.4" fill="#64AD87" d="M33.889,4.597l-8.302,4.794c-0.495,0.286-0.776,0.65-0.776,1.003c0,0.352,0.282,0.717,0.776,1.003
	l8.302,4.794c0.307,0.177,0.603,0.27,0.856,0.27c0.254,0,0.457-0.093,0.605-0.277c0.18-0.224,0.274-0.568,0.274-0.996V5.6
	c0-0.383-0.085-1.272-0.88-1.272C34.492,4.327,34.196,4.42,33.889,4.597">
	<animate attributeType="XML" attributeName="opacity" from="1" to="0.4" dur="0.95s" begin="0.05s" restart="always" repeatCount="indefinite" ></animate>
</path>
<path opacity="0.4" fill="#64AD87" d="M47.196,58.374l-8.303,4.793c-0.495,0.285-0.777,0.65-0.777,1.002s0.282,0.719,0.777,1.004l8.303,4.793
	c0.307,0.176,0.603,0.27,0.856,0.27c0.254,0,0.457-0.094,0.605-0.277c0.179-0.223,0.275-0.566,0.275-0.994v-9.588
	c0-0.383-0.086-1.271-0.88-1.271C47.799,58.104,47.502,58.196,47.196,58.374">
	<animate attributeType="XML" attributeName="opacity" from="1" to="0.4" dur="0.95s" begin="0.5s" restart="always" repeatCount="indefinite" ></animate>
</path>
<path opacity="0.4" fill="#64AD87" d="M33.38,47.801l-8.306-4.792c-0.306-0.177-0.603-0.271-0.855-0.271
	c-0.794,0-0.88,0.892-0.88,1.274v9.586c0,0.383,0.085,1.273,0.88,1.273c0.253,0,0.55-0.094,0.855-0.271l8.306-4.795
	c0.494-0.284,0.777-0.65,0.777-1C34.157,48.452,33.874,48.086,33.38,47.801">
	<animate attributeType="XML" attributeName="opacity" from="1" to="0.4" dur="0.95s" begin="0.65s" restart="always" repeatCount="indefinite" ></animate>
</path>
<path opacity="0.4" fill="#64AD87" d="M46.686,55.487l-8.305-4.795c-0.305-0.176-0.602-0.271-0.856-0.271c-0.794,0-0.879,0.892-0.879,1.274v9.586
	c0,0.383,0.084,1.275,0.879,1.275c0.254,0,0.551-0.096,0.856-0.271l8.305-4.797c0.494-0.285,0.778-0.648,0.778-1
	S47.179,55.77,46.686,55.487">
	<animate attributeType="XML" attributeName="opacity" from="1" to="0.4" dur="0.95s" begin="0.55s" restart="always" repeatCount="indefinite" ></animate>
</path>
<path opacity="0.4" fill="#64AD87" d="M33.38,17.066l-8.302-4.794c-0.306-0.177-0.602-0.271-0.857-0.271
	c-0.794,0-0.88,0.891-0.88,1.273l-0.001,9.589c0,0.428,0.095,0.772,0.274,0.995c0.148,0.185,0.352,0.277,0.605,0.277
	c0.253,0,0.55-0.093,0.855-0.271l8.306-4.794c0.494-0.286,0.777-0.65,0.777-1.002S33.874,17.351,33.38,17.066">
	<animate attributeType="XML" attributeName="opacity" from="1" to="0.4" dur="0.95s" begin="0s" restart="always" repeatCount="indefinite" ></animate>
</path>
<path opacity="0.4" fill="#64AD87" d="M20.584,27.644l-8.302,4.794c-0.495,0.286-0.777,0.651-0.777,1.002
	c0,0.353,0.282,0.718,0.777,1.003l8.302,4.793c0.306,0.178,0.603,0.27,0.856,0.27c0.254,0,0.458-0.092,0.605-0.277
	c0.182-0.224,0.275-0.568,0.275-0.995v-9.588c0-0.383-0.085-1.273-0.88-1.273C21.187,27.373,20.89,27.466,20.584,27.644">
	<animate attributeType="XML" attributeName="opacity" from="1" to="0.4" dur="0.95s" begin="0.8s" restart="always" repeatCount="indefinite" ></animate>
</path>
<path opacity="0.4" fill="#64AD87" d="M20.584,43.009l-8.302,4.793c-0.493,0.285-0.776,0.651-0.776,1.003s0.283,0.717,0.776,1.003l8.302,4.794
	c0.306,0.176,0.603,0.27,0.856,0.27c0.254,0,0.458-0.094,0.605-0.277c0.182-0.225,0.275-0.568,0.275-0.996v-9.586
	c0-0.383-0.085-1.272-0.88-1.272C21.187,42.739,20.89,42.832,20.584,43.009">
	<animate attributeType="XML" attributeName="opacity" from="1" to="0.4" dur="0.95s" begin="0.7s" restart="always" repeatCount="indefinite" ></animate>
</path>
<path opacity="0.4" fill="#64AD87" d="M33.889,50.691l-8.302,4.794c-0.495,0.285-0.776,0.65-0.776,1.002c0,0.354,0.282,0.717,0.776,1.004
	l8.302,4.793c0.307,0.176,0.603,0.27,0.856,0.27c0.254,0,0.457-0.094,0.605-0.277c0.18-0.225,0.274-0.568,0.274-0.996v-9.586
	c0-0.385-0.085-1.273-0.88-1.273C34.492,50.42,34.196,50.514,33.889,50.691">
	<animate attributeType="XML" attributeName="opacity" from="1" to="0.4" dur="0.95s" begin="0.6s" restart="always" repeatCount="indefinite" ></animate>
</path>
</svg>