<?xml version="1.0" encoding="utf-8"?>
<!-- Generator: Adobe Illustrator 16.0.4, SVG Export Plug-In . SVG Version: 6.00 Build 0)  -->
<!DOCTYPE svg PUBLIC "-//W3C//DTD SVG 1.1//EN" "http://www.w3.org/Graphics/SVG/1.1/DTD/svg11.dtd">
<svg version="1.1" xmlns="http://www.w3.org/2000/svg" xmlns:xlink="http://www.w3.org/1999/xlink" x="0px" y="0px"
	 width="410.448px" height="173.046px" viewBox="0 0 410.448 173.046" enable-background="new 0 0 410.448 173.046"
	 xml:space="preserve">
<g id="图层_1">
	<circle fill="#59596B" cx="408.731" cy="25.535" r="1.718"/>
	<circle fill="#59596B" cx="402.656" cy="25.535" r="1.718"/>
	<path fill="#59596B" d="M396.581,27.252c0.947,0,1.719-0.769,1.719-1.717c0-0.95-0.771-1.718-1.719-1.718
		c-0.945,0-1.719,0.768-1.719,1.718C394.862,26.484,395.636,27.252,396.581,27.252z"/>
	<circle fill="#59596B" cx="390.506" cy="25.535" r="1.718"/>
	<circle fill="#59596B" cx="390.506" cy="37.683" r="1.719"/>
	<path fill="#59596B" d="M384.554,39.402c0.945,0,1.717-0.77,1.717-1.719c0-0.95-0.771-1.719-1.717-1.719
		c-0.949,0-1.723,0.77-1.723,1.719C382.831,38.632,383.604,39.402,384.554,39.402z"/>
	<circle fill="#59596B" cx="378.597" cy="43.639" r="1.718"/>
	<circle fill="#59596B" cx="384.431" cy="25.535" r="1.718"/>
	<path fill="#59596B" d="M378.359,27.252c0.946,0,1.712-0.769,1.712-1.717c0-0.95-0.766-1.718-1.712-1.718
		c-0.95,0-1.722,0.768-1.722,1.718C376.638,26.484,377.409,27.252,378.359,27.252z"/>
	<path fill="#59596B" d="M372.282,21.179c0.948,0,1.72-0.771,1.72-1.72c0-0.948-0.771-1.716-1.72-1.716
		c-0.947,0-1.716,0.768-1.716,1.716C370.566,20.407,371.335,21.179,372.282,21.179z"/>
	<circle fill="#59596B" cx="372.282" cy="25.535" r="1.718"/>
	<circle fill="#59596B" cx="372.282" cy="31.609" r="1.718"/>
	<path fill="#59596B" d="M366.207,27.252c0.946,0,1.72-0.769,1.72-1.717c0-0.95-0.773-1.718-1.72-1.718
		c-0.947,0-1.718,0.768-1.718,1.718C364.489,26.484,365.26,27.252,366.207,27.252z"/>
	<circle fill="#59596B" cx="366.207" cy="31.609" r="1.718"/>
	<path fill="#59596B" d="M360.134,27.252c0.947,0,1.717-0.769,1.717-1.717c0-0.95-0.77-1.718-1.717-1.718
		c-0.951,0-1.719,0.768-1.719,1.718C358.415,26.484,359.183,27.252,360.134,27.252z"/>
	<path fill="#59596B" d="M360.134,33.327c0.947,0,1.717-0.77,1.717-1.717c0-0.95-0.77-1.719-1.717-1.719
		c-0.951,0-1.719,0.77-1.719,1.719C358.415,32.558,359.183,33.327,360.134,33.327z"/>
	<path fill="#59596B" d="M360.134,45.475c0.947,0,1.717-0.768,1.717-1.717c0-0.946-0.77-1.718-1.717-1.718
		c-0.951,0-1.719,0.772-1.719,1.718C358.415,44.707,359.183,45.475,360.134,45.475z"/>
	<circle fill="#59596B" cx="360.134" cy="49.834" r="1.719"/>
	<path fill="#59596B" d="M354.181,60.021c-0.949,0-1.723,0.772-1.723,1.721c0,0.948,0.773,1.72,1.723,1.72
		c0.941,0,1.715-0.772,1.715-1.72C355.896,60.794,355.122,60.021,354.181,60.021z"/>
	<path fill="#59596B" d="M348.221,65.979c-0.944,0-1.715,0.768-1.715,1.717s0.771,1.716,1.715,1.716c0.95,0,1.722-0.768,1.722-1.716
		S349.171,65.979,348.221,65.979z"/>
	<path fill="#59596B" d="M354.057,27.252c0.947,0,1.722-0.769,1.722-1.717c0-0.95-0.774-1.718-1.722-1.718
		c-0.948,0-1.716,0.768-1.716,1.718C352.341,26.484,353.108,27.252,354.057,27.252z"/>
	<circle fill="#59596B" cx="354.057" cy="31.609" r="1.718"/>
	<path fill="#59596B" d="M354.057,39.402c0.947,0,1.722-0.77,1.722-1.719c0-0.95-0.774-1.719-1.722-1.719
		c-0.948,0-1.716,0.77-1.716,1.719C352.341,38.632,353.108,39.402,354.057,39.402z"/>
	<path fill="#59596B" d="M354.057,45.475c0.947,0,1.722-0.768,1.722-1.717c0-0.946-0.774-1.718-1.722-1.718
		c-0.948,0-1.716,0.772-1.716,1.718C352.341,44.707,353.108,45.475,354.057,45.475z"/>
	<path fill="#59596B" d="M354.057,51.553c0.947,0,1.722-0.771,1.722-1.72c0-0.948-0.774-1.717-1.722-1.717
		c-0.948,0-1.716,0.77-1.716,1.717C352.341,50.781,353.108,51.553,354.057,51.553z"/>
	<circle fill="#59596B" cx="347.983" cy="19.461" r="1.718"/>
	<circle fill="#59596B" cx="347.983" cy="25.535" r="1.718"/>
	<path fill="#59596B" d="M347.983,33.327c0.947,0,1.715-0.77,1.715-1.717c0-0.95-0.768-1.719-1.715-1.719s-1.721,0.77-1.721,1.719
		C346.263,32.558,347.036,33.327,347.983,33.327z"/>
	<circle fill="#59596B" cx="347.983" cy="37.683" r="1.719"/>
	<path fill="#59596B" d="M347.983,45.475c0.947,0,1.715-0.768,1.715-1.717c0-0.946-0.768-1.718-1.715-1.718
		s-1.721,0.772-1.721,1.718C346.263,44.707,347.036,45.475,347.983,45.475z"/>
	<path fill="#59596B" d="M347.983,48.116c-0.947,0-1.721,0.77-1.721,1.717c0,0.948,0.773,1.72,1.721,1.72s1.715-0.771,1.715-1.72
		C349.698,48.885,348.931,48.116,347.983,48.116z"/>
	<path fill="#59596B" d="M347.983,54.192c-0.947,0-1.721,0.768-1.721,1.717c0,0.945,0.773,1.719,1.721,1.719
		s1.715-0.774,1.715-1.719C349.698,54.959,348.931,54.192,347.983,54.192z"/>
	<path fill="#59596B" d="M341.906,21.179c0.948,0,1.722-0.771,1.722-1.72c0-0.948-0.773-1.716-1.722-1.716
		c-0.944,0-1.714,0.768-1.714,1.716C340.192,20.407,340.962,21.179,341.906,21.179z"/>
	<path fill="#59596B" d="M341.906,27.252c0.948,0,1.722-0.769,1.722-1.717c0-0.95-0.773-1.718-1.722-1.718
		c-0.944,0-1.714,0.768-1.714,1.718C340.192,26.484,340.962,27.252,341.906,27.252z"/>
	<path fill="#59596B" d="M341.906,33.327c0.948,0,1.722-0.77,1.722-1.717c0-0.95-0.773-1.719-1.722-1.719
		c-0.944,0-1.714,0.77-1.714,1.719C340.192,32.558,340.962,33.327,341.906,33.327z"/>
	<path fill="#59596B" d="M341.906,39.402c0.948,0,1.722-0.77,1.722-1.719c0-0.95-0.773-1.719-1.722-1.719
		c-0.944,0-1.714,0.77-1.714,1.719C340.192,38.632,340.962,39.402,341.906,39.402z"/>
	<path fill="#59596B" d="M341.906,42.04c-0.944,0-1.714,0.772-1.714,1.718c0,0.949,0.77,1.717,1.714,1.717
		c0.948,0,1.722-0.768,1.722-1.717C343.628,42.812,342.854,42.04,341.906,42.04z"/>
	<path fill="#59596B" d="M341.906,48.116c-0.944,0-1.714,0.77-1.714,1.717c0,0.948,0.77,1.72,1.714,1.72
		c0.948,0,1.722-0.771,1.722-1.72C343.628,48.885,342.854,48.116,341.906,48.116z"/>
	<path fill="#59596B" d="M335.832,21.179c0.952,0,1.718-0.771,1.718-1.72c0-0.948-0.766-1.716-1.718-1.716
		c-0.947,0-1.719,0.768-1.719,1.716C334.113,20.407,334.885,21.179,335.832,21.179z"/>
	<path fill="#59596B" d="M335.832,27.252c0.952,0,1.718-0.769,1.718-1.717c0-0.95-0.766-1.718-1.718-1.718
		c-0.947,0-1.719,0.768-1.719,1.718C334.113,26.484,334.885,27.252,335.832,27.252z"/>
	<path fill="#59596B" d="M335.832,33.327c0.952,0,1.718-0.77,1.718-1.717c0-0.95-0.766-1.719-1.718-1.719
		c-0.947,0-1.719,0.77-1.719,1.719C334.113,32.558,334.885,33.327,335.832,33.327z"/>
	<path fill="#59596B" d="M335.832,39.402c0.952,0,1.718-0.77,1.718-1.719c0-0.95-0.766-1.719-1.718-1.719
		c-0.947,0-1.719,0.77-1.719,1.719C334.113,38.632,334.885,39.402,335.832,39.402z"/>
	<path fill="#59596B" d="M335.832,42.04c-0.947,0-1.719,0.772-1.719,1.718c0,0.949,0.771,1.717,1.719,1.717
		c0.952,0,1.718-0.768,1.718-1.717C337.55,42.812,336.784,42.04,335.832,42.04z"/>
	<path fill="#59596B" d="M335.832,48.116c-0.947,0-1.719,0.77-1.719,1.717c0,0.948,0.771,1.72,1.719,1.72
		c0.952,0,1.718-0.771,1.718-1.72C337.55,48.885,336.784,48.116,335.832,48.116z"/>
	<path fill="#59596B" d="M335.832,57.628c0.952,0,1.718-0.774,1.718-1.719c0-0.95-0.766-1.717-1.718-1.717
		c-0.947,0-1.719,0.768-1.719,1.717C334.113,56.854,334.885,57.628,335.832,57.628z"/>
	<path fill="#59596B" d="M335.832,63.702c0.952,0,1.718-0.769,1.718-1.72c0-0.949-0.766-1.717-1.718-1.717
		c-0.947,0-1.719,0.768-1.719,1.717C334.113,62.933,334.885,63.702,335.832,63.702z"/>
	<path fill="#59596B" d="M335.832,69.774c0.952,0,1.718-0.767,1.718-1.717c0-0.948-0.766-1.718-1.718-1.718
		c-0.947,0-1.719,0.77-1.719,1.718C334.113,69.007,334.885,69.774,335.832,69.774z"/>
	<circle fill="#59596B" cx="341.906" cy="68.056" r="1.718"/>
	<path fill="#59596B" d="M335.832,75.847c0.952,0,1.718-0.768,1.718-1.716c0-0.948-0.766-1.715-1.718-1.715
		c-0.947,0-1.719,0.767-1.719,1.715C334.113,75.08,334.885,75.847,335.832,75.847z"/>
	<circle fill="#59596B" cx="329.759" cy="19.461" r="1.718"/>
	<circle fill="#59596B" cx="329.759" cy="13.505" r="1.718"/>
	<circle fill="#59596B" cx="329.759" cy="25.535" r="1.718"/>
	<circle fill="#59596B" cx="329.759" cy="31.609" r="1.718"/>
	<circle fill="#59596B" cx="329.759" cy="37.683" r="1.719"/>
	<circle fill="#59596B" cx="329.759" cy="43.757" r="1.718"/>
	<circle fill="#59596B" cx="329.759" cy="49.834" r="1.719"/>
	<path fill="#59596B" d="M329.759,57.628c0.949,0,1.717-0.774,1.717-1.719c0-0.95-0.768-1.717-1.717-1.717
		c-0.95,0-1.719,0.768-1.719,1.717C328.04,56.854,328.809,57.628,329.759,57.628z"/>
	<circle fill="#59596B" cx="329.759" cy="61.984" r="1.718"/>
	<circle fill="#59596B" cx="329.759" cy="68.056" r="1.718"/>
	<circle fill="#59596B" cx="329.759" cy="74.131" r="1.716"/>
	<path fill="#59596B" d="M323.68,15.102c0.95,0,1.723-0.769,1.723-1.719c0-0.946-0.772-1.718-1.723-1.718
		c-0.942,0-1.715,0.772-1.715,1.718C321.965,14.333,322.737,15.102,323.68,15.102z"/>
	<path fill="#59596B" d="M323.68,21.179c0.95,0,1.723-0.771,1.723-1.72c0-0.948-0.772-1.716-1.723-1.716
		c-0.942,0-1.715,0.768-1.715,1.716C321.965,20.407,322.737,21.179,323.68,21.179z"/>
	<path fill="#59596B" d="M323.68,27.252c0.95,0,1.723-0.769,1.723-1.717c0-0.95-0.772-1.718-1.723-1.718
		c-0.942,0-1.715,0.768-1.715,1.718C321.965,26.484,322.737,27.252,323.68,27.252z"/>
	<path fill="#59596B" d="M323.68,33.327c0.95,0,1.723-0.77,1.723-1.717c0-0.95-0.772-1.719-1.723-1.719
		c-0.942,0-1.715,0.77-1.715,1.719C321.965,32.558,322.737,33.327,323.68,33.327z"/>
	<path fill="#59596B" d="M323.68,39.402c0.95,0,1.723-0.77,1.723-1.719c0-0.95-0.772-1.719-1.723-1.719
		c-0.942,0-1.715,0.77-1.715,1.719C321.965,38.632,322.737,39.402,323.68,39.402z"/>
	<path fill="#59596B" d="M323.68,45.475c0.95,0,1.723-0.768,1.723-1.717c0-0.946-0.772-1.718-1.723-1.718
		c-0.942,0-1.715,0.772-1.715,1.718C321.965,44.707,322.737,45.475,323.68,45.475z"/>
	<path fill="#59596B" d="M323.68,51.553c0.95,0,1.723-0.771,1.723-1.72c0-0.948-0.772-1.717-1.723-1.717
		c-0.942,0-1.715,0.77-1.715,1.717C321.965,50.781,322.737,51.553,323.68,51.553z"/>
	<path fill="#59596B" d="M323.68,57.628c0.95,0,1.723-0.774,1.723-1.719c0-0.95-0.772-1.717-1.723-1.717
		c-0.942,0-1.715,0.768-1.715,1.717C321.965,56.854,322.737,57.628,323.68,57.628z"/>
	<path fill="#59596B" d="M323.68,63.702c0.95,0,1.723-0.769,1.723-1.72c0-0.949-0.772-1.717-1.723-1.717
		c-0.942,0-1.715,0.768-1.715,1.717C321.965,62.933,322.737,63.702,323.68,63.702z"/>
	<path fill="#59596B" d="M323.68,66.339c-0.942,0-1.715,0.77-1.715,1.718c0,0.95,0.772,1.717,1.715,1.717
		c0.95,0,1.723-0.767,1.723-1.717C325.402,67.108,324.63,66.339,323.68,66.339z"/>
	<path fill="#59596B" d="M323.68,72.416c-0.942,0-1.715,0.767-1.715,1.715c0,0.949,0.772,1.716,1.715,1.716
		c0.95,0,1.723-0.768,1.723-1.716C325.402,73.183,324.63,72.416,323.68,72.416z"/>
	<path fill="#59596B" d="M323.68,78.489c-0.942,0-1.715,0.77-1.715,1.719c0,0.947,0.772,1.716,1.715,1.716
		c0.95,0,1.723-0.77,1.723-1.716C325.402,79.258,324.63,78.489,323.68,78.489z"/>
	<path fill="#59596B" d="M323.68,88.002c0.95,0,1.723-0.773,1.723-1.717c0-0.951-0.772-1.72-1.723-1.72
		c-0.942,0-1.715,0.769-1.715,1.72C321.965,87.229,322.737,88.002,323.68,88.002z"/>
	<path fill="#59596B" d="M329.638,88.002c0.949,0,1.718-0.773,1.718-1.717c0-0.951-0.769-1.72-1.718-1.72
		c-0.947,0-1.721,0.769-1.721,1.72C327.917,87.229,328.69,88.002,329.638,88.002z"/>
	<path fill="#59596B" d="M323.68,90.639c-0.942,0-1.715,0.769-1.715,1.719s0.772,1.718,1.715,1.718c0.95,0,1.723-0.768,1.723-1.718
		S324.63,90.639,323.68,90.639z"/>
	<path fill="#59596B" d="M317.61,21.179c0.949,0,1.715-0.771,1.715-1.72c0-0.948-0.766-1.716-1.715-1.716
		c-0.951,0-1.721,0.768-1.721,1.716C315.89,20.407,316.659,21.179,317.61,21.179z"/>
	<path fill="#59596B" d="M317.61,27.252c0.949,0,1.715-0.769,1.715-1.717c0-0.95-0.766-1.718-1.715-1.718
		c-0.951,0-1.721,0.768-1.721,1.718C315.89,26.484,316.659,27.252,317.61,27.252z"/>
	<path fill="#59596B" d="M317.61,33.327c0.949,0,1.715-0.77,1.715-1.717c0-0.95-0.766-1.719-1.715-1.719
		c-0.951,0-1.721,0.77-1.721,1.719C315.89,32.558,316.659,33.327,317.61,33.327z"/>
	<path fill="#59596B" d="M317.61,39.402c0.949,0,1.715-0.77,1.715-1.719c0-0.95-0.766-1.719-1.715-1.719
		c-0.951,0-1.721,0.77-1.721,1.719C315.89,38.632,316.659,39.402,317.61,39.402z"/>
	<path fill="#59596B" d="M317.61,45.475c0.949,0,1.715-0.768,1.715-1.717c0-0.946-0.766-1.718-1.715-1.718
		c-0.951,0-1.721,0.772-1.721,1.718C315.89,44.707,316.659,45.475,317.61,45.475z"/>
	<path fill="#59596B" d="M317.61,51.553c0.949,0,1.715-0.771,1.715-1.72c0-0.948-0.766-1.717-1.715-1.717
		c-0.951,0-1.721,0.77-1.721,1.717C315.89,50.781,316.659,51.553,317.61,51.553z"/>
	<path fill="#59596B" d="M317.61,57.628c0.949,0,1.715-0.774,1.715-1.719c0-0.95-0.766-1.717-1.715-1.717
		c-0.951,0-1.721,0.768-1.721,1.717C315.89,56.854,316.659,57.628,317.61,57.628z"/>
	<circle fill="#59596B" cx="317.61" cy="61.984" r="1.718"/>
	<circle fill="#59596B" cx="317.61" cy="68.056" r="1.718"/>
	<circle fill="#59596B" cx="317.61" cy="74.131" r="1.716"/>
	<path fill="#59596B" d="M317.61,81.924c0.949,0,1.715-0.77,1.715-1.716c0-0.949-0.766-1.719-1.715-1.719
		c-0.951,0-1.721,0.77-1.721,1.719C315.89,81.154,316.659,81.924,317.61,81.924z"/>
	<path fill="#59596B" d="M317.61,84.564c-0.951,0-1.721,0.769-1.721,1.72c0,0.944,0.77,1.717,1.721,1.717
		c0.949,0,1.715-0.773,1.715-1.717C319.325,85.333,318.56,84.564,317.61,84.564z"/>
	<path fill="#59596B" d="M311.532,21.179c0.95,0,1.723-0.771,1.723-1.72c0-0.948-0.772-1.716-1.723-1.716
		c-0.946,0-1.714,0.768-1.714,1.716C309.818,20.407,310.586,21.179,311.532,21.179z"/>
	<path fill="#59596B" d="M311.532,27.252c0.95,0,1.723-0.769,1.723-1.717c0-0.95-0.772-1.718-1.723-1.718
		c-0.946,0-1.714,0.768-1.714,1.718C309.818,26.484,310.586,27.252,311.532,27.252z"/>
	<path fill="#59596B" d="M311.532,33.327c0.95,0,1.723-0.77,1.723-1.717c0-0.95-0.772-1.719-1.723-1.719
		c-0.946,0-1.714,0.77-1.714,1.719C309.818,32.558,310.586,33.327,311.532,33.327z"/>
	<path fill="#59596B" d="M311.532,39.402c0.95,0,1.723-0.77,1.723-1.719c0-0.95-0.772-1.719-1.723-1.719
		c-0.946,0-1.714,0.77-1.714,1.719C309.818,38.632,310.586,39.402,311.532,39.402z"/>
	<path fill="#59596B" d="M311.532,42.04c-0.946,0-1.714,0.772-1.714,1.718c0,0.949,0.768,1.717,1.714,1.717
		c0.95,0,1.723-0.768,1.723-1.717C313.255,42.812,312.482,42.04,311.532,42.04z"/>
	<path fill="#59596B" d="M311.532,51.553c0.95,0,1.723-0.771,1.723-1.72c0-0.948-0.772-1.717-1.723-1.717
		c-0.946,0-1.714,0.77-1.714,1.717C309.818,50.781,310.586,51.553,311.532,51.553z"/>
	<path fill="#59596B" d="M311.532,54.192c-0.946,0-1.714,0.768-1.714,1.717c0,0.945,0.768,1.719,1.714,1.719
		c0.95,0,1.723-0.774,1.723-1.719C313.255,54.959,312.482,54.192,311.532,54.192z"/>
	<path fill="#59596B" d="M311.532,60.266c-0.946,0-1.714,0.768-1.714,1.717c0,0.951,0.768,1.72,1.714,1.72
		c0.95,0,1.723-0.769,1.723-1.72C313.255,61.033,312.482,60.266,311.532,60.266z"/>
	<path fill="#59596B" d="M311.532,66.339c-0.946,0-1.714,0.77-1.714,1.718c0,0.95,0.768,1.717,1.714,1.717
		c0.95,0,1.723-0.767,1.723-1.717C313.255,67.108,312.482,66.339,311.532,66.339z"/>
	<path fill="#59596B" d="M311.532,72.416c-0.946,0-1.714,0.767-1.714,1.715c0,0.949,0.768,1.716,1.714,1.716
		c0.95,0,1.723-0.768,1.723-1.716C313.255,73.183,312.482,72.416,311.532,72.416z"/>
	<path fill="#59596B" d="M311.532,78.489c-0.946,0-1.714,0.77-1.714,1.719c0,0.947,0.768,1.716,1.714,1.716
		c0.95,0,1.723-0.77,1.723-1.716C313.255,79.258,312.482,78.489,311.532,78.489z"/>
	<path fill="#59596B" d="M305.456,21.179c0.951,0,1.721-0.771,1.721-1.72c0-0.948-0.77-1.716-1.721-1.716
		c-0.944,0-1.715,0.768-1.715,1.716C303.741,20.407,304.512,21.179,305.456,21.179z"/>
	<path fill="#59596B" d="M305.456,27.252c0.951,0,1.721-0.769,1.721-1.717c0-0.95-0.77-1.718-1.721-1.718
		c-0.944,0-1.715,0.768-1.715,1.718C303.741,26.484,304.512,27.252,305.456,27.252z"/>
	<path fill="#59596B" d="M305.456,33.327c0.951,0,1.721-0.77,1.721-1.717c0-0.95-0.77-1.719-1.721-1.719
		c-0.944,0-1.715,0.77-1.715,1.719C303.741,32.558,304.512,33.327,305.456,33.327z"/>
	<path fill="#59596B" d="M305.456,35.964c-0.944,0-1.715,0.77-1.715,1.719c0,0.949,0.771,1.719,1.715,1.719
		c0.951,0,1.721-0.77,1.721-1.719C307.177,36.734,306.407,35.964,305.456,35.964z"/>
	<path fill="#59596B" d="M305.456,45.475c0.951,0,1.721-0.768,1.721-1.717c0-0.946-0.77-1.718-1.721-1.718
		c-0.944,0-1.715,0.772-1.715,1.718C303.741,44.707,304.512,45.475,305.456,45.475z"/>
	<path fill="#59596B" d="M305.456,51.553c0.951,0,1.721-0.771,1.721-1.72c0-0.948-0.77-1.717-1.721-1.717
		c-0.944,0-1.715,0.77-1.715,1.717C303.741,50.781,304.512,51.553,305.456,51.553z"/>
	<path fill="#59596B" d="M305.456,54.192c-0.944,0-1.715,0.768-1.715,1.717c0,0.945,0.771,1.719,1.715,1.719
		c0.951,0,1.721-0.774,1.721-1.719C307.177,54.959,306.407,54.192,305.456,54.192z"/>
	<path fill="#59596B" d="M305.456,60.266c-0.944,0-1.715,0.768-1.715,1.717c0,0.951,0.771,1.72,1.715,1.72
		c0.951,0,1.721-0.769,1.721-1.72C307.177,61.033,306.407,60.266,305.456,60.266z"/>
	<path fill="#59596B" d="M305.456,66.339c-0.944,0-1.715,0.77-1.715,1.718c0,0.95,0.771,1.717,1.715,1.717
		c0.951,0,1.721-0.767,1.721-1.717C307.177,67.108,306.407,66.339,305.456,66.339z"/>
	<path fill="#59596B" d="M305.456,72.416c-0.944,0-1.715,0.767-1.715,1.715c0,0.949,0.771,1.716,1.715,1.716
		c0.951,0,1.721-0.768,1.721-1.716C307.177,73.183,306.407,72.416,305.456,72.416z"/>
	<circle fill="#59596B" cx="299.385" cy="19.461" r="1.718"/>
	<circle fill="#59596B" cx="299.385" cy="25.535" r="1.718"/>
	<circle fill="#59596B" cx="299.385" cy="31.609" r="1.718"/>
	<circle fill="#59596B" cx="299.385" cy="37.683" r="1.719"/>
	<circle fill="#59596B" cx="299.385" cy="43.757" r="1.718"/>
	<circle fill="#59596B" cx="299.385" cy="49.834" r="1.719"/>
	<path fill="#59596B" d="M299.385,54.192c-0.95,0-1.718,0.768-1.718,1.717c0,0.945,0.768,1.719,1.718,1.719
		c0.948,0,1.718-0.774,1.718-1.719C301.103,54.959,300.333,54.192,299.385,54.192z"/>
	<circle fill="#59596B" cx="299.385" cy="61.984" r="1.718"/>
	<circle fill="#59596B" cx="299.385" cy="68.056" r="1.718"/>
	<circle fill="#59596B" cx="299.385" cy="74.131" r="1.716"/>
	<circle fill="#59596B" cx="299.385" cy="80.206" r="1.718"/>
	<path fill="#59596B" d="M293.311,23.817c-0.945,0-1.719,0.768-1.719,1.718c0,0.949,0.773,1.717,1.719,1.717
		c0.946,0,1.718-0.769,1.718-1.717C295.028,24.585,294.257,23.817,293.311,23.817z"/>
	<path fill="#59596B" d="M293.311,33.327c0.946,0,1.718-0.77,1.718-1.717c0-0.95-0.771-1.719-1.718-1.719
		c-0.945,0-1.719,0.77-1.719,1.719C291.592,32.558,292.365,33.327,293.311,33.327z"/>
	<path fill="#59596B" d="M293.311,39.402c0.946,0,1.718-0.77,1.718-1.719c0-0.95-0.771-1.719-1.718-1.719
		c-0.945,0-1.719,0.77-1.719,1.719C291.592,38.632,292.365,39.402,293.311,39.402z"/>
	<path fill="#59596B" d="M293.311,45.475c0.946,0,1.718-0.768,1.718-1.717c0-0.946-0.771-1.718-1.718-1.718
		c-0.945,0-1.719,0.772-1.719,1.718C291.592,44.707,292.365,45.475,293.311,45.475z"/>
	<path fill="#59596B" d="M293.311,48.116c-0.945,0-1.719,0.77-1.719,1.717c0,0.948,0.773,1.72,1.719,1.72
		c0.946,0,1.718-0.771,1.718-1.72C295.028,48.885,294.257,48.116,293.311,48.116z"/>
	<path fill="#59596B" d="M293.311,54.192c-0.945,0-1.719,0.768-1.719,1.717c0,0.945,0.773,1.719,1.719,1.719
		c0.946,0,1.718-0.774,1.718-1.719C295.028,54.959,294.257,54.192,293.311,54.192z"/>
	<path fill="#59596B" d="M293.311,60.266c-0.945,0-1.719,0.768-1.719,1.717c0,0.951,0.773,1.72,1.719,1.72
		c0.946,0,1.718-0.769,1.718-1.72C295.028,61.033,294.257,60.266,293.311,60.266z"/>
	<path fill="#59596B" d="M293.311,66.339c-0.945,0-1.719,0.77-1.719,1.718c0,0.95,0.773,1.717,1.719,1.717
		c0.946,0,1.718-0.767,1.718-1.717C295.028,67.108,294.257,66.339,293.311,66.339z"/>
	<path fill="#59596B" d="M293.311,72.416c-0.945,0-1.719,0.767-1.719,1.715c0,0.949,0.773,1.716,1.719,1.716
		c0.946,0,1.718-0.768,1.718-1.716C295.028,73.183,294.257,72.416,293.311,72.416z"/>
	<path fill="#59596B" d="M293.311,81.924c0.946,0,1.718-0.77,1.718-1.716c0-0.949-0.771-1.719-1.718-1.719
		c-0.945,0-1.719,0.77-1.719,1.719C291.592,81.154,292.365,81.924,293.311,81.924z"/>
	<circle fill="#59596B" cx="287.235" cy="25.535" r="1.718"/>
	<circle fill="#59596B" cx="287.235" cy="31.609" r="1.718"/>
	<circle fill="#59596B" cx="287.235" cy="37.683" r="1.719"/>
	<circle fill="#59596B" cx="287.235" cy="43.757" r="1.718"/>
	<path fill="#59596B" d="M287.235,48.116c-0.949,0-1.717,0.77-1.717,1.717c0,0.948,0.768,1.72,1.717,1.72
		c0.951,0,1.719-0.771,1.719-1.72C288.954,48.885,288.187,48.116,287.235,48.116z"/>
	<path fill="#59596B" d="M287.235,54.192c-0.949,0-1.717,0.768-1.717,1.717c0,0.945,0.768,1.719,1.717,1.719
		c0.951,0,1.719-0.774,1.719-1.719C288.954,54.959,288.187,54.192,287.235,54.192z"/>
	<path fill="#59596B" d="M287.235,60.266c-0.949,0-1.717,0.768-1.717,1.717c0,0.951,0.768,1.72,1.717,1.72
		c0.951,0,1.719-0.769,1.719-1.72C288.954,61.033,288.187,60.266,287.235,60.266z"/>
	<path fill="#59596B" d="M287.235,66.339c-0.949,0-1.717,0.77-1.717,1.718c0,0.95,0.768,1.717,1.717,1.717
		c0.951,0,1.719-0.767,1.719-1.717C288.954,67.108,288.187,66.339,287.235,66.339z"/>
	<path fill="#59596B" d="M287.235,72.416c-0.949,0-1.717,0.767-1.717,1.715c0,0.949,0.768,1.716,1.717,1.716
		c0.951,0,1.719-0.768,1.719-1.716C288.954,73.183,288.187,72.416,287.235,72.416z"/>
	<path fill="#59596B" d="M287.235,78.489c-0.949,0-1.717,0.77-1.717,1.719c0,0.947,0.768,1.716,1.717,1.716
		c0.951,0,1.719-0.77,1.719-1.716C288.954,79.258,288.187,78.489,287.235,78.489z"/>
	<path fill="#59596B" d="M287.235,84.564c-0.949,0-1.717,0.769-1.717,1.72c0,0.944,0.768,1.717,1.717,1.717
		c0.951,0,1.719-0.773,1.719-1.717C288.954,85.333,288.187,84.564,287.235,84.564z"/>
	<path fill="#59596B" d="M281.158,17.743c-0.946,0-1.716,0.768-1.716,1.716c0,0.949,0.77,1.72,1.716,1.72
		c0.95,0,1.722-0.771,1.722-1.72C282.88,18.511,282.108,17.743,281.158,17.743z"/>
	<path fill="#59596B" d="M281.158,27.252c0.95,0,1.722-0.769,1.722-1.717c0-0.95-0.771-1.718-1.722-1.718
		c-0.946,0-1.716,0.768-1.716,1.718C279.442,26.484,280.212,27.252,281.158,27.252z"/>
	<path fill="#59596B" d="M281.158,33.327c0.95,0,1.722-0.77,1.722-1.717c0-0.95-0.771-1.719-1.722-1.719
		c-0.946,0-1.716,0.77-1.716,1.719C279.442,32.558,280.212,33.327,281.158,33.327z"/>
	<path fill="#59596B" d="M281.158,39.402c0.95,0,1.722-0.77,1.722-1.719c0-0.95-0.771-1.719-1.722-1.719
		c-0.946,0-1.716,0.77-1.716,1.719C279.442,38.632,280.212,39.402,281.158,39.402z"/>
	<path fill="#59596B" d="M281.158,45.475c0.95,0,1.722-0.768,1.722-1.717c0-0.946-0.771-1.718-1.722-1.718
		c-0.946,0-1.716,0.772-1.716,1.718C279.442,44.707,280.212,45.475,281.158,45.475z"/>
	<path fill="#59596B" d="M281.158,48.116c-0.946,0-1.716,0.77-1.716,1.717c0,0.948,0.77,1.72,1.716,1.72
		c0.95,0,1.722-0.771,1.722-1.72C282.88,48.885,282.108,48.116,281.158,48.116z"/>
	<path fill="#59596B" d="M281.158,54.192c-0.946,0-1.716,0.768-1.716,1.717c0,0.945,0.77,1.719,1.716,1.719
		c0.95,0,1.722-0.774,1.722-1.719C282.88,54.959,282.108,54.192,281.158,54.192z"/>
	<path fill="#59596B" d="M281.158,60.266c-0.946,0-1.716,0.768-1.716,1.717c0,0.951,0.77,1.72,1.716,1.72
		c0.95,0,1.722-0.769,1.722-1.72C282.88,61.033,282.108,60.266,281.158,60.266z"/>
	<circle fill="#59596B" cx="281.158" cy="68.056" r="1.718"/>
	<circle fill="#59596B" cx="281.158" cy="74.131" r="1.716"/>
	<path fill="#59596B" d="M275.083,27.252c0.951,0,1.719-0.769,1.719-1.717c0-0.95-0.768-1.718-1.719-1.718
		c-0.946,0-1.717,0.768-1.717,1.718C273.366,26.484,274.137,27.252,275.083,27.252z"/>
	<path fill="#59596B" d="M275.083,33.327c0.951,0,1.719-0.77,1.719-1.717c0-0.95-0.768-1.719-1.719-1.719
		c-0.946,0-1.717,0.77-1.717,1.719C273.366,32.558,274.137,33.327,275.083,33.327z"/>
	<path fill="#59596B" d="M275.083,39.402c0.951,0,1.719-0.77,1.719-1.719c0-0.95-0.768-1.719-1.719-1.719
		c-0.946,0-1.717,0.77-1.717,1.719C273.366,38.632,274.137,39.402,275.083,39.402z"/>
	<path fill="#59596B" d="M275.083,45.475c0.951,0,1.719-0.768,1.719-1.717c0-0.946-0.768-1.718-1.719-1.718
		c-0.946,0-1.717,0.772-1.717,1.718C273.366,44.707,274.137,45.475,275.083,45.475z"/>
	<path fill="#59596B" d="M275.083,48.116c-0.946,0-1.717,0.77-1.717,1.717c0,0.948,0.771,1.72,1.717,1.72
		c0.951,0,1.719-0.771,1.719-1.72C276.802,48.885,276.034,48.116,275.083,48.116z"/>
	<path fill="#59596B" d="M275.083,54.192c-0.946,0-1.717,0.768-1.717,1.717c0,0.945,0.771,1.719,1.717,1.719
		c0.951,0,1.719-0.774,1.719-1.719C276.802,54.959,276.034,54.192,275.083,54.192z"/>
	<path fill="#59596B" d="M275.083,60.266c-0.946,0-1.717,0.768-1.717,1.717c0,0.951,0.771,1.72,1.717,1.72
		c0.951,0,1.719-0.769,1.719-1.72C276.802,61.033,276.034,60.266,275.083,60.266z"/>
	<path fill="#59596B" d="M275.083,66.339c-0.946,0-1.717,0.77-1.717,1.718c0,0.95,0.771,1.717,1.717,1.717
		c0.951,0,1.719-0.767,1.719-1.717C276.802,67.108,276.034,66.339,275.083,66.339z"/>
	<path fill="#59596B" d="M269.01,23.817c-0.95,0-1.714,0.768-1.714,1.718c0,0.949,0.764,1.717,1.714,1.717s1.722-0.769,1.722-1.717
		C270.731,24.585,269.96,23.817,269.01,23.817z"/>
	<path fill="#59596B" d="M269.01,33.327c0.95,0,1.722-0.77,1.722-1.717c0-0.95-0.771-1.719-1.722-1.719s-1.714,0.77-1.714,1.719
		C267.296,32.558,268.06,33.327,269.01,33.327z"/>
	<path fill="#59596B" d="M269.01,39.402c0.95,0,1.722-0.77,1.722-1.719c0-0.95-0.771-1.719-1.722-1.719s-1.714,0.77-1.714,1.719
		C267.296,38.632,268.06,39.402,269.01,39.402z"/>
	<path fill="#59596B" d="M269.01,45.475c0.95,0,1.722-0.768,1.722-1.717c0-0.946-0.771-1.718-1.722-1.718s-1.714,0.772-1.714,1.718
		C267.296,44.707,268.06,45.475,269.01,45.475z"/>
	<path fill="#59596B" d="M269.01,54.192c-0.95,0-1.714,0.768-1.714,1.717c0,0.945,0.764,1.719,1.714,1.719s1.722-0.774,1.722-1.719
		C270.731,54.959,269.96,54.192,269.01,54.192z"/>
	<path fill="#59596B" d="M269.01,60.266c-0.95,0-1.714,0.768-1.714,1.717c0,0.951,0.764,1.72,1.714,1.72s1.722-0.769,1.722-1.72
		C270.731,61.033,269.96,60.266,269.01,60.266z"/>
	<path fill="#59596B" d="M269.01,66.339c-0.95,0-1.714,0.77-1.714,1.718c0,0.95,0.764,1.717,1.714,1.717s1.722-0.767,1.722-1.717
		C270.731,67.108,269.96,66.339,269.01,66.339z"/>
	<path fill="#59596B" d="M262.937,27.252c0.945,0,1.72-0.769,1.72-1.717c0-0.95-0.774-1.718-1.72-1.718
		c-0.947,0-1.72,0.768-1.72,1.718C261.217,26.484,261.989,27.252,262.937,27.252z"/>
	<path fill="#59596B" d="M262.937,33.327c0.945,0,1.72-0.77,1.72-1.717c0-0.95-0.774-1.719-1.72-1.719
		c-0.947,0-1.72,0.77-1.72,1.719C261.217,32.558,261.989,33.327,262.937,33.327z"/>
	<path fill="#59596B" d="M262.937,39.402c0.945,0,1.72-0.77,1.72-1.719c0-0.95-0.774-1.719-1.72-1.719
		c-0.947,0-1.72,0.77-1.72,1.719C261.217,38.632,261.989,39.402,262.937,39.402z"/>
	<path fill="#59596B" d="M262.937,45.475c0.945,0,1.72-0.768,1.72-1.717c0-0.946-0.774-1.718-1.72-1.718
		c-0.947,0-1.72,0.772-1.72,1.718C261.217,44.707,261.989,45.475,262.937,45.475z"/>
	<path fill="#59596B" d="M262.937,66.339c-0.947,0-1.72,0.77-1.72,1.718c0,0.95,0.772,1.717,1.72,1.717
		c0.945,0,1.72-0.767,1.72-1.717C264.656,67.108,263.882,66.339,262.937,66.339z"/>
	<path fill="#59596B" d="M262.937,81.924c0.945,0,1.72-0.77,1.72-1.716c0-0.949-0.774-1.719-1.72-1.719
		c-0.947,0-1.72,0.77-1.72,1.719C261.217,81.154,261.989,81.924,262.937,81.924z"/>
	<circle fill="#59596B" cx="256.862" cy="25.535" r="1.718"/>
	<circle fill="#59596B" cx="256.862" cy="31.609" r="1.718"/>
	<circle fill="#59596B" cx="256.862" cy="37.683" r="1.719"/>
	<circle fill="#59596B" cx="256.862" cy="43.757" r="1.718"/>
	<path fill="#59596B" d="M256.862,51.431c0.949,0,1.717-0.769,1.717-1.717c0-0.953-0.768-1.72-1.717-1.72
		c-0.95,0-1.719,0.767-1.719,1.72C255.144,50.663,255.912,51.431,256.862,51.431z"/>
	<circle fill="#59596B" cx="256.862" cy="68.056" r="1.718"/>
	<circle fill="#59596B" cx="256.862" cy="80.206" r="1.718"/>
	<path fill="#59596B" d="M256.862,84.564c-0.95,0-1.719,0.769-1.719,1.72c0,0.944,0.769,1.717,1.719,1.717
		c0.949,0,1.717-0.773,1.717-1.717C258.579,85.333,257.812,84.564,256.862,84.564z"/>
	<path fill="#59596B" d="M250.784,33.327c0.949,0,1.721-0.77,1.721-1.717c0-0.95-0.771-1.719-1.721-1.719
		c-0.946,0-1.715,0.77-1.715,1.719C249.069,32.558,249.838,33.327,250.784,33.327z"/>
	<path fill="#59596B" d="M250.784,39.402c0.949,0,1.721-0.77,1.721-1.719c0-0.95-0.771-1.719-1.721-1.719
		c-0.946,0-1.715,0.77-1.715,1.719C249.069,38.632,249.838,39.402,250.784,39.402z"/>
	<path fill="#59596B" d="M250.784,45.475c0.949,0,1.721-0.768,1.721-1.717c0-0.946-0.771-1.718-1.721-1.718
		c-0.946,0-1.715,0.772-1.715,1.718C249.069,44.707,249.838,45.475,250.784,45.475z"/>
	<path fill="#59596B" d="M250.784,69.774c0.949,0,1.721-0.767,1.721-1.717c0-0.948-0.771-1.718-1.721-1.718
		c-0.946,0-1.715,0.77-1.715,1.718C249.069,69.007,249.838,69.774,250.784,69.774z"/>
	<path fill="#59596B" d="M250.784,100.15c0.949,0,1.721-0.768,1.721-1.719c0-0.949-0.771-1.719-1.721-1.719
		c-0.946,0-1.715,0.77-1.715,1.719C249.069,99.382,249.838,100.15,250.784,100.15z"/>
	<circle fill="#59596B" cx="244.712" cy="31.609" r="1.718"/>
	<circle fill="#59596B" cx="244.712" cy="37.683" r="1.719"/>
	<circle fill="#59596B" cx="244.712" cy="43.757" r="1.718"/>
	<circle fill="#59596B" cx="244.712" cy="61.984" r="1.718"/>
	<circle fill="#59596B" cx="244.712" cy="68.056" r="1.718"/>
	<circle fill="#59596B" cx="244.712" cy="98.431" r="1.719"/>
	<circle fill="#59596B" cx="244.712" cy="104.506" r="1.719"/>
	<circle fill="#59596B" cx="238.636" cy="31.609" r="1.718"/>
	<circle fill="#59596B" cx="238.636" cy="37.683" r="1.719"/>
	<circle fill="#59596B" cx="238.636" cy="43.757" r="1.718"/>
	<circle fill="#59596B" cx="238.636" cy="98.431" r="1.719"/>
	<circle fill="#59596B" cx="238.636" cy="104.506" r="1.719"/>
	<path fill="#59596B" d="M238.636,112.298c0.949,0,1.721-0.768,1.721-1.717c0-0.945-0.771-1.72-1.721-1.72s-1.715,0.774-1.715,1.72
		C236.921,111.531,237.687,112.298,238.636,112.298z"/>
	<circle fill="#59596B" cx="238.636" cy="116.655" r="1.718"/>
	<circle fill="#59596B" cx="238.636" cy="122.731" r="1.716"/>
	<path fill="#59596B" d="M245.017,124.447c0.949,0,1.717-0.769,1.717-1.716c0-0.948-0.768-1.716-1.717-1.716
		c-0.952,0-1.719,0.768-1.719,1.716C243.298,123.678,244.064,124.447,245.017,124.447z"/>
	<path fill="#59596B" d="M238.636,127.089c-0.949,0-1.715,0.768-1.715,1.719c0,0.946,0.766,1.715,1.715,1.715
		s1.721-0.769,1.721-1.715C240.356,127.857,239.585,127.089,238.636,127.089z"/>
	<circle fill="#59596B" cx="232.562" cy="25.535" r="1.718"/>
	<circle fill="#59596B" cx="232.562" cy="37.683" r="1.719"/>
	<circle fill="#59596B" cx="232.562" cy="31.609" r="1.719"/>
	<path fill="#59596B" d="M232.562,42.04c-0.946,0-1.719,0.772-1.719,1.718c0,0.949,0.772,1.717,1.719,1.717s1.717-0.768,1.717-1.717
		C234.278,42.812,233.508,42.04,232.562,42.04z"/>
	<circle fill="#59596B" cx="232.562" cy="74.131" r="1.716"/>
	<circle fill="#59596B" cx="232.562" cy="80.206" r="1.718"/>
	<path fill="#59596B" d="M232.562,88.002c0.946,0,1.717-0.773,1.717-1.717c0-0.951-0.771-1.72-1.717-1.72s-1.719,0.769-1.719,1.72
		C230.843,87.229,231.615,88.002,232.562,88.002z"/>
	<path fill="#59596B" d="M232.562,90.639c-0.946,0-1.719,0.769-1.719,1.719s0.772,1.718,1.719,1.718s1.717-0.768,1.717-1.718
		S233.508,90.639,232.562,90.639z"/>
	<circle fill="#59596B" cx="232.562" cy="98.431" r="1.719"/>
	<circle fill="#59596B" cx="232.562" cy="104.506" r="1.719"/>
	<path fill="#59596B" d="M232.562,112.298c0.946,0,1.717-0.768,1.717-1.717c0-0.945-0.771-1.72-1.717-1.72s-1.719,0.774-1.719,1.72
		C230.843,111.531,231.615,112.298,232.562,112.298z"/>
	<path fill="#59596B" d="M232.562,118.373c0.946,0,1.717-0.768,1.717-1.715c0-0.949-0.771-1.721-1.717-1.721
		s-1.719,0.771-1.719,1.721C230.843,117.605,231.615,118.373,232.562,118.373z"/>
	<path fill="#59596B" d="M232.562,121.015c-0.946,0-1.719,0.768-1.719,1.716c0,0.947,0.772,1.716,1.719,1.716
		s1.717-0.769,1.717-1.716C234.278,121.783,233.508,121.015,232.562,121.015z"/>
	<path fill="#59596B" d="M232.562,130.523c0.946,0,1.717-0.769,1.717-1.715c0-0.951-0.771-1.719-1.717-1.719
		s-1.719,0.768-1.719,1.719C230.843,129.754,231.615,130.523,232.562,130.523z"/>
	<circle fill="#59596B" cx="232.562" cy="134.882" r="1.718"/>
	<path fill="#59596B" d="M232.562,139.237c-0.946,0-1.719,0.769-1.719,1.72c0,0.947,0.772,1.717,1.719,1.717s1.717-0.77,1.717-1.717
		C234.278,140.005,233.508,139.237,232.562,139.237z"/>
	<path fill="#59596B" d="M226.485,75.847c0.951,0,1.721-0.768,1.721-1.716c0-0.948-0.77-1.715-1.721-1.715
		c-0.947,0-1.717,0.767-1.717,1.715C224.769,75.08,225.538,75.847,226.485,75.847z"/>
	<path fill="#59596B" d="M226.485,78.489c-0.947,0-1.717,0.77-1.717,1.719c0,0.947,0.77,1.716,1.717,1.716
		c0.951,0,1.721-0.77,1.721-1.716C228.206,79.258,227.437,78.489,226.485,78.489z"/>
	<path fill="#59596B" d="M226.485,84.564c-0.947,0-1.717,0.769-1.717,1.72c0,0.944,0.77,1.717,1.717,1.717
		c0.951,0,1.721-0.773,1.721-1.717C228.206,85.333,227.437,84.564,226.485,84.564z"/>
	<path fill="#59596B" d="M226.485,94.076c0.951,0,1.721-0.768,1.721-1.718s-0.77-1.719-1.721-1.719
		c-0.947,0-1.717,0.769-1.717,1.719S225.538,94.076,226.485,94.076z"/>
	<path fill="#59596B" d="M226.485,100.15c0.951,0,1.721-0.768,1.721-1.719c0-0.949-0.77-1.719-1.721-1.719
		c-0.947,0-1.717,0.77-1.717,1.719C224.769,99.382,225.538,100.15,226.485,100.15z"/>
	<path fill="#59596B" d="M226.485,102.787c-0.947,0-1.717,0.77-1.717,1.719c0,0.951,0.77,1.72,1.717,1.72
		c0.951,0,1.721-0.769,1.721-1.72C228.206,103.556,227.437,102.787,226.485,102.787z"/>
	<path fill="#59596B" d="M226.485,108.862c-0.947,0-1.717,0.774-1.717,1.72c0,0.949,0.77,1.717,1.717,1.717
		c0.951,0,1.721-0.768,1.721-1.717C228.206,109.636,227.437,108.862,226.485,108.862z"/>
	<path fill="#59596B" d="M226.485,114.937c-0.947,0-1.717,0.771-1.717,1.721c0,0.947,0.77,1.715,1.717,1.715
		c0.951,0,1.721-0.768,1.721-1.715C228.206,115.708,227.437,114.937,226.485,114.937z"/>
	<path fill="#59596B" d="M226.485,124.447c0.951,0,1.721-0.769,1.721-1.716c0-0.948-0.77-1.716-1.721-1.716
		c-0.947,0-1.717,0.768-1.717,1.716C224.769,123.678,225.538,124.447,226.485,124.447z"/>
	<path fill="#59596B" d="M226.485,130.523c0.951,0,1.721-0.769,1.721-1.715c0-0.951-0.77-1.719-1.721-1.719
		c-0.947,0-1.717,0.768-1.717,1.719C224.769,129.754,225.538,130.523,226.485,130.523z"/>
	<path fill="#59596B" d="M226.485,133.164c-0.947,0-1.717,0.768-1.717,1.719c0,0.947,0.77,1.718,1.717,1.718
		c0.951,0,1.721-0.771,1.721-1.718C228.206,133.931,227.437,133.164,226.485,133.164z"/>
	<path fill="#59596B" d="M226.485,142.673c0.951,0,1.721-0.77,1.721-1.717c0-0.951-0.77-1.72-1.721-1.72
		c-0.947,0-1.717,0.769-1.717,1.72C224.769,141.904,225.538,142.673,226.485,142.673z"/>
	<path fill="#59596B" d="M220.409,75.847c0.951,0,1.723-0.768,1.723-1.716c0-0.948-0.771-1.715-1.723-1.715
		c-0.945,0-1.714,0.767-1.714,1.715C218.695,75.08,219.464,75.847,220.409,75.847z"/>
	<path fill="#59596B" d="M220.409,78.489c-0.945,0-1.714,0.77-1.714,1.719c0,0.947,0.769,1.716,1.714,1.716
		c0.951,0,1.723-0.77,1.723-1.716C222.132,79.258,221.36,78.489,220.409,78.489z"/>
	<path fill="#59596B" d="M220.409,84.564c-0.945,0-1.714,0.769-1.714,1.72c0,0.944,0.769,1.717,1.714,1.717
		c0.951,0,1.723-0.773,1.723-1.717C222.132,85.333,221.36,84.564,220.409,84.564z"/>
	<path fill="#59596B" d="M220.409,90.639c-0.945,0-1.714,0.769-1.714,1.719s0.769,1.718,1.714,1.718
		c0.951,0,1.723-0.768,1.723-1.718S221.36,90.639,220.409,90.639z"/>
	<path fill="#59596B" d="M220.409,96.712c-0.945,0-1.714,0.77-1.714,1.719c0,0.951,0.769,1.719,1.714,1.719
		c0.951,0,1.723-0.768,1.723-1.719C222.132,97.482,221.36,96.712,220.409,96.712z"/>
	<path fill="#59596B" d="M220.409,102.787c-0.945,0-1.714,0.77-1.714,1.719c0,0.951,0.769,1.72,1.714,1.72
		c0.951,0,1.723-0.769,1.723-1.72C222.132,103.556,221.36,102.787,220.409,102.787z"/>
	<path fill="#59596B" d="M220.409,108.862c-0.945,0-1.714,0.774-1.714,1.72c0,0.949,0.769,1.717,1.714,1.717
		c0.951,0,1.723-0.768,1.723-1.717C222.132,109.636,221.36,108.862,220.409,108.862z"/>
	<path fill="#59596B" d="M220.409,114.937c-0.945,0-1.714,0.771-1.714,1.721c0,0.947,0.769,1.715,1.714,1.715
		c0.951,0,1.723-0.768,1.723-1.715C222.132,115.708,221.36,114.937,220.409,114.937z"/>
	<path fill="#59596B" d="M220.409,121.015c-0.945,0-1.714,0.768-1.714,1.716c0,0.947,0.769,1.716,1.714,1.716
		c0.951,0,1.723-0.769,1.723-1.716C222.132,121.783,221.36,121.015,220.409,121.015z"/>
	<path fill="#59596B" d="M220.409,127.089c-0.945,0-1.714,0.768-1.714,1.719c0,0.946,0.769,1.715,1.714,1.715
		c0.951,0,1.723-0.769,1.723-1.715C222.132,127.857,221.36,127.089,220.409,127.089z"/>
	<path fill="#59596B" d="M220.409,133.164c-0.945,0-1.714,0.768-1.714,1.719c0,0.947,0.769,1.718,1.714,1.718
		c0.951,0,1.723-0.771,1.723-1.718C222.132,133.931,221.36,133.164,220.409,133.164z"/>
	<path fill="#59596B" d="M220.409,139.237c-0.945,0-1.714,0.769-1.714,1.72c0,0.947,0.769,1.717,1.714,1.717
		c0.951,0,1.723-0.77,1.723-1.717C222.132,140.005,221.36,139.237,220.409,139.237z"/>
	<path fill="#59596B" d="M220.409,145.312c-0.945,0-1.714,0.77-1.714,1.719s0.769,1.719,1.714,1.719c0.951,0,1.723-0.77,1.723-1.719
		S221.36,145.312,220.409,145.312z"/>
	<path fill="#59596B" d="M214.339,75.847c0.947,0,1.714-0.768,1.714-1.716c0-0.948-0.767-1.715-1.714-1.715
		c-0.951,0-1.721,0.767-1.721,1.715C212.618,75.08,213.388,75.847,214.339,75.847z"/>
	<path fill="#59596B" d="M214.339,78.489c-0.951,0-1.721,0.77-1.721,1.719c0,0.947,0.77,1.716,1.721,1.716
		c0.947,0,1.714-0.77,1.714-1.716C216.053,79.258,215.286,78.489,214.339,78.489z"/>
	<path fill="#59596B" d="M214.339,84.564c-0.951,0-1.721,0.769-1.721,1.72c0,0.944,0.77,1.717,1.721,1.717
		c0.947,0,1.714-0.773,1.714-1.717C216.053,85.333,215.286,84.564,214.339,84.564z"/>
	<path fill="#59596B" d="M214.339,90.639c-0.951,0-1.721,0.769-1.721,1.719s0.77,1.718,1.721,1.718c0.947,0,1.714-0.768,1.714-1.718
		S215.286,90.639,214.339,90.639z"/>
	<path fill="#59596B" d="M214.339,96.712c-0.951,0-1.721,0.77-1.721,1.719c0,0.951,0.77,1.719,1.721,1.719
		c0.947,0,1.714-0.768,1.714-1.719C216.053,97.482,215.286,96.712,214.339,96.712z"/>
	<path fill="#59596B" d="M214.339,102.787c-0.951,0-1.721,0.77-1.721,1.719c0,0.951,0.77,1.72,1.721,1.72
		c0.947,0,1.714-0.769,1.714-1.72C216.053,103.556,215.286,102.787,214.339,102.787z"/>
	<path fill="#59596B" d="M214.339,108.862c-0.951,0-1.721,0.774-1.721,1.72c0,0.949,0.77,1.717,1.721,1.717
		c0.947,0,1.714-0.768,1.714-1.717C216.053,109.636,215.286,108.862,214.339,108.862z"/>
	<path fill="#59596B" d="M214.339,114.937c-0.951,0-1.721,0.771-1.721,1.721c0,0.947,0.77,1.715,1.721,1.715
		c0.947,0,1.714-0.768,1.714-1.715C216.053,115.708,215.286,114.937,214.339,114.937z"/>
	<path fill="#59596B" d="M214.339,124.447c0.947,0,1.714-0.769,1.714-1.716c0-0.948-0.767-1.716-1.714-1.716
		c-0.951,0-1.721,0.768-1.721,1.716C212.618,123.678,213.388,124.447,214.339,124.447z"/>
	<path fill="#59596B" d="M214.339,127.089c-0.951,0-1.721,0.768-1.721,1.719c0,0.946,0.77,1.715,1.721,1.715
		c0.947,0,1.714-0.769,1.714-1.715C216.053,127.857,215.286,127.089,214.339,127.089z"/>
	<path fill="#59596B" d="M208.261,29.891c-0.944,0-1.716,0.77-1.716,1.719c0,0.948,0.771,1.717,1.716,1.717
		c0.949,0,1.723-0.77,1.723-1.717C209.983,30.66,209.21,29.891,208.261,29.891z"/>
	<path fill="#59596B" d="M208.261,42.04c-0.944,0-1.716,0.772-1.716,1.718c0,0.949,0.771,1.717,1.716,1.717
		c0.949,0,1.723-0.768,1.723-1.717C209.983,42.812,209.21,42.04,208.261,42.04z"/>
	<path fill="#59596B" d="M208.261,72.416c-0.944,0-1.716,0.767-1.716,1.715c0,0.949,0.771,1.716,1.716,1.716
		c0.949,0,1.723-0.768,1.723-1.716C209.983,73.183,209.21,72.416,208.261,72.416z"/>
	<path fill="#59596B" d="M208.261,78.489c-0.944,0-1.716,0.77-1.716,1.719c0,0.947,0.771,1.716,1.716,1.716
		c0.949,0,1.723-0.77,1.723-1.716C209.983,79.258,209.21,78.489,208.261,78.489z"/>
	<path fill="#59596B" d="M208.261,84.564c-0.944,0-1.716,0.769-1.716,1.72c0,0.944,0.771,1.717,1.716,1.717
		c0.949,0,1.723-0.773,1.723-1.717C209.983,85.333,209.21,84.564,208.261,84.564z"/>
	<path fill="#59596B" d="M208.261,90.639c-0.944,0-1.716,0.769-1.716,1.719s0.771,1.718,1.716,1.718
		c0.949,0,1.723-0.768,1.723-1.718S209.21,90.639,208.261,90.639z"/>
	<path fill="#59596B" d="M208.261,96.712c-0.944,0-1.716,0.77-1.716,1.719c0,0.951,0.771,1.719,1.716,1.719
		c0.949,0,1.723-0.768,1.723-1.719C209.983,97.482,209.21,96.712,208.261,96.712z"/>
	<ellipse fill="#59596B" cx="202.189" cy="74.131" rx="1.722" ry="1.716"/>
	<path fill="#59596B" d="M202.189,81.924c0.95,0,1.716-0.77,1.716-1.716c0-0.949-0.767-1.719-1.716-1.719
		c-0.949,0-1.722,0.77-1.722,1.719C200.467,81.154,201.24,81.924,202.189,81.924z"/>
	<path fill="#59596B" d="M202.189,84.564c-0.949,0-1.722,0.769-1.722,1.72c0,0.944,0.773,1.717,1.722,1.717
		c0.95,0,1.716-0.773,1.716-1.717C203.905,85.333,203.139,84.564,202.189,84.564z"/>
	<circle fill="#59596B" cx="202.189" cy="92.357" r="1.718"/>
	<circle fill="#59596B" cx="196.111" cy="74.131" r="1.716"/>
	<path fill="#59596B" d="M196.111,78.489c-0.948,0-1.714,0.77-1.714,1.719c0,0.947,0.766,1.716,1.714,1.716
		c0.95,0,1.72-0.77,1.72-1.716C197.831,79.258,197.062,78.489,196.111,78.489z"/>
	<path fill="#59596B" d="M196.111,84.564c-0.948,0-1.714,0.769-1.714,1.72c0,0.944,0.766,1.717,1.714,1.717
		c0.95,0,1.72-0.773,1.72-1.717C197.831,85.333,197.062,84.564,196.111,84.564z"/>
	<path fill="#59596B" d="M196.111,90.639c-0.948,0-1.714,0.769-1.714,1.719s0.766,1.718,1.714,1.718c0.95,0,1.72-0.768,1.72-1.718
		S197.062,90.639,196.111,90.639z"/>
	<path fill="#59596B" d="M190.035,72.416c-0.943,0-1.715,0.767-1.715,1.715c0,0.949,0.772,1.716,1.715,1.716
		c0.949,0,1.722-0.768,1.722-1.716C191.757,73.183,190.984,72.416,190.035,72.416z"/>
	<path fill="#59596B" d="M190.035,81.924c0.949,0,1.722-0.77,1.722-1.716c0-0.949-0.773-1.719-1.722-1.719
		c-0.943,0-1.715,0.77-1.715,1.719C188.32,81.154,189.092,81.924,190.035,81.924z"/>
	<path fill="#59596B" d="M190.035,84.564c-0.943,0-1.715,0.769-1.715,1.72c0,0.944,0.772,1.717,1.715,1.717
		c0.949,0,1.722-0.773,1.722-1.717C191.757,85.333,190.984,84.564,190.035,84.564z"/>
	<path fill="#59596B" d="M190.035,90.639c-0.943,0-1.715,0.769-1.715,1.719s0.772,1.718,1.715,1.718
		c0.949,0,1.722-0.768,1.722-1.718S190.984,90.639,190.035,90.639z"/>
	<path fill="#59596B" d="M190.035,96.712c-0.943,0-1.715,0.77-1.715,1.719c0,0.951,0.772,1.719,1.715,1.719
		c0.949,0,1.722-0.768,1.722-1.719C191.757,97.482,190.984,96.712,190.035,96.712z"/>
	<circle fill="#59596B" cx="183.964" cy="74.131" r="1.716"/>
	<circle fill="#59596B" cx="183.964" cy="80.206" r="1.718"/>
	<path fill="#59596B" d="M177.895,78.489c-0.95,0-1.723,0.77-1.723,1.719c0,0.947,0.773,1.716,1.723,1.716
		c0.949,0,1.714-0.77,1.714-1.716C179.609,79.258,178.843,78.489,177.895,78.489z"/>
	<path fill="#59596B" d="M183.964,84.564c-0.947,0-1.719,0.769-1.719,1.72c0,0.944,0.772,1.717,1.719,1.717
		c0.95,0,1.716-0.773,1.716-1.717C185.68,85.333,184.914,84.564,183.964,84.564z"/>
	<circle fill="#59596B" cx="183.964" cy="92.357" r="1.718"/>
	<path fill="#59596B" d="M378.359,29.891c-0.95,0-1.722,0.77-1.722,1.719c0,0.948,0.771,1.717,1.722,1.717
		c0.946,0,1.712-0.77,1.712-1.717C380.071,30.66,379.306,29.891,378.359,29.891z"/>
	<path fill="#59596B" d="M293.311,21.179c0.946,0,1.718-0.771,1.718-1.72c0-0.948-0.771-1.716-1.718-1.716
		c-0.945,0-1.719,0.768-1.719,1.716C291.592,20.407,292.365,21.179,293.311,21.179z"/>
	<path fill="#59596B" d="M262.937,48.116c-0.947,0-1.72,0.77-1.72,1.717c0,0.948,0.772,1.72,1.72,1.72c0.945,0,1.72-0.771,1.72-1.72
		C264.656,48.885,263.882,48.116,262.937,48.116z"/>
	<path fill="#59596B" d="M262.937,54.192c-0.947,0-1.72,0.768-1.72,1.717c0,0.945,0.772,1.719,1.72,1.719
		c0.945,0,1.72-0.774,1.72-1.719C264.656,54.959,263.882,54.192,262.937,54.192z"/>
	<path fill="#59596B" d="M262.937,60.266c-0.947,0-1.72,0.768-1.72,1.717c0,0.951,0.772,1.72,1.72,1.72
		c0.945,0,1.72-0.769,1.72-1.72C264.656,61.033,263.882,60.266,262.937,60.266z"/>
	<path fill="#59596B" d="M250.784,48.116c-0.946,0-1.715,0.77-1.715,1.717c0,0.948,0.769,1.72,1.715,1.72
		c0.949,0,1.721-0.771,1.721-1.72C252.505,48.885,251.733,48.116,250.784,48.116z"/>
	<path fill="#59596B" d="M250.784,54.192c-0.946,0-1.715,0.768-1.715,1.717c0,0.945,0.769,1.719,1.715,1.719
		c0.949,0,1.721-0.774,1.721-1.719C252.505,54.959,251.733,54.192,250.784,54.192z"/>
	<path fill="#59596B" d="M250.784,60.266c-0.946,0-1.715,0.768-1.715,1.717c0,0.951,0.769,1.72,1.715,1.72
		c0.949,0,1.721-0.769,1.721-1.72C252.505,61.033,251.733,60.266,250.784,60.266z"/>
	<path fill="#59596B" d="M250.784,75.847c0.949,0,1.721-0.768,1.721-1.716c0-0.948-0.771-1.715-1.721-1.715
		c-0.946,0-1.715,0.767-1.715,1.715C249.069,75.08,249.838,75.847,250.784,75.847z"/>
	<path fill="#59596B" d="M250.784,81.924c0.949,0,1.721-0.77,1.721-1.716c0-0.949-0.771-1.719-1.721-1.719
		c-0.946,0-1.715,0.77-1.715,1.719C249.069,81.154,249.838,81.924,250.784,81.924z"/>
	<path fill="#59596B" d="M250.784,88.002c0.949,0,1.721-0.773,1.721-1.717c0-0.951-0.771-1.72-1.721-1.72
		c-0.946,0-1.715,0.769-1.715,1.72C249.069,87.229,249.838,88.002,250.784,88.002z"/>
	<circle fill="#59596B" cx="244.712" cy="74.131" r="1.716"/>
	<circle fill="#59596B" cx="244.712" cy="92.357" r="1.718"/>
	<circle fill="#59596B" cx="238.636" cy="80.206" r="1.718"/>
	<path fill="#59596B" d="M238.636,84.564c-0.949,0-1.715,0.769-1.715,1.72c0,0.944,0.766,1.717,1.715,1.717s1.721-0.773,1.721-1.717
		C240.356,85.333,239.585,84.564,238.636,84.564z"/>
	<circle fill="#59596B" cx="238.636" cy="92.357" r="1.718"/>
	<circle fill="#59596B" cx="244.712" cy="49.834" r="1.719"/>
	<path fill="#59596B" d="M226.485,51.553c0.951,0,1.721-0.771,1.721-1.72c0-0.948-0.77-1.717-1.721-1.717
		c-0.947,0-1.717,0.77-1.717,1.717C224.769,50.781,225.538,51.553,226.485,51.553z"/>
	<path fill="#59596B" d="M220.409,51.553c0.951,0,1.723-0.771,1.723-1.72c0-0.948-0.771-1.717-1.723-1.717
		c-0.945,0-1.714,0.77-1.714,1.717C218.695,50.781,219.464,51.553,220.409,51.553z"/>
	<path fill="#59596B" d="M208.261,51.553c0.949,0,1.723-0.771,1.723-1.72c0-0.948-0.773-1.717-1.723-1.717
		c-0.944,0-1.716,0.77-1.716,1.717C206.545,50.781,207.316,51.553,208.261,51.553z"/>
	<path fill="#59596B" d="M208.261,57.505c0.949,0,1.723-0.769,1.723-1.718s-0.773-1.719-1.723-1.719
		c-0.944,0-1.716,0.77-1.716,1.719S207.316,57.505,208.261,57.505z"/>
	<path fill="#59596B" d="M202.31,57.505c0.944,0,1.717-0.769,1.717-1.718s-0.772-1.719-1.717-1.719c-0.952,0-1.719,0.77-1.719,1.719
		S201.358,57.505,202.31,57.505z"/>
	<path fill="#59596B" d="M214.218,57.505c0.945,0,1.719-0.769,1.719-1.718s-0.773-1.719-1.719-1.719c-0.947,0-1.72,0.77-1.72,1.719
		S213.271,57.505,214.218,57.505z"/>
	<circle fill="#59596B" cx="220.172" cy="55.787" r="1.718"/>
	<circle fill="#59596B" cx="226.126" cy="55.787" r="1.718"/>
	<circle fill="#59596B" cx="226.126" cy="61.742" r="1.72"/>
	<path fill="#59596B" d="M232.077,63.462c0.95,0,1.721-0.772,1.721-1.72c0-0.948-0.771-1.721-1.721-1.721
		c-0.942,0-1.715,0.772-1.715,1.721C230.362,62.69,231.135,63.462,232.077,63.462z"/>
	<circle fill="#59596B" cx="232.677" cy="49.834" r="1.719"/>
	<path fill="#59596B" d="M238.627,51.553c0.952,0,1.723-0.771,1.723-1.72c0-0.948-0.771-1.717-1.723-1.717
		c-0.944,0-1.716,0.77-1.716,1.717C236.911,50.781,237.683,51.553,238.627,51.553z"/>
	<path fill="#59596B" d="M238.627,57.505c0.952,0,1.723-0.769,1.723-1.718s-0.771-1.719-1.723-1.719
		c-0.944,0-1.716,0.77-1.716,1.719S237.683,57.505,238.627,57.505z"/>
	<path fill="#59596B" d="M238.627,63.462c0.952,0,1.723-0.772,1.723-1.72c0-0.948-0.771-1.721-1.723-1.721
		c-0.944,0-1.716,0.772-1.716,1.721C236.911,62.69,237.683,63.462,238.627,63.462z"/>
	<path fill="#59596B" d="M238.627,69.412c0.952,0,1.723-0.768,1.723-1.716s-0.771-1.717-1.723-1.717
		c-0.944,0-1.716,0.768-1.716,1.717S237.683,69.412,238.627,69.412z"/>
	<path fill="#59596B" d="M208.261,69.774c0.949,0,1.723-0.767,1.723-1.717c0-0.948-0.773-1.718-1.723-1.718
		c-0.944,0-1.716,0.77-1.716,1.718C206.545,69.007,207.316,69.774,208.261,69.774z"/>
	<circle fill="#59596B" cx="202.189" cy="49.834" r="1.719"/>
	<circle fill="#59596B" cx="202.189" cy="68.056" r="1.718"/>
	<path fill="#59596B" d="M196.111,57.628c0.95,0,1.72-0.774,1.72-1.719c0-0.95-0.77-1.717-1.72-1.717
		c-0.948,0-1.714,0.768-1.714,1.717C194.397,56.854,195.163,57.628,196.111,57.628z"/>
	<circle fill="#59596B" cx="196.111" cy="61.862" r="1.719"/>
	<path fill="#59596B" d="M196.111,45.719c0.95,0,1.72-0.771,1.72-1.719c0-0.949-0.77-1.716-1.72-1.716
		c-0.948,0-1.714,0.768-1.714,1.716C194.397,44.948,195.163,45.719,196.111,45.719z"/>
	<circle fill="#59596B" cx="196.111" cy="38.044" r="1.719"/>
	<path fill="#59596B" d="M190.16,45.719c0.946,0,1.714-0.771,1.714-1.719c0-0.949-0.768-1.716-1.714-1.716
		c-0.949,0-1.723,0.768-1.723,1.716C188.438,44.948,189.211,45.719,190.16,45.719z"/>
	<path fill="#59596B" d="M160.389,33.811c0.947,0,1.719-0.772,1.719-1.718c0-0.95-0.772-1.718-1.719-1.718
		c-0.95,0-1.719,0.769-1.719,1.718C158.67,33.039,159.439,33.811,160.389,33.811z"/>
	<path fill="#59596B" d="M166.345,33.811c0.945,0,1.715-0.772,1.715-1.718c0-0.95-0.77-1.718-1.715-1.718
		c-0.952,0-1.722,0.769-1.722,1.718C164.623,33.039,165.393,33.811,166.345,33.811z"/>
	<path fill="#59596B" d="M196.111,66.339c-0.948,0-1.714,0.77-1.714,1.718c0,0.95,0.766,1.717,1.714,1.717
		c0.95,0,1.72-0.767,1.72-1.717C197.831,67.108,197.062,66.339,196.111,66.339z"/>
	<path fill="#59596B" d="M190.035,57.628c0.949,0,1.722-0.774,1.722-1.719c0-0.95-0.773-1.717-1.722-1.717
		c-0.943,0-1.715,0.768-1.715,1.717C188.32,56.854,189.092,57.628,190.035,57.628z"/>
	<path fill="#59596B" d="M190.035,69.774c0.949,0,1.722-0.767,1.722-1.717c0-0.948-0.773-1.718-1.722-1.718
		c-0.943,0-1.715,0.77-1.715,1.718C188.32,69.007,189.092,69.774,190.035,69.774z"/>
	<path fill="#59596B" d="M226.485,42.04c-0.947,0-1.717,0.772-1.717,1.718c0,0.949,0.77,1.717,1.717,1.717
		c0.951,0,1.721-0.768,1.721-1.717C228.206,42.812,227.437,42.04,226.485,42.04z"/>
	<path fill="#59596B" d="M226.485,36.328c-0.947,0-1.717,0.771-1.717,1.718c0,0.95,0.77,1.717,1.717,1.717
		c0.951,0,1.721-0.768,1.721-1.717C228.206,37.099,227.437,36.328,226.485,36.328z"/>
	<path fill="#59596B" d="M222.132,25.535c0-0.95-0.771-1.718-1.723-1.718c-0.945,0-1.714,0.768-1.714,1.718
		c0,0.949,0.769,1.717,1.714,1.717C221.36,27.252,222.132,26.484,222.132,25.535z"/>
	<path fill="#59596B" d="M216.05,25.535c0-0.95-0.771-1.718-1.721-1.718c-0.946,0-1.717,0.768-1.717,1.718
		c0,0.949,0.771,1.717,1.717,1.717C215.279,27.252,216.05,26.484,216.05,25.535z"/>
	<path fill="#59596B" d="M222.132,19.579c0-0.95-0.771-1.717-1.723-1.717c-0.945,0-1.714,0.768-1.714,1.717
		c0,0.95,0.769,1.719,1.714,1.719C221.36,21.298,222.132,20.529,222.132,19.579z"/>
	<circle fill="#59596B" cx="226.365" cy="13.626" r="1.719"/>
	<path fill="#59596B" d="M222.132,1.718c0-0.95-0.771-1.718-1.723-1.718c-0.945,0-1.714,0.768-1.714,1.718
		c0,0.948,0.769,1.719,1.714,1.719C221.36,3.437,222.132,2.666,222.132,1.718z"/>
	<circle fill="#59596B" cx="214.458" cy="1.718" r="1.719"/>
	<circle fill="#59596B" cx="244.826" cy="1.718" r="1.717"/>
	<circle fill="#59596B" cx="250.781" cy="1.718" r="1.718"/>
	<circle fill="#59596B" cx="232.322" cy="13.626" r="1.718"/>
	<circle fill="#59596B" cx="232.322" cy="19.579" r="1.718"/>
	<circle fill="#59596B" cx="238.276" cy="19.579" r="1.717"/>
	<circle fill="#59596B" cx="238.276" cy="25.535" r="1.717"/>
	<circle fill="#59596B" cx="244.229" cy="25.535" r="1.717"/>
	<path fill="#59596B" d="M220.409,45.475c0.951,0,1.723-0.768,1.723-1.717c0-0.946-0.771-1.718-1.723-1.718
		c-0.945,0-1.714,0.772-1.714,1.718C218.695,44.707,219.464,45.475,220.409,45.475z"/>
	<path fill="#59596B" d="M214.339,29.891c-0.951,0-1.721,0.77-1.721,1.719c0,0.948,0.77,1.717,1.721,1.717
		c0.947,0,1.714-0.77,1.714-1.717C216.053,30.66,215.286,29.891,214.339,29.891z"/>
	<path fill="#59596B" d="M214.339,45.475c0.947,0,1.714-0.768,1.714-1.717c0-0.946-0.767-1.718-1.714-1.718
		c-0.951,0-1.721,0.772-1.721,1.718C212.618,44.707,213.388,45.475,214.339,45.475z"/>
	<path fill="#59596B" d="M214.339,51.553c0.947,0,1.714-0.771,1.714-1.72c0-0.948-0.767-1.717-1.714-1.717
		c-0.951,0-1.721,0.77-1.721,1.717c0,0.281,0.077,0.544,0.195,0.777c0.018-0.004,0.028-0.012,0.05-0.018
		c-0.015,0.019-0.015,0.042-0.024,0.062C213.127,51.187,213.687,51.553,214.339,51.553z"/>
	<path fill="#59596B" d="M378.359,142.673c0.946,0,1.712-0.77,1.712-1.717c0-0.951-0.766-1.72-1.712-1.72
		c-0.95,0-1.722,0.769-1.722,1.72C376.638,141.904,377.409,142.673,378.359,142.673z"/>
	<circle fill="#59596B" cx="372.282" cy="134.882" r="1.718"/>
	<circle fill="#59596B" cx="372.282" cy="140.955" r="1.718"/>
	<circle fill="#59596B" cx="372.282" cy="147.031" r="1.719"/>
	<path fill="#59596B" d="M366.207,136.6c0.946,0,1.72-0.771,1.72-1.718c0-0.951-0.773-1.719-1.72-1.719
		c-0.947,0-1.718,0.768-1.718,1.719C364.489,135.83,365.26,136.6,366.207,136.6z"/>
	<circle fill="#59596B" cx="366.207" cy="140.955" r="1.718"/>
	<path fill="#59596B" d="M360.134,130.523c0.947,0,1.717-0.769,1.717-1.715c0-0.951-0.77-1.719-1.717-1.719
		c-0.951,0-1.719,0.768-1.719,1.719C358.415,129.754,359.183,130.523,360.134,130.523z"/>
	<path fill="#59596B" d="M360.134,136.6c0.947,0,1.717-0.771,1.717-1.718c0-0.951-0.77-1.719-1.717-1.719
		c-0.951,0-1.719,0.768-1.719,1.719C358.415,135.83,359.183,136.6,360.134,136.6z"/>
	<circle fill="#59596B" cx="360.134" cy="140.955" r="1.718"/>
	<path fill="#59596B" d="M354.057,127.089c-0.948,0-1.716,0.768-1.716,1.719c0,0.946,0.768,1.715,1.716,1.715
		c0.947,0,1.722-0.769,1.722-1.715C355.778,127.857,355.004,127.089,354.057,127.089z"/>
	<path fill="#59596B" d="M354.057,136.6c0.947,0,1.722-0.771,1.722-1.718c0-0.951-0.774-1.719-1.722-1.719
		c-0.948,0-1.716,0.768-1.716,1.719C352.341,135.83,353.108,136.6,354.057,136.6z"/>
	<circle fill="#59596B" cx="354.057" cy="140.955" r="1.718"/>
	<path fill="#59596B" d="M347.983,130.523c0.947,0,1.715-0.769,1.715-1.715c0-0.951-0.768-1.719-1.715-1.719
		s-1.721,0.768-1.721,1.719C346.263,129.754,347.036,130.523,347.983,130.523z"/>
	<circle fill="#59596B" cx="347.983" cy="134.882" r="1.718"/>
	<path fill="#59596B" d="M347.983,139.237c-0.947,0-1.721,0.769-1.721,1.72c0,0.947,0.773,1.717,1.721,1.717s1.715-0.77,1.715-1.717
		C349.698,140.005,348.931,139.237,347.983,139.237z"/>
	<path fill="#59596B" d="M341.906,136.6c0.948,0,1.722-0.771,1.722-1.718c0-0.951-0.773-1.719-1.722-1.719
		c-0.944,0-1.714,0.768-1.714,1.719C340.192,135.83,340.962,136.6,341.906,136.6z"/>
	<path fill="#59596B" d="M341.906,139.237c-0.944,0-1.714,0.769-1.714,1.72c0,0.947,0.77,1.717,1.714,1.717
		c0.948,0,1.722-0.77,1.722-1.717C343.628,140.005,342.854,139.237,341.906,139.237z"/>
	<path fill="#59596B" d="M335.832,133.164c-0.947,0-1.719,0.768-1.719,1.719c0,0.947,0.771,1.718,1.719,1.718
		c0.952,0,1.718-0.771,1.718-1.718C337.55,133.931,336.784,133.164,335.832,133.164z"/>
	<circle fill="#59596B" cx="366.207" cy="147.031" r="1.719"/>
	<path fill="#59596B" d="M335.832,102.787c-0.947,0-1.719,0.77-1.719,1.719c0,0.951,0.771,1.72,1.719,1.72
		c0.952,0,1.718-0.769,1.718-1.72C337.55,103.556,336.784,102.787,335.832,102.787z"/>
	<path fill="#59596B" d="M335.832,90.879c-0.947,0-1.719,0.769-1.719,1.719c0,0.948,0.771,1.72,1.719,1.72
		c0.952,0,1.718-0.771,1.718-1.72C337.55,91.648,336.784,90.879,335.832,90.879z"/>
	<path fill="#59596B" d="M335.832,84.927c-0.947,0-1.719,0.77-1.719,1.72c0,0.945,0.771,1.716,1.719,1.716
		c0.952,0,1.718-0.771,1.718-1.716C337.55,85.697,336.784,84.927,335.832,84.927z"/>
	<path fill="#59596B" d="M353.695,109.337c-0.945,0-1.718,0.771-1.718,1.719c0,0.949,0.772,1.719,1.718,1.719
		c0.947,0,1.72-0.77,1.72-1.719C355.415,110.108,354.643,109.337,353.695,109.337z"/>
	<path fill="#59596B" d="M353.695,103.384c-0.945,0-1.718,0.768-1.718,1.719s0.772,1.718,1.718,1.718c0.947,0,1.72-0.767,1.72-1.718
		S354.643,103.384,353.695,103.384z"/>
	<circle fill="#59596B" cx="329.282" cy="105.103" r="1.718"/>
	<circle fill="#59596B" cx="329.282" cy="111.056" r="1.719"/>
	<circle fill="#59596B" cx="335.235" cy="111.056" r="1.719"/>
	<path fill="#59596B" d="M335.235,115.292c-0.945,0-1.715,0.768-1.715,1.717c0,0.952,0.77,1.719,1.715,1.719
		c0.949,0,1.721-0.767,1.721-1.719C336.956,116.06,336.185,115.292,335.235,115.292z"/>
	<path fill="#59596B" d="M341.194,115.292c-0.947,0-1.722,0.768-1.722,1.717c0,0.952,0.774,1.719,1.722,1.719
		c0.943,0,1.717-0.767,1.717-1.719C342.911,116.06,342.138,115.292,341.194,115.292z"/>
	<path fill="#59596B" d="M341.194,121.248c-0.947,0-1.722,0.77-1.722,1.718c0,0.947,0.774,1.719,1.722,1.719
		c0.943,0,1.717-0.771,1.717-1.719C342.911,122.017,342.138,121.248,341.194,121.248z"/>
	<path fill="#59596B" d="M359.652,115.292c-0.95,0-1.721,0.768-1.721,1.717c0,0.952,0.771,1.719,1.721,1.719
		c0.948,0,1.714-0.767,1.714-1.719C361.366,116.06,360.601,115.292,359.652,115.292z"/>
	<path fill="#59596B" d="M383.468,127.203c-0.949,0-1.715,0.767-1.715,1.715c0,0.95,0.766,1.719,1.715,1.719
		s1.722-0.769,1.722-1.719C385.189,127.969,384.417,127.203,383.468,127.203z"/>
	<path fill="#59596B" d="M389.425,145.065c-0.949,0-1.72,0.769-1.72,1.718c0,0.952,0.771,1.72,1.72,1.72
		c0.944,0,1.717-0.768,1.717-1.72C391.142,145.833,390.369,145.065,389.425,145.065z"/>
	<circle fill="#59596B" cx="383.468" cy="152.738" r="1.719"/>
	<path fill="#59596B" d="M250.784,136.6c0.949,0,1.721-0.771,1.721-1.718c0-0.951-0.771-1.719-1.721-1.719
		c-0.946,0-1.715,0.768-1.715,1.719c0,0.014,0.003,0.025,0.003,0.04c0.024,0.058,0.048,0.122,0.065,0.193
		c-0.006,0.057-0.01,0.111-0.014,0.169C249.3,136.039,249.976,136.6,250.784,136.6z"/>
	<path fill="#59596B" d="M256.743,130.641c0.943,0,1.715-0.769,1.715-1.718c0-0.945-0.771-1.715-1.715-1.715
		c-0.951,0-1.721,0.77-1.721,1.715c0,0.018,0.006,0.028,0.006,0.043c0.022,0.059,0.046,0.121,0.066,0.191
		c-0.007,0.059-0.014,0.113-0.021,0.172C255.259,130.083,255.929,130.641,256.743,130.641z"/>
	<path fill="#59596B" d="M165.738,15.102c0.951,0,1.719-0.769,1.719-1.719c0-0.946-0.768-1.718-1.719-1.718
		c-0.95,0-1.717,0.772-1.717,1.718C164.021,14.333,164.788,15.102,165.738,15.102z"/>
	<path fill="#59596B" d="M159.662,9.027c0.949,0,1.722-0.769,1.722-1.719c0-0.949-0.773-1.718-1.722-1.718
		c-0.945,0-1.716,0.769-1.716,1.718C157.946,8.258,158.717,9.027,159.662,9.027z"/>
	<path fill="#59596B" d="M159.662,15.102c0.949,0,1.722-0.769,1.722-1.719c0-0.946-0.773-1.718-1.722-1.718
		c-0.945,0-1.716,0.772-1.716,1.718C157.946,14.333,158.717,15.102,159.662,15.102z"/>
	<path fill="#59596B" d="M159.662,21.179c0.949,0,1.722-0.771,1.722-1.72c0-0.948-0.773-1.716-1.722-1.716
		c-0.945,0-1.716,0.768-1.716,1.716C157.946,20.407,158.717,21.179,159.662,21.179z"/>
	<path fill="#59596B" d="M153.592,9.027c0.948,0,1.715-0.769,1.715-1.719c0-0.949-0.767-1.718-1.715-1.718
		c-0.952,0-1.723,0.769-1.723,1.718C151.869,8.258,152.64,9.027,153.592,9.027z"/>
	<path fill="#59596B" d="M153.592,11.665c-0.952,0-1.723,0.772-1.723,1.718c0,0.95,0.771,1.719,1.723,1.719
		c0.948,0,1.715-0.769,1.715-1.719C155.307,12.437,154.54,11.665,153.592,11.665z"/>
	<path fill="#59596B" d="M153.592,17.743c-0.952,0-1.723,0.768-1.723,1.716c0,0.949,0.771,1.72,1.723,1.72
		c0.948,0,1.715-0.771,1.715-1.72C155.307,18.511,154.54,17.743,153.592,17.743z"/>
	<circle fill="#59596B" cx="147.514" cy="7.309" r="1.718"/>
	<path fill="#59596B" d="M147.514,15.102c0.947,0,1.719-0.769,1.719-1.719c0-0.946-0.772-1.718-1.719-1.718
		c-0.947,0-1.716,0.772-1.716,1.718C145.798,14.333,146.567,15.102,147.514,15.102z"/>
	<path fill="#59596B" d="M147.514,17.743c-0.947,0-1.716,0.768-1.716,1.716c0,0.949,0.769,1.72,1.716,1.72
		c0.947,0,1.719-0.771,1.719-1.72C149.233,18.511,148.461,17.743,147.514,17.743z"/>
	<circle fill="#59596B" cx="147.514" cy="25.535" r="1.718"/>
	<circle fill="#59596B" cx="147.514" cy="116.655" r="1.718"/>
	<circle fill="#59596B" cx="147.514" cy="122.731" r="1.716"/>
	<path fill="#59596B" d="M141.438,9.027c0.949,0,1.719-0.769,1.719-1.719c0-0.949-0.77-1.718-1.719-1.718
		c-0.944,0-1.716,0.769-1.716,1.718C139.722,8.258,140.493,9.027,141.438,9.027z"/>
	<path fill="#59596B" d="M141.438,15.102c0.949,0,1.719-0.769,1.719-1.719c0-0.946-0.77-1.718-1.719-1.718
		c-0.944,0-1.716,0.772-1.716,1.718C139.722,14.333,140.493,15.102,141.438,15.102z"/>
	<path fill="#59596B" d="M141.438,17.743c-0.944,0-1.716,0.768-1.716,1.716c0,0.949,0.771,1.72,1.716,1.72
		c0.949,0,1.719-0.771,1.719-1.72C143.156,18.511,142.387,17.743,141.438,17.743z"/>
	<path fill="#59596B" d="M141.438,27.252c0.949,0,1.719-0.769,1.719-1.717c0-0.95-0.77-1.718-1.719-1.718
		c-0.944,0-1.716,0.768-1.716,1.718C139.722,26.484,140.493,27.252,141.438,27.252z"/>
	<path fill="#59596B" d="M141.438,112.298c0.949,0,1.719-0.768,1.719-1.717c0-0.945-0.77-1.72-1.719-1.72
		c-0.944,0-1.716,0.774-1.716,1.72C139.722,111.531,140.493,112.298,141.438,112.298z"/>
	<path fill="#59596B" d="M141.438,118.373c0.949,0,1.719-0.768,1.719-1.715c0-0.949-0.77-1.721-1.719-1.721
		c-0.944,0-1.716,0.771-1.716,1.721C139.722,117.605,140.493,118.373,141.438,118.373z"/>
	<path fill="#59596B" d="M141.438,124.447c0.949,0,1.719-0.769,1.719-1.716c0-0.948-0.77-1.716-1.719-1.716
		c-0.944,0-1.716,0.768-1.716,1.716C139.722,123.678,140.493,124.447,141.438,124.447z"/>
	<path fill="#59596B" d="M141.438,130.523c0.949,0,1.719-0.769,1.719-1.715c0-0.951-0.77-1.719-1.719-1.719
		c-0.944,0-1.716,0.768-1.716,1.719C139.722,129.754,140.493,130.523,141.438,130.523z"/>
	<path fill="#59596B" d="M133.646,7.309c0,0.95,0.77,1.719,1.719,1.719s1.716-0.769,1.716-1.719c0-0.949-0.767-1.718-1.716-1.718
		c-0.124,0-0.244,0.015-0.363,0.042c0,0.038-0.012,0.079-0.062,0.133c-0.031-0.03-0.074-0.054-0.11-0.083
		C134.148,5.908,133.646,6.55,133.646,7.309z"/>
	<path fill="#59596B" d="M135.365,15.102c0.949,0,1.716-0.769,1.716-1.719c0-0.946-0.767-1.718-1.716-1.718
		s-1.719,0.772-1.719,1.718C133.646,14.333,134.416,15.102,135.365,15.102z"/>
	<circle fill="#59596B" cx="135.365" cy="19.461" r="1.718"/>
	<circle fill="#59596B" cx="135.365" cy="25.535" r="1.718"/>
	<path fill="#59596B" d="M135.365,112.298c0.949,0,1.716-0.768,1.716-1.717c0-0.945-0.767-1.72-1.716-1.72s-1.719,0.774-1.719,1.72
		C133.646,111.531,134.416,112.298,135.365,112.298z"/>
	<path fill="#59596B" d="M135.365,118.373c0.949,0,1.716-0.768,1.716-1.715c0-0.949-0.767-1.721-1.716-1.721
		s-1.719,0.771-1.719,1.721C133.646,117.605,134.416,118.373,135.365,118.373z"/>
	<circle fill="#59596B" cx="135.365" cy="122.731" r="1.716"/>
	<path fill="#59596B" d="M135.365,127.089c-0.949,0-1.719,0.768-1.719,1.719c0,0.946,0.77,1.715,1.719,1.715
		s1.716-0.769,1.716-1.715C137.081,127.857,136.314,127.089,135.365,127.089z"/>
	<circle fill="#59596B" cx="135.365" cy="134.882" r="1.718"/>
	<circle fill="#59596B" cx="135.365" cy="140.955" r="1.718"/>
	<path fill="#59596B" d="M129.29,9.027c0.947,0,1.718-0.769,1.718-1.719c0-0.949-0.771-1.718-1.718-1.718
		c-0.945,0-1.716,0.769-1.716,1.718C127.573,8.258,128.344,9.027,129.29,9.027z"/>
	<path fill="#59596B" d="M123.333,9.027c0.952,0,1.721-0.769,1.721-1.719c0-0.949-0.769-1.718-1.721-1.718
		c-0.946,0-1.714,0.769-1.714,1.718C121.619,8.258,122.387,9.027,123.333,9.027z"/>
	<path fill="#59596B" d="M123.333,3.074c0.952,0,1.721-0.771,1.721-1.717c0-0.95-0.769-1.719-1.721-1.719
		c-0.946,0-1.714,0.769-1.714,1.719C121.619,2.303,122.387,3.074,123.333,3.074z"/>
	<path fill="#59596B" d="M129.29,3.074c0.947,0,1.718-0.771,1.718-1.717c0-0.95-0.771-1.719-1.718-1.719
		c-0.945,0-1.716,0.769-1.716,1.719C127.573,2.303,128.344,3.074,129.29,3.074z"/>
	<circle fill="#59596B" cx="117.383" cy="7.309" r="1.718"/>
	<path fill="#59596B" d="M111.43,9.027c0.945,0,1.715-0.769,1.715-1.719c0-0.949-0.771-1.718-1.715-1.718
		c-0.951,0-1.723,0.769-1.723,1.718C109.707,8.258,110.479,9.027,111.43,9.027z"/>
	<path fill="#59596B" d="M117.383,3.074c0.95,0,1.718-0.771,1.718-1.717c0-0.95-0.769-1.719-1.718-1.719s-1.722,0.769-1.722,1.719
		C115.661,2.303,116.433,3.074,117.383,3.074z"/>
	<path fill="#59596B" d="M111.43,3.074c0.945,0,1.715-0.771,1.715-1.717c0-0.95-0.771-1.719-1.715-1.719
		c-0.951,0-1.723,0.769-1.723,1.719C109.707,2.303,110.479,3.074,111.43,3.074z"/>
	<circle fill="#59596B" cx="104.879" cy="13.264" r="1.718"/>
	<path fill="#59596B" d="M74.513,14.982c0.945,0,1.717-0.771,1.717-1.718c0-0.949-0.772-1.718-1.717-1.718
		c-0.947,0-1.719,0.769-1.719,1.718C72.794,14.21,73.565,14.982,74.513,14.982z"/>
	<path fill="#59596B" d="M79.868,14.982c0.948,0,1.722-0.771,1.722-1.718c0-0.949-0.773-1.718-1.722-1.718
		c-0.943,0-1.715,0.769-1.715,1.718C78.153,14.21,78.925,14.982,79.868,14.982z"/>
	<path fill="#59596B" d="M56.39,14.982c0.95,0,1.721-0.771,1.721-1.718c0-0.949-0.771-1.718-1.721-1.718
		c-0.946,0-1.715,0.769-1.715,1.718C54.675,14.21,55.444,14.982,56.39,14.982z"/>
	<path fill="#59596B" d="M50.316,14.982c0.946,0,1.718-0.771,1.718-1.718c0-0.949-0.772-1.718-1.718-1.718
		c-0.951,0-1.719,0.769-1.719,1.718C48.598,14.21,49.366,14.982,50.316,14.982z"/>
	<path fill="#59596B" d="M44.74,20.934c0.949,0,1.723-0.768,1.723-1.716s-0.774-1.719-1.723-1.719c-0.95,0-1.718,0.771-1.718,1.719
		S43.79,20.934,44.74,20.934z"/>
	<circle fill="#59596B" cx="50.099" cy="19.217" r="1.718"/>
	<path fill="#59596B" d="M13.777,20.934c0.949,0,1.722-0.768,1.722-1.716s-0.773-1.719-1.722-1.719
		c-0.945,0-1.713,0.771-1.713,1.719S12.832,20.934,13.777,20.934z"/>
	<path fill="#59596B" d="M7.824,20.934c0.95,0,1.72-0.768,1.72-1.716s-0.77-1.719-1.72-1.719c-0.946,0-1.717,0.771-1.717,1.719
		S6.878,20.934,7.824,20.934z"/>
	<path fill="#59596B" d="M13.871,33.327c0.947,0,1.718-0.77,1.718-1.719s-0.771-1.718-1.718-1.718c-0.945,0-1.718,0.769-1.718,1.718
		S12.926,33.327,13.871,33.327z"/>
	<circle fill="#59596B" cx="26.282" cy="31.125" r="1.719"/>
	<path fill="#59596B" d="M129.29,11.665c-0.945,0-1.716,0.772-1.716,1.718c0,0.95,0.771,1.719,1.716,1.719
		c0.947,0,1.718-0.769,1.718-1.719C131.007,12.437,130.237,11.665,129.29,11.665z"/>
	<path fill="#59596B" d="M129.29,106.225c0.947,0,1.718-0.769,1.718-1.72c0-0.949-0.771-1.719-1.718-1.719
		c-0.945,0-1.716,0.77-1.716,1.719C127.573,105.457,128.344,106.225,129.29,106.225z"/>
	<path fill="#59596B" d="M129.29,112.298c0.947,0,1.718-0.768,1.718-1.717c0-0.945-0.771-1.72-1.718-1.72
		c-0.945,0-1.716,0.774-1.716,1.72C127.573,111.531,128.344,112.298,129.29,112.298z"/>
	<path fill="#59596B" d="M129.29,118.373c0.947,0,1.718-0.768,1.718-1.715c0-0.949-0.771-1.721-1.718-1.721
		c-0.945,0-1.716,0.771-1.716,1.721C127.573,117.605,128.344,118.373,129.29,118.373z"/>
	<path fill="#59596B" d="M129.29,124.447c0.947,0,1.718-0.769,1.718-1.716c0-0.948-0.771-1.716-1.718-1.716
		c-0.945,0-1.716,0.768-1.716,1.716C127.573,123.678,128.344,124.447,129.29,124.447z"/>
	<path fill="#59596B" d="M129.29,130.523c0.947,0,1.718-0.769,1.718-1.715c0-0.951-0.771-1.719-1.718-1.719
		c-0.945,0-1.716,0.768-1.716,1.719C127.573,129.754,128.344,130.523,129.29,130.523z"/>
	<circle fill="#59596B" cx="129.29" cy="134.882" r="1.718"/>
	<path fill="#59596B" d="M129.29,142.673c0.947,0,1.718-0.77,1.718-1.717c0-0.951-0.771-1.72-1.718-1.72
		c-0.945,0-1.716,0.769-1.716,1.72C127.573,141.904,128.344,142.673,129.29,142.673z"/>
	<circle fill="#59596B" cx="129.29" cy="147.031" r="1.719"/>
	<circle fill="#59596B" cx="123.216" cy="98.431" r="1.719"/>
	<circle fill="#59596B" cx="123.216" cy="104.506" r="1.719"/>
	<path fill="#59596B" d="M123.216,112.298c0.949,0,1.718-0.768,1.718-1.717c0-0.945-0.77-1.72-1.718-1.72
		c-0.949,0-1.72,0.774-1.72,1.72C121.496,111.531,122.267,112.298,123.216,112.298z"/>
	<path fill="#59596B" d="M123.216,118.373c0.949,0,1.718-0.768,1.718-1.715c0-0.949-0.77-1.721-1.718-1.721
		c-0.949,0-1.72,0.771-1.72,1.721C121.496,117.605,122.267,118.373,123.216,118.373z"/>
	<circle fill="#59596B" cx="123.216" cy="122.731" r="1.716"/>
	<path fill="#59596B" d="M123.216,127.089c-0.949,0-1.72,0.768-1.72,1.719c0,0.946,0.771,1.715,1.72,1.715
		c0.949,0,1.718-0.769,1.718-1.715C124.934,127.857,124.165,127.089,123.216,127.089z"/>
	<circle fill="#59596B" cx="123.216" cy="134.882" r="1.718"/>
	<circle fill="#59596B" cx="123.216" cy="140.955" r="1.718"/>
	<circle fill="#59596B" cx="123.216" cy="147.031" r="1.719"/>
	<circle fill="#59596B" cx="123.216" cy="153.106" r="1.718"/>
	<path fill="#59596B" d="M117.138,39.402c0.952,0,1.722-0.77,1.722-1.719c0-0.95-0.77-1.719-1.722-1.719
		c-0.945,0-1.714,0.77-1.714,1.719C115.423,38.632,116.193,39.402,117.138,39.402z"/>
	<path fill="#59596B" d="M117.138,100.15c0.952,0,1.722-0.768,1.722-1.719c0-0.949-0.77-1.719-1.722-1.719
		c-0.945,0-1.714,0.77-1.714,1.719C115.423,99.382,116.193,100.15,117.138,100.15z"/>
	<path fill="#59596B" d="M117.138,106.225c0.952,0,1.722-0.769,1.722-1.72c0-0.949-0.77-1.719-1.722-1.719
		c-0.945,0-1.714,0.77-1.714,1.719C115.423,105.457,116.193,106.225,117.138,106.225z"/>
	<path fill="#59596B" d="M117.138,112.298c0.952,0,1.722-0.768,1.722-1.717c0-0.945-0.77-1.72-1.722-1.72
		c-0.945,0-1.714,0.774-1.714,1.72C115.423,111.531,116.193,112.298,117.138,112.298z"/>
	<path fill="#59596B" d="M117.138,114.937c-0.945,0-1.714,0.771-1.714,1.721c0,0.947,0.77,1.715,1.714,1.715
		c0.952,0,1.722-0.768,1.722-1.715C118.859,115.708,118.09,114.937,117.138,114.937z"/>
	<path fill="#59596B" d="M117.138,121.015c-0.945,0-1.714,0.768-1.714,1.716c0,0.947,0.77,1.716,1.714,1.716
		c0.952,0,1.722-0.769,1.722-1.716C118.859,121.783,118.09,121.015,117.138,121.015z"/>
	<path fill="#59596B" d="M117.138,127.089c-0.945,0-1.714,0.768-1.714,1.719c0,0.946,0.77,1.715,1.714,1.715
		c0.952,0,1.722-0.769,1.722-1.715C118.859,127.857,118.09,127.089,117.138,127.089z"/>
	<path fill="#59596B" d="M117.138,133.164c-0.945,0-1.714,0.768-1.714,1.719c0,0.947,0.77,1.718,1.714,1.718
		c0.952,0,1.722-0.771,1.722-1.718C118.859,133.931,118.09,133.164,117.138,133.164z"/>
	<path fill="#59596B" d="M117.138,139.237c-0.945,0-1.714,0.769-1.714,1.72c0,0.947,0.77,1.717,1.714,1.717
		c0.952,0,1.722-0.77,1.722-1.717C118.859,140.005,118.09,139.237,117.138,139.237z"/>
	<path fill="#59596B" d="M117.138,145.312c-0.945,0-1.714,0.77-1.714,1.719s0.77,1.719,1.714,1.719c0.952,0,1.722-0.77,1.722-1.719
		S118.09,145.312,117.138,145.312z"/>
	<path fill="#59596B" d="M117.138,154.824c0.952,0,1.722-0.771,1.722-1.719c0-0.949-0.77-1.717-1.722-1.717
		c-0.945,0-1.714,0.768-1.714,1.717C115.423,154.053,116.193,154.824,117.138,154.824z"/>
	<path fill="#59596B" d="M117.138,160.898c0.952,0,1.722-0.767,1.722-1.719c0-0.951-0.77-1.717-1.722-1.717
		c-0.945,0-1.714,0.766-1.714,1.717C115.423,160.131,116.193,160.898,117.138,160.898z"/>
	<circle fill="#59596B" cx="111.067" cy="37.683" r="1.719"/>
	<path fill="#59596B" d="M111.067,45.475c0.948,0,1.716-0.768,1.716-1.717c0-0.946-0.768-1.718-1.716-1.718
		c-0.951,0-1.721,0.772-1.721,1.718C109.346,44.707,110.116,45.475,111.067,45.475z"/>
	<circle fill="#59596B" cx="117.139" cy="44.002" r="1.718"/>
	<path fill="#59596B" d="M123.215,45.476c0.946,0,1.715-0.767,1.715-1.718c0-0.946-0.769-1.718-1.715-1.718
		c-0.952,0-1.721,0.772-1.721,1.718C121.494,44.708,122.263,45.476,123.215,45.476z"/>
	<circle fill="#59596B" cx="111.067" cy="49.834" r="1.719"/>
	<circle fill="#59596B" cx="111.067" cy="98.431" r="1.719"/>
	<path fill="#59596B" d="M111.067,106.225c0.948,0,1.716-0.769,1.716-1.72c0-0.949-0.768-1.719-1.716-1.719
		c-0.951,0-1.721,0.77-1.721,1.719C109.346,105.457,110.116,106.225,111.067,106.225z"/>
	<path fill="#59596B" d="M111.067,108.862c-0.951,0-1.721,0.774-1.721,1.72c0,0.949,0.77,1.717,1.721,1.717
		c0.948,0,1.716-0.768,1.716-1.717C112.783,109.636,112.015,108.862,111.067,108.862z"/>
	<path fill="#59596B" d="M111.067,114.937c-0.951,0-1.721,0.771-1.721,1.721c0,0.947,0.77,1.715,1.721,1.715
		c0.948,0,1.716-0.768,1.716-1.715C112.783,115.708,112.015,114.937,111.067,114.937z"/>
	<circle fill="#59596B" cx="111.067" cy="122.731" r="1.716"/>
	<path fill="#59596B" d="M111.067,154.824c0.948,0,1.716-0.771,1.716-1.719c0-0.949-0.768-1.717-1.716-1.717
		c-0.951,0-1.721,0.768-1.721,1.717C109.346,154.053,110.116,154.824,111.067,154.824z"/>
	<circle fill="#59596B" cx="111.067" cy="165.255" r="1.718"/>
	<path fill="#59596B" d="M111.067,173.046c0.948,0,1.716-0.768,1.716-1.718c0-0.947-0.768-1.718-1.716-1.718
		c-0.951,0-1.721,0.771-1.721,1.718C109.346,172.279,110.116,173.046,111.067,173.046z"/>
	<path fill="#59596B" d="M117.021,173.046c0.95,0,1.716-0.768,1.716-1.718c0-0.947-0.766-1.718-1.716-1.718
		c-0.951,0-1.72,0.771-1.72,1.718C115.301,172.279,116.07,173.046,117.021,173.046z"/>
	<path fill="#59596B" d="M104.99,9.027c0.949,0,1.723-0.769,1.723-1.719c0-0.949-0.773-1.718-1.723-1.718
		c-0.95,0-1.716,0.769-1.716,1.718C103.274,8.258,104.04,9.027,104.99,9.027z"/>
	<path fill="#59596B" d="M104.99,21.179c0.949,0,1.723-0.771,1.723-1.72c0-0.948-0.773-1.716-1.723-1.716
		c-0.95,0-1.716,0.768-1.716,1.716C103.274,20.407,104.04,21.179,104.99,21.179z"/>
	<circle fill="#59596B" cx="104.99" cy="98.431" r="1.719"/>
	<path fill="#59596B" d="M104.99,106.225c0.949,0,1.723-0.769,1.723-1.72c0-0.949-0.773-1.719-1.723-1.719
		c-0.95,0-1.716,0.77-1.716,1.719C103.274,105.457,104.04,106.225,104.99,106.225z"/>
	<path fill="#59596B" d="M104.99,108.862c-0.95,0-1.716,0.774-1.716,1.72c0,0.949,0.766,1.717,1.716,1.717
		c0.949,0,1.723-0.768,1.723-1.717C106.713,109.636,105.939,108.862,104.99,108.862z"/>
	<circle fill="#59596B" cx="104.99" cy="116.655" r="1.718"/>
	<path fill="#59596B" d="M98.917,17.743c-0.948,0-1.719,0.768-1.719,1.716c0,0.949,0.771,1.72,1.719,1.72
		c0.946,0,1.718-0.771,1.718-1.72C100.635,18.511,99.863,17.743,98.917,17.743z"/>
	<circle fill="#59596B" cx="98.917" cy="61.984" r="1.718"/>
	<circle fill="#59596B" cx="92.842" cy="61.984" r="1.718"/>
	<path fill="#59596B" d="M86.765,23.817c-0.946,0-1.713,0.768-1.713,1.718c0,0.949,0.768,1.717,1.713,1.717
		c0.948,0,1.722-0.769,1.722-1.717C88.486,24.585,87.712,23.817,86.765,23.817z"/>
	<path fill="#59596B" d="M92.797,23.817c-0.945,0-1.718,0.768-1.718,1.718c0,0.949,0.773,1.717,1.718,1.717
		c0.951,0,1.717-0.769,1.717-1.717C94.514,24.585,93.748,23.817,92.797,23.817z"/>
	<circle fill="#59596B" cx="104.99" cy="25.535" r="1.718"/>
	<path fill="#59596B" d="M86.765,60.266c-0.946,0-1.713,0.768-1.713,1.717c0,0.951,0.768,1.72,1.713,1.72
		c0.948,0,1.722-0.769,1.722-1.72C88.486,61.033,87.712,60.266,86.765,60.266z"/>
	<path fill="#59596B" d="M86.765,66.339c-0.946,0-1.713,0.77-1.713,1.718c0,0.95,0.768,1.717,1.713,1.717
		c0.948,0,1.722-0.767,1.722-1.717C88.486,67.108,87.712,66.339,86.765,66.339z"/>
	<path fill="#59596B" d="M86.765,88.002c0.948,0,1.722-0.773,1.722-1.717c0-0.951-0.774-1.72-1.722-1.72
		c-0.946,0-1.713,0.769-1.713,1.72C85.051,87.229,85.819,88.002,86.765,88.002z"/>
	<path fill="#59596B" d="M80.694,29.891c-0.951,0-1.722,0.77-1.722,1.719c0,0.948,0.771,1.717,1.722,1.717
		c0.946,0,1.714-0.77,1.714-1.717C82.408,30.66,81.64,29.891,80.694,29.891z"/>
	<path fill="#59596B" d="M80.694,39.402c0.946,0,1.714-0.77,1.714-1.719c0-0.95-0.768-1.719-1.714-1.719
		c-0.951,0-1.722,0.77-1.722,1.719C78.972,38.632,79.743,39.402,80.694,39.402z"/>
	<path fill="#59596B" d="M80.694,45.475c0.946,0,1.714-0.768,1.714-1.717c0-0.946-0.768-1.718-1.714-1.718
		c-0.951,0-1.722,0.772-1.722,1.718C78.972,44.707,79.743,45.475,80.694,45.475z"/>
	<path fill="#59596B" d="M80.694,51.553c0.946,0,1.714-0.771,1.714-1.72c0-0.948-0.768-1.717-1.714-1.717
		c-0.951,0-1.722,0.77-1.722,1.717C78.972,50.781,79.743,51.553,80.694,51.553z"/>
	<path fill="#59596B" d="M80.694,54.192c-0.951,0-1.722,0.768-1.722,1.717c0,0.945,0.771,1.719,1.722,1.719
		c0.946,0,1.714-0.774,1.714-1.719C82.408,54.959,81.64,54.192,80.694,54.192z"/>
	<path fill="#59596B" d="M86.765,45.475c0.948,0,1.722-0.768,1.722-1.717c0-0.946-0.774-1.718-1.722-1.718
		c-0.946,0-1.713,0.772-1.713,1.718C85.051,44.707,85.819,45.475,86.765,45.475z"/>
	<path fill="#59596B" d="M86.765,51.553c0.948,0,1.722-0.771,1.722-1.72c0-0.948-0.774-1.717-1.722-1.717
		c-0.946,0-1.713,0.77-1.713,1.717C85.051,50.781,85.819,51.553,86.765,51.553z"/>
	<path fill="#59596B" d="M86.765,54.192c-0.946,0-1.713,0.768-1.713,1.717c0,0.945,0.768,1.719,1.713,1.719
		c0.948,0,1.722-0.774,1.722-1.719C88.486,54.959,87.712,54.192,86.765,54.192z"/>
	<path fill="#59596B" d="M92.996,39.402c0.948,0,1.721-0.77,1.721-1.719c0-0.95-0.773-1.719-1.721-1.719
		c-0.947,0-1.716,0.77-1.716,1.719C91.28,38.632,92.049,39.402,92.996,39.402z"/>
	<path fill="#59596B" d="M92.996,45.475c0.948,0,1.721-0.768,1.721-1.717c0-0.946-0.773-1.718-1.721-1.718
		c-0.947,0-1.716,0.772-1.716,1.718C91.28,44.707,92.049,45.475,92.996,45.475z"/>
	<path fill="#59596B" d="M92.996,51.553c0.948,0,1.721-0.771,1.721-1.72c0-0.948-0.773-1.717-1.721-1.717
		c-0.947,0-1.716,0.77-1.716,1.717C91.28,50.781,92.049,51.553,92.996,51.553z"/>
	<path fill="#59596B" d="M92.996,54.192c-0.947,0-1.716,0.768-1.716,1.717c0,0.945,0.77,1.719,1.716,1.719
		c0.948,0,1.721-0.774,1.721-1.719C94.717,54.959,93.944,54.192,92.996,54.192z"/>
	<path fill="#59596B" d="M98.917,29.891c-0.948,0-1.719,0.77-1.719,1.719c0,0.948,0.771,1.717,1.719,1.717
		c0.946,0,1.718-0.77,1.718-1.717C100.635,30.66,99.863,29.891,98.917,29.891z"/>
	<circle fill="#59596B" cx="98.917" cy="37.683" r="1.719"/>
	<circle fill="#59596B" cx="98.917" cy="43.757" r="1.718"/>
	<circle fill="#59596B" cx="98.917" cy="49.834" r="1.719"/>
	<path fill="#59596B" d="M98.917,54.192c-0.948,0-1.719,0.768-1.719,1.717c0,0.945,0.771,1.719,1.719,1.719
		c0.946,0,1.718-0.774,1.718-1.719C100.635,54.959,99.863,54.192,98.917,54.192z"/>
	<path fill="#59596B" d="M104.902,29.891c-0.945,0-1.719,0.77-1.719,1.719c0,0.948,0.773,1.717,1.719,1.717
		c0.95,0,1.72-0.77,1.72-1.717C106.623,30.66,105.852,29.891,104.902,29.891z"/>
	<path fill="#59596B" d="M104.902,39.402c0.95,0,1.72-0.77,1.72-1.719c0-0.95-0.771-1.719-1.72-1.719
		c-0.945,0-1.719,0.77-1.719,1.719C103.184,38.632,103.957,39.402,104.902,39.402z"/>
	<path fill="#59596B" d="M104.902,45.475c0.95,0,1.72-0.768,1.72-1.717c0-0.946-0.771-1.718-1.72-1.718
		c-0.945,0-1.719,0.772-1.719,1.718C103.184,44.707,103.957,45.475,104.902,45.475z"/>
	<path fill="#59596B" d="M104.902,51.553c0.95,0,1.72-0.771,1.72-1.72c0-0.948-0.771-1.717-1.72-1.717
		c-0.945,0-1.719,0.77-1.719,1.717C103.184,50.781,103.957,51.553,104.902,51.553z"/>
	<path fill="#59596B" d="M104.902,54.192c-0.945,0-1.719,0.768-1.719,1.717c0,0.945,0.773,1.719,1.719,1.719
		c0.95,0,1.72-0.774,1.72-1.719C106.623,54.959,105.852,54.192,104.902,54.192z"/>
	<path fill="#59596B" d="M80.694,60.266c-0.951,0-1.722,0.768-1.722,1.717c0,0.951,0.771,1.72,1.722,1.72
		c0.946,0,1.714-0.769,1.714-1.72C82.408,61.033,81.64,60.266,80.694,60.266z"/>
	<path fill="#59596B" d="M80.694,66.339c-0.951,0-1.722,0.77-1.722,1.718c0,0.95,0.771,1.717,1.722,1.717
		c0.946,0,1.714-0.767,1.714-1.717C82.408,67.108,81.64,66.339,80.694,66.339z"/>
	<path fill="#59596B" d="M74.616,27.252c0.95,0,1.721-0.769,1.721-1.717c0-0.95-0.771-1.718-1.721-1.718
		c-0.946,0-1.715,0.768-1.715,1.718C72.9,26.484,73.67,27.252,74.616,27.252z"/>
	<path fill="#59596B" d="M74.616,33.327c0.95,0,1.721-0.77,1.721-1.717c0-0.95-0.771-1.719-1.721-1.719
		c-0.946,0-1.715,0.77-1.715,1.719C72.9,32.558,73.67,33.327,74.616,33.327z"/>
	<path fill="#59596B" d="M74.616,39.402c0.95,0,1.721-0.77,1.721-1.719c0-0.95-0.771-1.719-1.721-1.719
		c-0.946,0-1.715,0.77-1.715,1.719C72.9,38.632,73.67,39.402,74.616,39.402z"/>
	<path fill="#59596B" d="M74.616,45.475c0.95,0,1.721-0.768,1.721-1.717c0-0.946-0.771-1.718-1.721-1.718
		c-0.946,0-1.715,0.772-1.715,1.718C72.9,44.707,73.67,45.475,74.616,45.475z"/>
	<path fill="#59596B" d="M74.616,51.553c0.95,0,1.721-0.771,1.721-1.72c0-0.948-0.771-1.717-1.721-1.717
		c-0.946,0-1.715,0.77-1.715,1.717C72.9,50.781,73.67,51.553,74.616,51.553z"/>
	<path fill="#59596B" d="M74.616,54.192c-0.946,0-1.715,0.768-1.715,1.717c0,0.945,0.77,1.719,1.715,1.719
		c0.95,0,1.721-0.774,1.721-1.719C76.337,54.959,75.566,54.192,74.616,54.192z"/>
	<path fill="#59596B" d="M74.616,60.266c-0.946,0-1.715,0.768-1.715,1.717c0,0.951,0.77,1.72,1.715,1.72
		c0.95,0,1.721-0.769,1.721-1.72C76.337,61.033,75.566,60.266,74.616,60.266z"/>
	<path fill="#59596B" d="M74.616,69.774c0.95,0,1.721-0.767,1.721-1.717c0-0.948-0.771-1.718-1.721-1.718
		c-0.946,0-1.715,0.77-1.715,1.718C72.9,69.007,73.67,69.774,74.616,69.774z"/>
	<path fill="#59596B" d="M74.616,75.847c0.95,0,1.721-0.768,1.721-1.716c0-0.948-0.771-1.715-1.721-1.715
		c-0.946,0-1.715,0.767-1.715,1.715C72.9,75.08,73.67,75.847,74.616,75.847z"/>
	<path fill="#59596B" d="M74.616,81.924c0.95,0,1.721-0.77,1.721-1.716c0-0.949-0.771-1.719-1.721-1.719
		c-0.946,0-1.715,0.77-1.715,1.719C72.9,81.154,73.67,81.924,74.616,81.924z"/>
	<path fill="#59596B" d="M68.541,21.179c0.948,0,1.72-0.771,1.72-1.72c0-0.948-0.771-1.716-1.72-1.716
		c-0.945,0-1.718,0.768-1.718,1.716C66.823,20.407,67.596,21.179,68.541,21.179z"/>
	<path fill="#59596B" d="M68.541,27.252c0.948,0,1.72-0.769,1.72-1.717c0-0.95-0.771-1.718-1.72-1.718
		c-0.945,0-1.718,0.768-1.718,1.718C66.823,26.484,67.596,27.252,68.541,27.252z"/>
	<path fill="#59596B" d="M68.541,33.327c0.948,0,1.72-0.77,1.72-1.717c0-0.95-0.771-1.719-1.72-1.719
		c-0.945,0-1.718,0.77-1.718,1.719C66.823,32.558,67.596,33.327,68.541,33.327z"/>
	<path fill="#59596B" d="M68.541,39.402c0.948,0,1.72-0.77,1.72-1.719c0-0.95-0.771-1.719-1.72-1.719
		c-0.945,0-1.718,0.77-1.718,1.719C66.823,38.632,67.596,39.402,68.541,39.402z"/>
	<path fill="#59596B" d="M68.541,45.475c0.948,0,1.72-0.768,1.72-1.717c0-0.946-0.771-1.718-1.72-1.718
		c-0.945,0-1.718,0.772-1.718,1.718C66.823,44.707,67.596,45.475,68.541,45.475z"/>
	<path fill="#59596B" d="M68.541,48.116c-0.945,0-1.718,0.77-1.718,1.717c0,0.948,0.773,1.72,1.718,1.72
		c0.948,0,1.72-0.771,1.72-1.72C70.26,48.885,69.489,48.116,68.541,48.116z"/>
	<path fill="#59596B" d="M68.541,54.192c-0.945,0-1.718,0.768-1.718,1.717c0,0.945,0.773,1.719,1.718,1.719
		c0.948,0,1.72-0.774,1.72-1.719C70.26,54.959,69.489,54.192,68.541,54.192z"/>
	<path fill="#59596B" d="M68.541,60.266c-0.945,0-1.718,0.768-1.718,1.717c0,0.951,0.773,1.72,1.718,1.72
		c0.948,0,1.72-0.769,1.72-1.72C70.26,61.033,69.489,60.266,68.541,60.266z"/>
	<path fill="#59596B" d="M68.541,66.339c-0.945,0-1.718,0.77-1.718,1.718c0,0.95,0.773,1.717,1.718,1.717
		c0.948,0,1.72-0.767,1.72-1.717C70.26,67.108,69.489,66.339,68.541,66.339z"/>
	<path fill="#59596B" d="M68.541,72.416c-0.945,0-1.718,0.767-1.718,1.715c0,0.949,0.773,1.716,1.718,1.716
		c0.948,0,1.72-0.768,1.72-1.716C70.26,73.183,69.489,72.416,68.541,72.416z"/>
	<circle fill="#59596B" cx="62.468" cy="31.609" r="1.718"/>
	<circle fill="#59596B" cx="62.468" cy="37.683" r="1.719"/>
	<circle fill="#59596B" cx="62.468" cy="43.757" r="1.718"/>
	<circle fill="#59596B" cx="62.468" cy="49.834" r="1.719"/>
	<path fill="#59596B" d="M62.468,54.192c-0.95,0-1.719,0.768-1.719,1.717c0,0.945,0.769,1.719,1.719,1.719s1.718-0.774,1.718-1.719
		C64.186,54.959,63.418,54.192,62.468,54.192z"/>
	<circle fill="#59596B" cx="62.468" cy="61.984" r="1.718"/>
	<circle fill="#59596B" cx="62.468" cy="68.056" r="1.718"/>
	<path fill="#59596B" d="M56.39,29.891c-0.947,0-1.715,0.77-1.715,1.719c0,0.948,0.768,1.717,1.715,1.717
		c0.951,0,1.722-0.77,1.722-1.717C58.112,30.66,57.341,29.891,56.39,29.891z"/>
	<path fill="#59596B" d="M56.39,35.964c-0.947,0-1.715,0.77-1.715,1.719c0,0.949,0.768,1.719,1.715,1.719
		c0.951,0,1.722-0.77,1.722-1.719C58.112,36.734,57.341,35.964,56.39,35.964z"/>
	<path fill="#59596B" d="M56.39,42.04c-0.947,0-1.715,0.772-1.715,1.718c0,0.949,0.768,1.717,1.715,1.717
		c0.951,0,1.722-0.768,1.722-1.717C58.112,42.812,57.341,42.04,56.39,42.04z"/>
	<path fill="#59596B" d="M56.39,48.116c-0.947,0-1.715,0.77-1.715,1.717c0,0.948,0.768,1.72,1.715,1.72
		c0.951,0,1.722-0.771,1.722-1.72C58.112,48.885,57.341,48.116,56.39,48.116z"/>
	<path fill="#59596B" d="M56.39,54.192c-0.947,0-1.715,0.768-1.715,1.717c0,0.945,0.768,1.719,1.715,1.719
		c0.951,0,1.722-0.774,1.722-1.719C58.112,54.959,57.341,54.192,56.39,54.192z"/>
	<path fill="#59596B" d="M56.39,60.266c-0.947,0-1.715,0.768-1.715,1.717c0,0.951,0.768,1.72,1.715,1.72
		c0.951,0,1.722-0.769,1.722-1.72C58.112,61.033,57.341,60.266,56.39,60.266z"/>
	<path fill="#59596B" d="M50.32,27.252c0.945,0,1.714-0.769,1.714-1.717c0-0.95-0.77-1.718-1.714-1.718
		c-0.951,0-1.723,0.768-1.723,1.718C48.598,26.484,49.37,27.252,50.32,27.252z"/>
	<path fill="#59596B" d="M50.32,29.891c-0.951,0-1.723,0.77-1.723,1.719c0,0.948,0.772,1.717,1.723,1.717
		c0.945,0,1.714-0.77,1.714-1.717C52.035,30.66,51.265,29.891,50.32,29.891z"/>
	<path fill="#59596B" d="M50.32,35.964c-0.951,0-1.723,0.77-1.723,1.719c0,0.949,0.772,1.719,1.723,1.719
		c0.945,0,1.714-0.77,1.714-1.719C52.035,36.734,51.265,35.964,50.32,35.964z"/>
	<path fill="#59596B" d="M50.32,42.04c-0.951,0-1.723,0.772-1.723,1.718c0,0.949,0.772,1.717,1.723,1.717
		c0.945,0,1.714-0.768,1.714-1.717C52.035,42.812,51.265,42.04,50.32,42.04z"/>
	<path fill="#59596B" d="M50.32,48.116c-0.951,0-1.723,0.77-1.723,1.717c0,0.948,0.772,1.72,1.723,1.72
		c0.945,0,1.714-0.771,1.714-1.72C52.035,48.885,51.265,48.116,50.32,48.116z"/>
	<path fill="#59596B" d="M50.32,54.192c-0.951,0-1.723,0.768-1.723,1.717c0,0.945,0.772,1.719,1.723,1.719
		c0.945,0,1.714-0.774,1.714-1.719C52.035,54.959,51.265,54.192,50.32,54.192z"/>
	<circle fill="#59596B" cx="44.244" cy="25.535" r="1.718"/>
	<circle fill="#59596B" cx="44.244" cy="31.609" r="1.718"/>
	<circle fill="#59596B" cx="44.244" cy="37.683" r="1.719"/>
	<circle fill="#59596B" cx="44.244" cy="43.757" r="1.718"/>
	<circle fill="#59596B" cx="38.167" cy="25.535" r="1.718"/>
	<circle fill="#59596B" cx="38.167" cy="31.609" r="1.718"/>
	<circle fill="#59596B" cx="38.167" cy="37.683" r="1.719"/>
	<circle fill="#59596B" cx="32.094" cy="25.535" r="1.718"/>
	<circle fill="#59596B" cx="32.094" cy="31.609" r="1.718"/>
	<path fill="#59596B" d="M26.017,23.817c-0.944,0-1.716,0.768-1.716,1.718c0,0.949,0.772,1.717,1.716,1.717
		c0.95,0,1.719-0.769,1.719-1.717C27.736,24.585,26.967,23.817,26.017,23.817z"/>
	<circle fill="#59596B" cx="19.944" cy="25.535" r="1.718"/>
	<path fill="#59596B" d="M13.866,23.817c-0.945,0-1.714,0.768-1.714,1.718c0,0.949,0.77,1.717,1.714,1.717
		c0.952,0,1.723-0.769,1.723-1.717C15.588,24.585,14.818,23.817,13.866,23.817z"/>
	<circle fill="#59596B" cx="7.793" cy="25.535" r="1.718"/>
	<path fill="#59596B" d="M1.718,29.891C0.769,29.891,0,30.66,0,31.61c0,0.948,0.769,1.717,1.718,1.717
		c0.952,0,1.719-0.77,1.719-1.717C3.438,30.66,2.67,29.891,1.718,29.891z"/>
	<path fill="#59596B" d="M111.067,160.898c0.948,0,1.716-0.767,1.716-1.719c0-0.951-0.768-1.717-1.716-1.717
		c-0.951,0-1.721,0.766-1.721,1.717C109.346,160.131,110.116,160.898,111.067,160.898z"/>
	<circle fill="#59596B" cx="98.917" cy="7.309" r="1.718"/>
	<path fill="#59596B" d="M80.694,27.252c0.946,0,1.714-0.769,1.714-1.717c0-0.95-0.768-1.718-1.714-1.718
		c-0.951,0-1.722,0.768-1.722,1.718C78.972,26.484,79.743,27.252,80.694,27.252z"/>
	<circle fill="#59596B" cx="62.468" cy="19.461" r="1.718"/>
	<circle fill="#59596B" cx="62.468" cy="25.535" r="1.718"/>
	<path fill="#59596B" d="M56.39,27.252c0.951,0,1.722-0.769,1.722-1.717c0-0.95-0.771-1.718-1.722-1.718
		c-0.947,0-1.715,0.768-1.715,1.718C54.675,26.484,55.443,27.252,56.39,27.252z"/>
	<path fill="#59596B" d="M7.825,33.327c0.951,0,1.719-0.77,1.719-1.717c0-0.95-0.768-1.719-1.719-1.719
		c-0.946,0-1.718,0.77-1.718,1.719C6.107,32.558,6.879,33.327,7.825,33.327z"/>
</g>
<g id="图层_2">
	<circle fill="#DB4F48" cx="341.759" cy="55.834" r="1.719"/>
	<circle fill="#DB4F48" cx="341.759" cy="74.057" r="1.717"/>
	<path fill="#DB4F48" d="M335.68,78.416c-0.942,0-1.715,0.768-1.715,1.715c0,0.949,0.772,1.717,1.715,1.717
		c0.95,0,1.723-0.768,1.723-1.717C337.402,79.183,336.63,78.416,335.68,78.416z"/>
	<path fill="#DB4F48" d="M50.32,54.116c-0.951,0-1.723,0.77-1.723,1.717c0,0.948,0.772,1.72,1.723,1.72
		c0.945,0,1.714-0.771,1.714-1.72C52.035,54.885,51.265,54.116,50.32,54.116z"/>
	<circle fill="#DB4F48" cx="335.833" cy="49.834" r="1.718"/>
</g>
</svg>
