<?xml version="1.0" standalone="no"?>
<!DOCTYPE svg PUBLIC "-//W3C//DTD SVG 1.1//EN" "http://www.w3.org/Graphics/SVG/1.1/DTD/svg11.dtd" >
<svg xmlns="http://www.w3.org/2000/svg">
<metadata>
Created by FontForge 20120731 at Thu Dec 22 17:19:46 2016
 By admin
</metadata>
<defs>
<font id="iconfont" horiz-adv-x="1024" >
  <font-face 
    font-family="iconfont"
    font-weight="500"
    font-stretch="normal"
    units-per-em="1024"
    panose-1="2 0 6 3 0 0 0 0 0 0"
    ascent="896"
    descent="-128"
    x-height="792"
    bbox="-0.333333 -128 1244 896"
    underline-thickness="0"
    underline-position="0"
    unicode-range="U+0078-E668"
  />
<missing-glyph 
 />
    <glyph glyph-name=".notdef" 
 />
    <glyph glyph-name=".notdef" 
 />
    <glyph glyph-name=".null" horiz-adv-x="0" 
 />
    <glyph glyph-name="nonmarkingreturn" horiz-adv-x="341" 
 />
    <glyph glyph-name="glyph3" unicode="x" horiz-adv-x="1001" 
d="M281 543q-27 -1 -53 -1h-83q-18 0 -36.5 -6t-32.5 -18.5t-23 -32t-9 -45.5v-76h912v41q0 16 -0.5 30t-0.5 18q0 13 -5 29t-17 29.5t-31.5 22.5t-49.5 9h-133v-97h-438v97zM955 310v-52q0 -23 0.5 -52t0.5 -58t-10.5 -47.5t-26 -30t-33 -16t-31.5 -4.5q-14 -1 -29.5 -0.5
t-29.5 0.5h-32l-45 128h-439l-44 -128h-29h-34q-20 0 -45 1q-25 0 -41 9.5t-25.5 23t-13.5 29.5t-4 30v167h911zM163 247q-12 0 -21 -8.5t-9 -21.5t9 -21.5t21 -8.5q13 0 22 8.5t9 21.5t-9 21.5t-22 8.5zM316 123q-8 -26 -14 -48q-5 -19 -10.5 -37t-7.5 -25t-3 -15t1 -14.5
t9.5 -10.5t21.5 -4h37h67h81h80h64h36q23 0 34 12t2 38q-5 13 -9.5 30.5t-9.5 34.5q-5 19 -11 39h-368zM336 498v228q0 11 2.5 23t10 21.5t20.5 15.5t34 6h188q31 0 51.5 -14.5t20.5 -52.5v-227h-327z" />
    <glyph glyph-name="qiandai" unicode="&#xe617;" 
d="M522 792q2 0 5 2q7 4 17 14q12 11 24.5 16t32.5 -3q10 -3 16.5 -8.5t12 -10.5t12 -8.5t17 -3.5t17.5 3t13.5 5.5t13.5 3.5t16 -2q10 -4 13.5 -12t2 -16t-7 -16t-13.5 -14q-20 -12 -30 -24.5t-20 -27.5q-6 -7 -12 -16t-11 -19q-6 -11 -13 -21h-212q-7 12 -15 23
q-6 11 -13 21t-12 18q-10 16 -23 27.5t-25 20.5q-14 10 -19 25.5t9 27.5q8 5 17 4t19.5 -4t20 -6.5t17.5 -0.5q15 3 22 10.5t24 18.5q14 8 30 5.5t25 -10.5q4 -5 8.5 -8.5t9.5 -6.5q5 -4 11 -7zM638 587q12 -17 31 -36q15 -17 37.5 -39.5t52.5 -46.5q24 -22 50.5 -51
t45.5 -68t27 -89.5t-2 -113.5q-10 -51 -37 -96.5t-72 -79.5t-107 -53.5t-141 -19.5q-81 0 -143.5 23t-106 59.5t-69 82t-33.5 91.5q-9 50 -2.5 96t24 86.5t43.5 74t57 60.5q26 23 47.5 44t36.5 39q17 19 31 37h230zM529 272l-27 28l-22 22q-10 10 -14 15q-8 7 -21.5 11.5
t-22.5 -5.5q-8 -11 -4 -22t9 -17l15 -14q12 -12 25 -27q15 -16 34 -35l-1 -21h-70q-9 0 -15.5 -7t-6.5 -15.5t6 -14.5t16 -6h70v-36h-70q-9 0 -15.5 -5.5t-6.5 -14.5q-1 -9 5.5 -14.5t16.5 -5.5h70v-20q1 -15 9 -20.5t20 -5.5q13 -1 20.5 7.5t7.5 18.5v20h72q10 0 16.5 4.5
t5.5 15.5q0 21 -28 21h-66l1 35l67 1q14 -1 20 5.5t6 15.5t-6.5 15.5t-20.5 6.5h-67v19l32 32q12 12 24.5 25t18.5 18q23 21 10 36q-7 9 -18.5 9t-20.5 -8q-5 -4 -17.5 -15t-24.5 -22q-14 -13 -32 -30z" />
    <glyph glyph-name="liebiao" unicode="&#xe627;" 
d="M485 460q0 -24 -17 -41t-41 -17h-206q-24 0 -41 17t-17 41v215q0 24 17 41t41 17h206q24 0 41 -17t17 -41v-215zM485 92q0 -24 -17 -41t-41 -17h-206q-24 0 -41 17t-17 41v215q0 24 17 41t41 17h206q24 0 41 -17t17 -41v-215zM862 460q0 -24 -17 -41t-41 -17h-206
q-24 0 -41 17t-17 41v215q0 24 17 41t41 17h206q24 0 41 -17t17 -41v-215zM862 92q0 -24 -17 -41t-41 -17h-206q-24 0 -41 17t-17 41v215q0 24 17 41t41 17h206q24 0 41 -17t17 -41v-215z" />
    <glyph glyph-name="shezhi" unicode="&#xe628;" horiz-adv-x="1064" 
d="M-49 12zM1041 12zM46 43zM404 385q0 55 37.5 92.5t92 37.5t92.5 -37.5t38 -92.5t-38 -93t-92 -38q-56 0 -93 38t-37 93zM220 300q11 -39 32 -78l-85 -106l97 -97l105 86q38 -21 79 -34l15 -134h140l14 134q37 11 79 34l105 -86l98 97l-86 106q22 41 33 78l135 15v140
l-135 14q-9 32 -33 79l86 105l-98 99l-105 -87q-48 25 -79 34l-14 134h-140l-15 -134q-37 -11 -79 -34l-105 87l-97 -99l85 -105q-22 -45 -32 -79l-135 -14v-140zM1022 43z" />
    <glyph glyph-name="remind-error" unicode="&#xe629;" 
d="M512 896q-104 0 -199 -40.5t-163.5 -109t-109 -163.5t-40.5 -199t40.5 -199t109 -163.5t163.5 -109t199 -40.5t199 40.5t163.5 109t109 163.5t40.5 199t-40.5 199t-109 163.5t-163.5 109t-199 40.5zM512 -101q-99 0 -188.5 38.5t-154.5 103.5t-103.5 154.5t-38.5 188.5
t38.5 188.5t103.5 154.5t154.5 103.5t188.5 38.5t188.5 -38.5t154.5 -103.5t103.5 -154.5t38.5 -188.5t-38.5 -188.5t-103.5 -154.5t-154.5 -103.5t-188.5 -38.5zM337 492zM296 492q0 17 12 28.5t29 11.5t28.5 -11.5t11.5 -28.5t-11.5 -29t-28.5 -12t-29 12t-12 29zM687 492
zM647 492q0 17 11.5 28.5t28.5 11.5t29 -11.5t12 -28.5t-12 -29t-29 -12t-28.5 12t-11.5 29zM755 132q-44 55 -107.5 86t-135.5 31t-135.5 -31t-107.5 -86l21 -17q39 50 97.5 78.5t124.5 28.5t124.5 -28.5t97.5 -78.5z" />
    <glyph glyph-name="yonghu" unicode="&#xe600;" 
d="M438 819q93 0 158.5 -64t65.5 -155.5t-65.5 -156t-158.5 -64.5t-158.5 64.5t-65.5 156t65.5 155.5t158.5 64zM438 819q93 0 158.5 -64t65.5 -155.5t-65.5 -156t-158.5 -64.5t-158.5 64.5t-65.5 156t65.5 155.5t158.5 64zM354 306h187q119 0 204 -83.5t85 -200.5v-19
q0 -15 -9.5 -26t-31 -18t-43.5 -11t-60 -6t-67.5 -2.5t-77.5 -0.5h-187q-52 0 -78 0.5t-66.5 2t-61 5.5t-43 11t-31.5 18.5t-9 26.5v19q0 117 84.5 200.5t204.5 83.5zM748 727h209q5 0 8.5 -3.5t3.5 -8.5v-69q0 -5 -3.5 -8.5t-8.5 -3.5h-209q-4 0 -7.5 3.5t-3.5 8.5v69
q0 5 3.5 8.5t7.5 3.5zM818 796h69q5 0 8.5 -3t3.5 -8v-209q0 -5 -3.5 -8t-8.5 -3h-69q-5 0 -8.5 3t-3.5 8v209q0 5 3.5 8t8.5 3z" />
    <glyph glyph-name="wangluo" unicode="&#xe608;" 
d="M512 896q-104 0 -199 -40.5t-163.5 -109t-109 -163.5t-40.5 -199t40.5 -199t109 -163.5t163.5 -109t199 -40.5t199 40.5t163.5 109t109 163.5t40.5 199t-40.5 199t-109 163.5t-163.5 109t-199 40.5zM753 408h-217v217q99 -3 193 -24q21 -94 24 -193zM536 360h217
q-3 -101 -25 -197q-94 -20 -192 -22v219v0zM976 408h-172q-2 91 -19 178q91 -26 172 -71q16 -52 19 -107zM930 586q-76 35 -159 57q-22 83 -57 159q71 -34 126.5 -89.5t89.5 -126.5zM643 829q44 -81 71 -172q-87 17 -178 19v171v1q55 -3 107 -19zM488 848v-1v-171
q-93 -2 -183 -20q25 90 66 171q57 18 117 21zM304 799q-33 -74 -53 -156q-82 -22 -157 -57q33 69 87.5 124t122.5 89zM67 515q80 44 171 71q-16 -87 -18 -178h-172q3 55 19 107zM48 360h172q2 -93 19 -183q-90 25 -170 66q-18 57 -21 117zM97 176q74 -32 154 -53
q21 -80 53 -154q-138 69 -207 207zM488 -80q-60 3 -117 21q-41 80 -66 170q90 -17 183 -19v-172zM488 141q-100 2 -196 23q-21 96 -23 196h219v-219zM269 408q2 98 22 192q96 22 197 25v-217h-219zM536 -80v172q91 2 178 18q-27 -91 -71 -171q-52 -16 -107 -19zM714 -34
q35 75 57 157q81 20 156 53q-34 -68 -89 -122.5t-124 -87.5zM955 243q-81 -41 -171 -66q18 90 20 183h172q-3 -60 -21 -117z" />
    <glyph glyph-name="yonghuming" unicode="&#xe609;" 
d="M358 424q-44 22 -71 67.5t-27 101.5q0 77 49.5 131.5t119.5 54.5t119 -54.5t49 -131.5q0 -56 -26.5 -101.5t-70.5 -67.5q109 -26 182 -121t79 -220h-664q7 124 80 219t181 122zM569 757q63 -67 63 -164q0 -89 -55 -154v0q80 -38 135.5 -111.5t75.5 -167.5v0l150 1
q-5 111 -70 195t-162 108q39 19 63 59.5t24 90.5q0 68 -44 116.5t-106 48.5q-41 0 -76 -23z" />
    <glyph glyph-name="icongongdan" unicode="&#xe62a;" 
d="M722 733h-585v-585h53v-53h-106v691h691v-106h-53v53zM722 95h-319v53h319v-53zM669 254h-266v53h266v-53zM616 414h-213v53h213v-53zM882 573h-585v-585h585v585zM243 -65v692h692v-692h-692z" />
    <glyph glyph-name="shuaxin" unicode="&#xe626;" 
d="M884 211v0q62 135 24 277q-21 78 -71 143.5t-122 106.5l43 94l-247 -65l110 -230l46 98q100 -61 131 -176q28 -103 -17 -200q-28 -62 -78.5 -104t-113.5 -59q-18 -5 -37 -7l51 -106q10 3 15 4q86 23 156.5 81.5t109.5 142.5v0zM359 129q-102 61 -133 177q-28 103 17 200
q28 62 79 104t114 59q20 5 41 8l-51 106q-11 -3 -20 -5q-86 -23 -156.5 -81.5t-109.5 -142.5q-62 -135 -23 -277v-1q21 -78 71.5 -143.5t123.5 -106.5l-41 -90l247 66l-112 230l-47 -103v0zM359 129z" />
    <glyph glyph-name="zhanghuzonglan" unicode="&#xe611;" 
d="M511 767q-104 0 -192 -51.5t-139.5 -139.5t-51.5 -192t51.5 -192t139.5 -139.5t192 -51.5t192 51.5t139 139.5t51 192t-51 192t-139 139.5t-192 51.5zM654 241h-287q-10 0 -17 7t-7 16.5t7 16.5t17 7h287q10 0 17 -7t7 -16.5t-7 -16.5t-17 -7zM654 360h-287q-10 0 -17 7
t-7 17t7 17t17 7h287q10 0 17 -7t7 -17t-7 -17t-17 -7zM654 480h-287q-10 0 -17 7t-7 16.5t7 16.5t17 7h287q10 0 17 -7t7 -16.5t-7 -16.5t-17 -7z" />
    <glyph glyph-name="xucaitong" unicode="&#xe62b;" 
d="M740 303q0 126 -72 228h327q12 0 20.5 -8.5t8.5 -20.5v-188q0 -11 -8.5 -19.5t-20.5 -8.5h-256q1 8 1 17zM734 234h261q12 0 20.5 -8.5t8.5 -20.5v-187q0 -12 -8.5 -20.5t-20.5 -8.5h-411q59 45 97.5 108t52.5 137zM345 698q-27 0 -54 -3v98q0 11 8.5 19.5t20.5 8.5h675
q12 0 20.5 -8.5t8.5 -19.5v-188q0 -12 -8.5 -20.5t-20.5 -8.5h-365q-55 58 -129 90t-156 32zM344.5 608q-126.5 0 -215.5 -89.5t-89 -215.5t89 -215.5t215.5 -89.5t215.5 89.5t89 215.5t-89 215.5t-215.5 89.5zM344.5 12q-120.5 0 -205.5 85.5t-85 206t85 205.5t205.5 85
t206 -85t85.5 -205.5t-85.5 -206t-206 -85.5zM344.5 594q-120.5 0 -205.5 -85t-85 -205.5t85 -206t205.5 -85.5t206 85.5t85.5 206t-85.5 205.5t-206 85zM305 450h83v35h42v-35h84v-33h-84v-32h96v-32l-11 -52q-18 3 -36 4l12 48h-199v32h96v32h-83v33zM312 324l12 21
q19 -6 49 -18q10 -5 15 -7l-12 -24q-36 17 -64 28zM367 276l-12 -23q-33 15 -66 29l12 22q24 -8 66 -28zM181 395q26 41 46 93l38 -12q-32 -59 -60 -107l37 2q3 7 12 23l9 18l32 -15q-36 -69 -76 -128q9 1 29 2.5t29 1.5v-17q-1 -10 -1 -16q-19 -2 -49 -5q-14 -1 -20 -1
q-14 -2 -28 -5l-12 34q14 9 26 25q16 22 29 49q-22 -1 -43 -3q-6 -1 -9 -1l-9 35q14 12 20 27zM167 148l-6 35q7 2 24 3q63 8 95 14v-35q-35 -5 -99 -15q-9 -2 -14 -2zM529 212h-98l-3 -8q19 -7 52 -24q32 -15 49 -23l-23 -35q-40 26 -96 52q-29 -29 -118 -55q-2 7 -13 26
q-5 6 -6 11q99 18 117 56h-101v34h110q5 28 5 93h39q0 -60 -4 -93h90v-34zM345 649q-94 0 -173.5 -46.5t-125.5 -126t-46 -173t46 -173t125.5 -125.5t173.5 -46t173.5 46t125.5 125.5t46 173t-46 173t-125.5 126t-173.5 46.5zM344.5 -2q-126.5 0 -215.5 89.5t-89 215.5
t89 215.5t215.5 89.5t215.5 -89.5t89 -215.5t-89 -215.5t-215.5 -89.5z" />
    <glyph glyph-name="biangengxinxi" unicode="&#xe62c;" 
d="M760 658q-22 21 -53 21t-53 -21l-26 -26l-16 -17v0l-342 -341l3 -3l-80 -203l208 77l3 -2l370 370v0l15 15q21 21 21 51q-1 31 -23 53zM640 562l36 -35q11 -10 16 -15l-36 -36l-52 50zM563 486l52 -51l-212 -211l-52 50zM293 166l24 62l39 -38zM680 603l15 14q4 5 12 5
t13 -5l27 -26q5 -5 5 -12q1 -6 -4 -10l-15 -16zM824 896h-624q-83 0 -141.5 -55t-58.5 -133v-648q0 -78 58.5 -133t141.5 -55h624q83 0 141.5 55t58.5 133v648q0 78 -58.5 133t-141.5 55zM952 60q0 -48 -37.5 -82t-90.5 -34h-624q-53 0 -90.5 34t-37.5 82v648q0 48 37.5 82
t90.5 34h624q53 0 90.5 -34t37.5 -82v-648z" />
    <glyph glyph-name="jiahao" unicode="&#xe642;" 
d="M896 332h-352v352h-64v-352h-352v-64h352v-352h64v352h352v64z" />
    <glyph glyph-name="wangluo1" unicode="&#xe60a;" 
d="M894 259q53 0 90.5 37.5t37.5 90.5t-37.5 90.5t-90.5 37.5q-43 0 -77 -26t-46 -66h-319l179 309h140q12 -40 46 -66t77 -26q53 0 90.5 37.5t37.5 90.5t-37.5 90.5t-90.5 37.5q-43 0 -77 -26t-46 -67h-181l-220 -380h-120q-11 40 -45 66t-77 26q-53 0 -90.5 -37.5
t-37.5 -90.5t37.5 -90.5t90.5 -37.5q43 0 77 26t45 67h120l220 -384h181q12 -40 46 -66t77 -26q53 0 90.5 37.5t37.5 90.5t-37.5 90.5t-90.5 37.5q-43 0 -77 -26t-46 -67h-140l-179 313h319q12 -41 46 -67t77 -26z" />
    <glyph glyph-name="ecs" unicode="&#xe614;" 
d="M922 -81h-819q-37 0 -63 24.5t-26 60.5v98q0 37 26 61t63 24h819q37 0 63 -24t26 -61v-98q0 -36 -26 -60.5t-63 -24.5v0zM823 117q-26 0 -45 -18.5t-19 -45.5t19 -45.5t45.5 -18.5t45 19t18.5 45.5t-18.5 45t-45.5 18.5v0zM922 251h-819q-37 0 -63 24t-26 60v98
q0 37 26 61t63 24h819q37 0 63 -24t26 -61v-98q0 -36 -26 -60t-63 -24v0zM823 448q-26 0 -45 -18.5t-19 -45.5t19 -45.5t45.5 -18.5t45 18.5t18.5 45.5t-18.5 45.5t-45.5 18.5v0zM922 581h-819q-37 0 -63 24t-26 61v98q0 36 26 60.5t63 24.5h819q37 0 63 -24.5t26 -60.5v-98
q0 -37 -26 -61t-63 -24v0zM823 779q-26 0 -45 -19t-19 -45.5t19 -45t45.5 -18.5t45 18.5t18.5 45t-18.5 45.5t-45.5 19v0z" />
    <glyph glyph-name="iconfontcolor65" unicode="&#xe618;" 
d="M512 896q-139 0 -257 -68.5t-186.5 -186.5t-68.5 -257t68.5 -257t186.5 -186.5t257 -68.5t257 68.5t186.5 186.5t68.5 257t-68.5 257t-186.5 186.5t-257 68.5zM512 -80q-192 0 -328 136t-136 328t136 328t328 136t328 -136t136 -328t-136 -328t-328 -136zM512 800
q-172 0 -294 -122t-122 -294t122 -294t294 -122t294 122t122 294t-122 294t-294 122zM722 629l-179 -196v-29h150v0q11 -1 18.5 -8.5t7.5 -18t-7.5 -18t-18.5 -8.5v0v0h-1v0h-149v-55h150v0q11 0 18.5 -7.5t7.5 -18.5t-7.5 -18.5t-18.5 -7.5v0v0h-1v0h-149v-125v16
q0 -14 -10 -24t-24 -10t-24 10t-10 24v-16v125h-147v0q-11 0 -18.5 7.5t-7.5 18.5t7.5 18.5t18.5 7.5v0v0h147v55h-147v0v0v0q-11 0 -19 8t-8 18.5t8 18.5t19 8v0v0v0h147v29l-176 196q0 1 -0.5 3t-1.5 7t-0.5 9.5t2.5 9t6.5 7t13 2.5t20.5 -4q9 -3 18 -11.5t14 -15.5l4 -7
l137 -147l139 147q17 29 40 34q25 5 32.5 -3.5t3.5 -19.5z" />
    <glyph glyph-name="dashboard" unicode="&#xe601;" 
d="M512 768q-91 0 -174 -35.5t-143 -95.5t-95.5 -143t-35.5 -174q0 -93 36 -176t100 -145h101h422h101q64 62 100 145t36 176q0 91 -35.5 174t-95.5 143t-143 95.5t-174 35.5v0v0zM797 63h-570q-99 109 -99 257q0 104 51.5 192.5t140 140t192.5 51.5t192.5 -51.5t140 -140
t51.5 -192.5q0 -148 -99 -257v0v0zM242 338l-81 15l8 45l81 -15l-8 -45v0zM774 383l81 15l8 -45l-81 -15l-8 45v0zM320 512l-53 63l35 29l53 -63l-35 -29v0zM704 512l-35 29l53 63l35 -29l-53 -63v0zM489 672h46v-82h-46v82v0zM514 318l-138 154l77 -188q-20 -36 1 -71
q15 -24 43 -30.5t52 9t30.5 43t-8.5 51.5q-20 31 -57 32v0z" />
    <glyph glyph-name="ecs1" unicode="&#xe602;" 
d="M957 338q-7 42 -22 73.5t-34.5 49t-42.5 29t-47.5 14.5t-49 4.5t-45.5 -1.5q-1 2 -2 9q-52 191 -250 165q-36 -3 -65 -14t-47.5 -25t-32 -34t-20.5 -37.5t-11 -40.5t-4.5 -37.5t-0.5 -34.5h-28t-34.5 -3t-40.5 -8.5t-38.5 -17t-35.5 -27.5t-25.5 -41.5t-13.5 -57.5
q-4 -46 6.5 -83.5t29.5 -61t47.5 -40t57 -24.5t61.5 -12h465q13 1 27 3.5t39 10t46.5 18.5t45 31t38.5 45t23 63.5t4 84.5v0zM633 434q16 0 27.5 -11t11.5 -26t-11.5 -26t-27.5 -11h-271q-17 0 -28.5 11t-11.5 26t11.5 26t28.5 11h271v0zM365 160q-16 0 -27.5 10.5t-11.5 26
t11.5 26t27.5 10.5h271q17 0 28.5 -10.5t11.5 -26t-11.5 -26t-28.5 -10.5h-271v0zM636 262h-271q-16 0 -27.5 10.5t-11.5 26t11.5 26t27.5 10.5h271q17 0 28.5 -10.5t11.5 -26t-11.5 -26t-28.5 -10.5v0zM605 278q8 0 13.5 6t5.5 14t-5.5 13.5t-13.5 5.5t-14 -5.5t-6 -13.5
t6 -14t14 -6v0zM605 177q8 0 13.5 5.5t5.5 13.5t-5.5 13.5t-13.5 5.5t-14 -5.5t-6 -13.5t6 -13.5t14 -5.5v0zM605 377q8 0 13.5 5.5t5.5 13.5t-5.5 13.5t-13.5 5.5t-13.5 -5.5t-5.5 -13.5t5.5 -13.5t13.5 -5.5v0z" />
    <glyph glyph-name="gongdan" unicode="&#xe62d;" 
d="M797 495q-31 1 -59 7l-99 -54l3 99q-68 61 -65 157q2 82 70 138t162 53q80 -2 142.5 -63t59.5 -141q-2 -84 -62.5 -141t-151.5 -55v0zM736 537q22 -6 62 -7q77 -2 126.5 44t51.5 116q2 67 -50 117.5t-118 52.5q-81 3 -137.5 -43.5t-58.5 -115.5q-3 -82 65 -140l-2 -62
l61 38v0zM897 666q-10 1 -17.5 8.5t-7.5 18.5t8 18.5t19 7t18.5 -8.5t7 -18.5t-8.5 -18t-19 -7.5v0zM793 669q-11 1 -18 8.5t-7 18.5t8 18.5t19 7t18 -8.5t7 -18.5t-8 -18t-19 -7.5v0zM689 673q-11 0 -18.5 8t-7 18.5t8.5 18t18.5 7t18 -8t7.5 -18.5t-8 -18.5t-19 -6.5v0z
M689 673zM780 -128h-753q-14 0 -22 10.5t-4 23.5q20 67 122 141q47 35 98.5 61t78.5 31l8 2l3 7q6 11 7 34l1 6l-5 5l-10 10q-63 58 -74 107l-2 8l-7 3q-17 8 -26 33q-7 19 -6 40q1 24 13 39l3 4v5v3v0q-4 35 9 84q16 60 50 98q46 50 139 50t139 -51q35 -38 45.5 -91.5
t7.5 -88.5q0 -1 -1 -1v-3v-5l4 -4q12 -15 13 -39q1 -20 -7 -40q-9 -25 -26 -33l-7 -3l-1 -7q-12 -53 -72 -112l-6 -6l-4 -5v-6q2 -24 8 -34l3 -7l8 -2q26 -5 77.5 -31t99.5 -61q101 -74 121 -141q4 -13 -4 -23q-8 -11 -21 -11v0zM70 -75h666q-28 38 -84 79
q-46 34 -91.5 56.5t-64.5 26.5l-20 4q-13 2 -19 14l-9 18q-10 21 -13 54l-1 18q-1 12 7 20l12 14q2 2 7 8q49 48 58 86l5 20q3 12 14 18l15 7q2 2 2 4q7 18 2 27l-9 12q-6 7 -6 16v15q0 5 1 10q3 29 -6 70.5t-33 68.5q-30 33 -99.5 33t-99.5 -33q-26 -29 -37.5 -72.5
t-8.5 -67.5q1 -4 1 -9v-15q0 -9 -6 -16l-9 -12q-5 -9 1 -27l2 -4l15 -7q12 -6 15 -18l5 -20q7 -34 59 -81q9 -10 13 -13l12 -14q7 -8 7 -19l-2 -18q-2 -33 -12 -54l-9 -19q-6 -12 -19 -14l-21 -4q-19 -4 -64.5 -26.5t-91.5 -56.5q-56 -41 -84 -79v0zM70 -75z" />
    <glyph glyph-name="zhankaicelalan" unicode="&#xe61d;" 
d="M64 735h896v-99h-896v99zM64 132h896v-99h-896v99zM415 333h545v-99h-545v99zM415 534h545v-99h-545v99zM64 565v-362l197 181z" />
    <glyph glyph-name="shouhuicelalan" unicode="&#xe61e;" 
d="M64 735h896v-99h-896v99zM64 132h896v-99h-896v99zM415 333h545v-99h-545v99zM415 534h545v-99h-545v99zM64 383l197 -182v363z" />
    <glyph glyph-name="shanchu" unicode="&#xe62e;" 
d="M306 727h-137q-28 0 -48 -20t-20 -49v-68h822v68q0 29 -20 49t-48 20h-137v69q0 28 -20 48t-48 20h-276q-28 0 -48 -20t-20 -48v-69zM821 521v-549q0 -28 -18.5 -48t-43.5 -20h-494q-25 0 -43.5 20t-18.5 48v549h618z" />
    <glyph glyph-name="shenqingedu" unicode="&#xe62f;" horiz-adv-x="1138" 
d="M163 54q-19 19 -19 49v425q0 30 19 49t49 19h706q30 0 49 -19q23 -22 23 -49v-4l140 4v209q0 30 -11 53q-8 15 -31 45q-11 15 -41 31q-23 11 -53 11h-850q-30 0 -53 -11q-32 -13 -45 -31q-16 -11 -31 -41q-11 -29 -11 -57v-706q0 -28 11 -57q10 -25 30.5 -45t45.5 -30
q28 -12 53 -12h353v140h-281q-32 6 -53 27zM1107 335q-18 45 -68 102q-45 46 -102 68q-67 27 -125 27q-72 0 -126 -27q-44 -18 -102 -68q-45 -45 -68 -102q-27 -67 -27 -125q0 -73 27 -126q18 -45 68 -102q46 -46 102 -68q67 -27 126 -27q72 0 125 27q57 22 102 68
q49 49 68 102q27 67 27 126q0 66 -27 125zM975 103q0 -11 -8 -19q-2 -3 -4.5 -5t-7.5 -3.5t-7 -2.5h-95v-49q0 -42 -45 -42v0q-23 0 -34 11q-15 5 -15 31v53v0h-95q-14 0 -19 11q-8 15 -8 23q0 11 7.5 18.5t19.5 7.5h95v31h-95q-12 0 -19.5 7.5t-7.5 22.5q0 12 7.5 19.5
t19.5 7.5h72l-69 117q-7 8 -7 15q-4 8 -4 19.5t11 22.5q6 12 27 12q8 0 23 -8q3 -2 6 -4.5t5.5 -6t3.5 -4.5l76 -137l83 141q1 1 3.5 4t5.5 6t6 5q16 7 23 7q12 0 15 -3q2 0 6 -2t6 -2q1 -1 3.5 -3t3 -3.5t0.5 -5.5q4 -3 4 -15q0 -15 -11 -26l-76 -125h68q12 0 19.5 -8
t7.5 -19v-4q0 -11 -8 -19q-2 -3 -4.5 -5t-7.5 -3.5t-7 -2.5h-95v-31h95q13 0 19 -11q8 -7 8 -23v0z" />
    <glyph glyph-name="shenqingedu1" unicode="&#xe630;" 
d="M512 894q-104 0 -198.5 -40.5t-162.5 -108.5t-108.5 -162.5t-40.5 -198.5t40.5 -198.5t108.5 -162.5t162.5 -108.5t198.5 -40.5t198.5 40.5t162.5 108.5t108.5 162.5t40.5 198.5t-40.5 198.5t-108.5 162.5t-162.5 108.5t-198.5 40.5zM472 108h-196q-14 0 -29 6
q-14 6 -25.5 17t-16.5 25q-6 16 -6 32v390q0 16 6 32q8 16 17 23q7 9 25 16q12 7 29 7h472q17 0 29 -7q17 -8 23 -16q13 -17 17 -25q6 -13 6 -30v-115l-77 -2v2q0 15 -12 28q-11 10 -28 10h-393q-16 0 -26.5 -10.5t-10.5 -27.5v-236q0 -16 10 -27q12 -12 30 -15h154v-77h2z
M811 217q-11 -30 -38 -57q-25 -25 -56 -37q-29 -15 -69 -15q-33 0 -69 15q-31 12 -57 37q-27 32 -37 57q-15 29 -15 69q0 32 15 69q12 31 37 56q32 28 57 38q29 14 69 14q32 0 69 -14q31 -13 56 -38q28 -32 38 -56q14 -32 14 -69q0 -33 -14 -69zM723 296h-38l42 69q7 6 7 15
q0 6 -3 8q0 2 -4 6q-1 0 -3 1.5t-3 1.5q-2 2 -8 2q-5 0 -13 -5l-8 -8l-46 -77l-42 75l-8 8q-9 5 -13 5q-11 0 -15 -7q-6 -6 -6 -12.5t2 -10.5q0 -4 4 -8l38 -65h-42q-6 0 -10 -4t-4 -10q0 -9 4 -13t10 -4h52v-17h-52q-6 0 -10 -4t-4 -11q0 -4 4 -12q3 -6 10 -6h52v-30
q0 -14 9 -16q6 -7 19 -7q25 0 25 23v28h52q10 4 10 6q5 4 5 10q0 9 -5 13q-3 6 -10 6h-52v17h52q10 5 10 6q5 4 5 11v2q0 6 -5 10q0 4 -8 4z" />
    <glyph glyph-name="xiugai" unicode="&#xe631;" 
d="M512 865q-98 0 -187 -38.5t-153 -102.5t-102.5 -153t-38.5 -187t38.5 -187t102.5 -153t153 -102.5t187 -38.5t187 38.5t153 102.5t102.5 153t38.5 187t-38.5 187t-102.5 153t-153 102.5t-187 38.5zM243 115l59 157l93 -92zM419 193l-100 105l280 276l97 -100zM776 551
l-56 -58l-101 101l49 50l7.5 5t18 3.5t27 -9t27 -22t20.5 -20.5l8 -7q13 -29 0 -43z" />
    <glyph glyph-name="dashboard1" unicode="&#xe612;" 
d="M512 887q-102 0 -195 -40t-160.5 -107.5t-107.5 -160.5t-40 -195t40 -195t107.5 -160.5t160.5 -107.5t195 -40t195 40t160.5 107.5t107.5 160.5t40 195t-40 195t-107.5 160.5t-160.5 107.5t-195 40v0zM842 101l-92 93q-45 -52 -106.5 -82t-131.5 -30t-131.5 30t-106.5 82
l-93 -93q-92 108 -103 249h132v68h-132q11 141 103 249l94 -93l15 14q190 -254 192 -256q7 -9 17.5 -16.5t29.5 -6.5t38 20t20 38t-6.5 29.5t-16.5 17.5q-45 34 -256 192l14 15l-93 94q108 92 250 103v-132h67v132q141 -11 249 -103l-93 -94l47 -47l93 93q93 -108 104 -249
h-132v-67h132q-11 -142 -104 -250v0z" />
    <glyph glyph-name="fangdajing" unicode="&#xe63e;" 
d="M893 61l-239 238q64 79 64 181q0 120 -84.5 205t-204.5 85t-205 -85t-85 -205t85 -204.5t205 -84.5q108 0 190 71l238 -237q7 -8 17.5 -8t18 7.5t7.5 18t-7 18.5zM260 312q-70 70 -70 168.5t70 168t168.5 69.5t168.5 -69.5t70 -168t-70 -168.5t-168.5 -70t-168.5 70z" />
    <glyph glyph-name="yonghu2" unicode="&#xe60b;" horiz-adv-x="1152" 
d="M768 125v53q54 31 91 98t37 140q0 45 -0.5 67t-4 59t-10.5 55t-21 42.5t-34 36t-51 20t-71 8.5t-71 -8.5t-51 -20t-34 -36t-21 -42.5t-10.5 -55t-4 -59t-0.5 -67q0 -73 37 -140t91 -98v-53q-107 -8 -195 -43.5t-138.5 -91t-50.5 -118.5h896q0 63 -50.5 118.5t-138.5 91
t-195 43.5zM327 101q84 54 200 80q-23 27 -41 59q-46 85 -46 176q0 57 1 87t8 73t22 74q44 97 159 119q-14 62 -55.5 94.5t-126.5 32.5q-40 0 -71 -8.5t-51 -20t-34 -36t-21 -42.5t-10.5 -55t-4 -59t-0.5 -67q0 -73 37 -140t91 -98v-53q-107 -8 -195 -43.5t-138.5 -91
t-50.5 -118.5h279q22 20 48 37v0z" />
    <glyph glyph-name="signal" unicode="&#xe60c;" 
d="M838.5 103q-22.5 0 -38.5 13t-16 31v474q0 18 16 31t38.5 13t38.5 -13t16 -31v-474q0 -18 -16 -31t-38.5 -13zM620.5 103q-22.5 0 -38.5 13t-16 31v355q0 19 16 32t38.5 13t38.5 -13t16 -32v-355q0 -18 -16 -31t-38.5 -13zM403.5 103q-22.5 0 -38.5 13t-16 31v237
q0 18 16 31t38.5 13t38.5 -13t16 -31v-237q0 -18 -16 -31t-38.5 -13zM185.5 103q-22.5 0 -38.5 13t-16 31v119q0 18 16 31t38.5 13t38.5 -13t16 -31v-119q0 -18 -16 -31t-38.5 -13z" />
    <glyph glyph-name="renminbi" unicode="&#xe616;" 
d="M512 896q-104 0 -199 -40.5t-163.5 -109.5t-109 -163.5t-40.5 -198.5t40.5 -199t109 -163.5t163.5 -109t199 -40.5t199 40.5t163.5 109t109 163.5t40.5 199t-40.5 198.5t-109 163.5t-163.5 109.5t-199 40.5v0zM512 -45q-116 0 -215 57.5t-156.5 156.5t-57.5 215t57.5 215
t156.5 156.5t215 57.5t215 -57.5t156.5 -156.5t57.5 -215t-57.5 -215t-156.5 -156.5t-215 -57.5v0zM655 665l-91 -169q-37 -68 -45 -90h-2q-24 54 -136 259h-85l159 -275h-131v-60h154v-84h-154v-61h154v-122h76v122h148v61h-148v84h148v60h-127l161 275h-81v0zM655 665z
" />
    <glyph glyph-name="shebeihongpingkaiguan" unicode="&#xe632;" 
d="M922 794h-600v0h-1q-90 0 -154.5 -64.5t-64.5 -154.5v-1v0v-600h600v0h1q90 0 154.5 64.5t64.5 154.5v1v0v600zM877 215v0v-1q0 -80 -57.5 -137.5t-137.5 -57.5h-1v0h-534v534v0v1q0 80 57.5 137.5t137.5 57.5h1v0h534v-534zM358 452v64q-10 20 -10 41q0 37 25.5 62.5
t61.5 25.5t61.5 -25.5t25.5 -62.5q0 -12 -3 -23v-68q-11 -1 -19 -5l-2 71q1 30 -16 48q-15 16 -40 16q-30 0 -44 -20.5t-15 -42.5l-2 -159q-17 11 -38 11q-39 0 -56 -30q-14 -25 1 -51q14 -25 37 -78q30 -69 51 -106q27 -46 47 -87q4 -10 15 -10h205q8 -1 14 6q2 2 3 5
q3 7 39 69q44 75 44 159v68q2 22 -9 45.5t-39 29.5q-17 4 -31 -3q-4 11 -10 18q-14 18 -41 20q-18 1 -31 -5q-2 5 -6 10q-15 20 -48 21q38 38 38 92t-38.5 92.5t-92.5 38.5t-92.5 -38.5t-38.5 -92.5q1 -67 54 -106zM549 424q3 -3 4 -8t0 -9v-3q-1 -3 -1 -5l1 -11
q-1 -12 1 -21q1 -6 6.5 -10t12 -3.5t11 5.5t3.5 12v16q2 21 25 19q11 -1 16 -7q9 -12 6 -38q-2 -7 -2 -10q0 -7 4 -12t10.5 -6t12 2.5t7.5 10.5q0 3 1 9q5 17 16 17h5q22 -5 22 -41v-1v-69q0 -75 -39 -142q-31 -52 -37 -62h-184q-16 32 -45 80q-19 33 -49 102q-24 57 -38 81
q-6 10 -2 18q7 12 27 12q27 0 39 -30q5 -13 19 -11q14 3 14 17l2 205q0 5 1 10.5t7.5 13t17.5 7.5q10 0 15 -5q7 -9 7 -24v-2l3 -119q-3 -22 1 -40q2 -6 7 -10t11.5 -3t11 6t4.5 11l-1 34q4 21 24 21v0q17 2 23 -7z" />
    <glyph glyph-name="biangeng" unicode="&#xe633;" horiz-adv-x="1366" 
d="M599 183q30 -2 52 16l5 2l-158 158l-2 -5q-18 -22 -16 -52l-56 -175l175 56v0zM1172 823l-52 52q-22 21 -52 21t-52 -21l-50 -50l155 -156l51 51q21 21 21 51t-21 52v0zM1068 616l-155 155l-360 -360l155 -155l360 360v0zM1050 -55h-807v807h514v70h-512q-30 0 -51.5 -21
t-21.5 -52v-804q0 -30 21.5 -51.5t51.5 -21.5h805q30 0 51.5 21.5t21.5 51.5v512h-73v-512v0zM1050 -55z" />
    <glyph glyph-name="yonghuming1" unicode="&#xe60d;" 
d="M282 605q0 -94 66.5 -160.5t160.5 -66.5t160.5 66.5t66.5 160.5t-66.5 160.5t-160.5 66.5t-160.5 -66.5t-66.5 -160.5v0v0v0zM644 378q-62 -40 -135.5 -40t-135.5 40q-129 -43 -210.5 -154.5t-81.5 -251.5q0 -17 1 -33h853q2 16 2 33q0 140 -82 251.5t-211 154.5v0v0v0z
M644 378z" />
    <glyph glyph-name="biangeng1" unicode="&#xe634;" 
d="M959 574l-259 258v0l-1 -2v-259h257zM699 533h-38v299h-597v-896h896v597h-261zM237 166l240 246l96 -98l-240 -246zM219 135l84 -86l-126 -43zM609 351l-12 -13l-96 99l12 12q14 14 36 14t36 -14l24 -25q15 -14 15 -36.5t-15 -36.5z" />
    <glyph glyph-name="zuzhijiagouchaxun" unicode="&#xe635;" 
d="M980 -52l-96 97q41 54 41 123q0 84 -59 143.5t-143 59.5t-143.5 -59.5t-59.5 -143.5t59.5 -143.5t143.5 -59.5q71 0 126 44l96 -96q7 -7 17.5 -7t17.5 7.5t7 17.5t-7 17v0zM831 59q-45 -45 -108.5 -45t-108.5 45t-45 108.5t45 108.5t108.5 45t108.5 -45t45 -108.5
t-45 -108.5zM451 141q-9 71 -61 123l-2 2l-4 4l61 101l6 -2q27 -12 57 -16q38 47 93.5 74.5t119.5 27.5q15 0 32 -2q51 67 51 151q0 106 -75 180.5t-180.5 74.5t-180 -74.5t-74.5 -180t76 -181.5l2 -2l4 -4l-63 -105l-5 2q-32 11 -65 11q-87 0 -148 -61.5t-61 -148t61 -148
t148 -61.5t148 61.5t61 147.5q0 11 -1 25v1z" />
    <glyph glyph-name="zonglan" unicode="&#xe60e;" 
d="M320 640q0 -27 -18.5 -45.5t-45.5 -18.5h-128q-27 0 -45.5 18.5t-18.5 45.5v128q0 27 18.5 45.5t45.5 18.5h128q27 0 45.5 -18.5t18.5 -45.5v-128zM640 640q0 -27 -18.5 -45.5t-45.5 -18.5h-128q-27 0 -45.5 18.5t-18.5 45.5v128q0 27 18.5 45.5t45.5 18.5h128
q27 0 45.5 -18.5t18.5 -45.5v-128zM960 640q0 -27 -18.5 -45.5t-45.5 -18.5h-128q-27 0 -45.5 18.5t-18.5 45.5v128q0 27 18.5 45.5t45.5 18.5h128q27 0 45.5 -18.5t18.5 -45.5v-128zM320 320q0 -27 -18.5 -45.5t-45.5 -18.5h-128q-27 0 -45.5 18.5t-18.5 45.5v128
q0 27 18.5 45.5t45.5 18.5h128q27 0 45.5 -18.5t18.5 -45.5v-128zM640 320q0 -27 -18.5 -45.5t-45.5 -18.5h-128q-27 0 -45.5 18.5t-18.5 45.5v128q0 27 18.5 45.5t45.5 18.5h128q27 0 45.5 -18.5t18.5 -45.5v-128zM960 320q0 -27 -18.5 -45.5t-45.5 -18.5h-128
q-27 0 -45.5 18.5t-18.5 45.5v128q0 27 18.5 45.5t45.5 18.5h128q27 0 45.5 -18.5t18.5 -45.5v-128zM320 0q0 -27 -18.5 -45.5t-45.5 -18.5h-128q-27 0 -45.5 18.5t-18.5 45.5v128q0 27 18.5 45.5t45.5 18.5h128q27 0 45.5 -18.5t18.5 -45.5v-128zM640 0q0 -27 -18.5 -45.5
t-45.5 -18.5h-128q-27 0 -45.5 18.5t-18.5 45.5v128q0 27 18.5 45.5t45.5 18.5h128q27 0 45.5 -18.5t18.5 -45.5v-128zM960 0q0 -27 -18.5 -45.5t-45.5 -18.5h-128q-27 0 -45.5 18.5t-18.5 45.5v128q0 27 18.5 45.5t45.5 18.5h128q27 0 45.5 -18.5t18.5 -45.5v-128z" />
    <glyph glyph-name="kaitong" unicode="&#xe636;" 
d="M957 725q0 42 -29.5 71t-70.5 29h-477v0q-15 0 -26 -11t-11 -26.5t11 -26.5t26 -11v0h452q21 0 35.5 -14.5t14.5 -35.5v-476v0v-1q0 -15 11 -26t26.5 -11t26.5 11t11 26v1v0v501v0zM957 725zM749 -46h-626q-21 0 -36 15t-15 36v626q0 22 15 37t36 15h626q21 0 36 -15
t15 -37v-626q0 -21 -15 -36t-36 -15z" />
    <glyph glyph-name="jinbi1" unicode="&#xe619;" 
d="M1024 384q0 -139 -68.5 -257t-186.5 -186.5t-257 -68.5t-257 68.5t-186.5 186.5t-68.5 257t68.5 257t186.5 186.5t257 68.5t257 -68.5t186.5 -186.5t68.5 -257zM479 616q-4 -18 -20.5 -19t-36.5 14q-15 11 -21 -5q-5 -15 7 -37q2 -3 15.5 -36.5t17.5 -40.5q5 -8 28.5 -13
t41.5 -4q18 0 38 8t24 20q22 65 26 74q10 18 5 28t-29 1l-8.5 -4.5t-14 -6.5t-11.5 2t-7 16q-3 23 -17 29h-18q-17 -7 -20 -26zM587 469q-1 1 -7 -4.5t-23 -11.5t-44 -7q-25 -1 -42.5 3.5t-24.5 9t-8 4.5q-62 -22 -106 -78t-44 -118q0 -80 51 -109t183 -29t183.5 29
t51.5 109q0 66 -51.5 124.5t-118.5 77.5zM526 199v-25q0 -3 -3 -3h-23q-3 0 -3 3v23q-26 2 -43 12q-2 1 -1 4l7 26q1 1 2.5 1.5t2.5 0.5q19 -12 41 -12q25 0 25 18q0 14 -27 24q-49 18 -49 52q0 18 11.5 31.5t31.5 17.5v23q0 4 4 4h22q3 0 3 -4v-21q19 -2 36 -10q2 -1 2 -4
l-8 -25q0 -1 -1.5 -1.5t-3.5 -0.5q-18 9 -35 9q-22 0 -22 -15q0 -12 31 -24q45 -17 45 -53q0 -19 -12 -33t-33 -18z" />
    <glyph glyph-name="yousanjiao" unicode="&#xe640;" 
d="M754 384l-448 448l-35 -36l412 -412l-413 -412l35 -36l413 413h1z" />
    <glyph glyph-name="jinbi01" unicode="&#xe61a;" 
d="M398 506q0 -56 86 -83v162q-80 -6 -86 -79zM524 364v-181q96 6 102 91q6 62 -102 90zM508 884q-100 0 -191 -39t-157 -105t-105 -157t-39 -191t39 -191.5t105 -157t157 -104.5t191 -39t191.5 39t157 104.5t104.5 157t39 191.5t-39 191t-104.5 157t-157 105t-191.5 39z
M524 132v-75h-40v79q-129 6 -153 146l51 15q9 -54 34.5 -83t71.5 -35v193q-73 18 -107 51t-31 83q6 119 138 130v51h40v-55q118 -12 142 -130l-52 -16q-9 45 -30.5 69.5t-59.5 33.5v-170q80 -20 118 -56t35 -89q-5 -65 -44 -99t-113 -43z" />
    <glyph glyph-name="xiugai1" unicode="&#xe637;" horiz-adv-x="1027" 
d="M774 517q-28 -27 -67 -27t-66.5 27.5t-27.5 66.5t27 67l7 6q-57 1 -97.5 -39t-40.5 -96q0 -15 4 -30q0 -1 -0.5 -2l-0.5 -1q1 -3 -0.5 -7.5t-3.5 -6.5v-1t-1 -1l-246 -226q-22 -22 -22 -54t22 -54t55 -22t55 22l225 245q0 1 1 1t1 1q2 1 6.5 2.5t7.5 1.5h1h1q16 -3 31 -3
q56 0 95.5 39.5t39.5 95.5v2zM316 155q-16 0 -27.5 11t-11.5 27t11.5 27.5t27.5 11.5t27.5 -11.5t11.5 -27.5t-11.5 -27t-27.5 -11zM301 595.5q6 5.5 6 13.5t-6 13l-27 27l-27 -27l27 -27q5 -5 13 -5t14 5.5zM509.5 896q-103.5 0 -198 -40.5t-162.5 -108.5t-108.5 -162.5
t-40.5 -198t40.5 -198t108.5 -162.5t162.5 -108.5t198 -40.5t198 40.5t162.5 108.5t108.5 162.5t40.5 198t-40.5 198t-108.5 162.5t-162.5 108.5t-198 40.5zM206 636l54 54q6 6 14 6t14 -6l40 -40q13 -13 16 -31.5t-5 -34.5l87 -86l-28 -27l-86 86q-13 -6 -25 -6
q-24 0 -41 17l-40 40q-6 6 -6 14t6 14zM796.5 99.5q-22.5 -22.5 -55 -22.5t-54.5 23l-109 108l28 28l108 -109q11 -11 27.5 -11t27.5 11q11 12 11 28t-11 27l-109 108l28 28l108 -109q23 -22 23 -54.5t-22.5 -55zM645 348q-8 0 -27 3l-219 -239q-35 -35 -83 -35t-82 34
t-34 82t34 82l240 220q-3 20 -3 27q0 72 51 123t123 51q24 0 48 -7q10 -3 13 -13.5t-5 -18.5l-33 -33q-17 -17 -17 -40t17 -39q15 -16 39 -16t39 16l34 33q8 8 18.5 5t13.5 -13q7 -24 7 -48q0 -72 -51 -123t-123 -51z" />
    <glyph glyph-name="zhifubao-copy-copy-copy" unicode="&#xe61c;" 
d="M588 226q-76 -61 -104 -77q-32 -19 -67 -30q-30 -9 -53 -11.5t-38 -3.5q-2 -1 -4 -1h-11q-40 0 -74.5 9.5t-60.5 27.5t-41 45.5t-15 64.5q1 31 17.5 57t42.5 44t58 27t64 8t61 -7.5t56 -15t51 -18.5t46 -19q8 -4 17 -7q10 -4 20 -7q21 26 35 51.5t23.5 46.5t14.5 35.5
t6 19.5h-310v35h146v79h-204v35h204v64q0 6 7.5 10t16.5 6q11 2 24 2h55v-82h210v-35h-210v-79h167v0v0v0v0q-5 -32 -17 -68q-10 -30 -29.5 -69.5t-52.5 -81.5q19 -8 51 -22t121 -43t166 -41q45 100 45 210q0 103 -40.5 197.5t-108.5 163t-162.5 109t-198.5 40.5
t-198.5 -40.5t-162.5 -109t-108.5 -163t-40.5 -198t40.5 -198t108.5 -163t162.5 -108.5t198.5 -40q129 0 240 59.5t181 161.5q-66 15 -142 44t-203 86zM187 249q-1 -25 9.5 -43.5t24.5 -28t32 -15t28 -7t18 -1.5q59 -2 123 36q6 4 13 9t13.5 10t14 11t13.5 11.5t12 10.5
t10 8.5t7 6.5l3 3q3 2 5 5q-20 11 -40 21q-92 44 -142 49q-40 4 -70 -4.5t-45 -24.5t-22 -30.5t-7 -26.5z" />
    <glyph glyph-name="gongdan07" unicode="&#xe638;" 
d="M894 896h-769q-26 0 -45 -18.5t-19 -45.5v-896q0 -27 19 -45.5t45 -18.5h769q26 0 44.5 18.5t18.5 45.5v896q0 27 -18.5 45.5t-44.5 18.5zM894 -64v0h-769v0v896v0h769v0v-896zM190 670.5q0 13.5 9.5 23t22.5 9.5h255q13 0 22.5 -9.5t9.5 -23t-9.5 -22.5t-22.5 -9h-255
q-13 0 -22.5 9t-9.5 22.5zM190 480q0 13 9.5 22.5t22.5 9.5h318q14 0 23 -9.5t9 -22.5t-9 -22.5t-23 -9.5h-318q-13 0 -22.5 9.5t-9.5 22.5zM190 288.5q0 13.5 9.5 23t22.5 9.5h386q14 0 23 -9.5t9 -23t-9 -22.5t-23 -9h-386q-13 0 -22.5 9t-9.5 22.5zM764 96
q0 -13 -9.5 -22.5t-22.5 -9.5h-510q-13 0 -22.5 9.5t-9.5 22.5t9.5 22.5t22.5 9.5h510q13 0 22.5 -9.5t9.5 -22.5z" />
    <glyph glyph-name="icon1460192082252" unicode="&#xe63f;" 
d="M576 382zM875.5 746q-42.5 42 -102.5 42v0q-48 0 -86 -28l-1 -1l-162 -162v0q-43 -44 -43 -101q0 -30 12 -58v0v0v0v0q1 -3 3 -5l36 18q-1 2 -1 3l-19 -8l19 8q-9 20 -9 42q0 40 31 72l160 160q27 19 60 20v0q43 0 73.5 -30.5t30.5 -73.5q0 -33 -20 -60l-148 -149l-1 -1
q-31 -41 -83 -41v0q-21 0 -41 8l-16 -37q27 -12 57 -12v0q35 0 66 15q29 15 49 41l148 149l1 1q29 38 29 86q0 60 -42.5 102zM255 -19q-60 0 -102.5 42t-42.5 102q0 57 43 100v1l162 161l1 1q39 29 87 29v0q30 0 57 -12l-16 -37q-20 8 -41 8v0q-34 0 -61 -20l-160 -159
q-31 -32 -31 -72q0 -43 30.5 -73.5t73.5 -30.5v0q51 1 82 42l1 1l148 148q20 28 20 61q0 22 -9 41l38 17q12 -28 12 -58q0 -48 -29 -86l-1 -1l-148 -149q-20 -26 -49 -41q-31 -15 -65 -15v0zM611 510l29 -29l-223 -222l-29 29z" />
    <glyph glyph-name="iconfuzhi01-copy" unicode="&#xe644;" 
d="M414 358v6v1v6v11h1q2 51 13 85l5 17l18 -4q66 -18 119 -18q2 3 3 7q7 3 14 9q6 6 11.5 15.5t6.5 26.5q2 13 0 21.5t-5 14.5q-4 6 -9 9q0 31 -4 62q-4 27 -13.5 57t-29.5 55q-9 11 -23 22.5t-32 20t-39 13.5t-44 5q-17 0 -36.5 -2.5t-38.5 -10.5t-37 -22t-33 -36
q-16 -23 -24 -51t-11 -53q-4 -29 -4 -59q-6 -8 -9 -17q-3 -8 -4.5 -18.5t2.5 -24t9.5 -20.5t9.5 -11q6 -4 11 -6l8 -24q4 -10 9 -20t11 -15q13 -11 24 -21t13 -28q1 -13 1 -23.5t-4 -20t-12.5 -18.5t-25.5 -19q-21 -13 -48 -20.5t-52.5 -16t-44.5 -23.5t-24 -43
q-7 -51 -2.5 -83.5t12.5 -38.5q4 -4 21.5 -8.5t42.5 -9.5t55 -9.5t61.5 -8t60.5 -6t52 -2.5t54 2t64 6q12 1 27 3q-3 2 -5 4q-125 105 -125 332v0zM807 330q-55 0 -116 22q-59 -22 -115 -22q-52 0 -123 16q1 -205 112 -298q34 -29 71.5 -53t55 -24t55 24t71.5 53
q112 93 112 298q-72 -16 -123 -16zM753 99l-61 37l-62 -37l21 67l-51 49h67l25 62l24 -62h68l-52 -49zM687 373l4 1l4 -1q3 -2 16.5 -6.5t42.5 -10t53 -5.5q51 0 122 16q-1 21 -3.5 40t-5.5 28l-2 9q-66 -18 -119 -18q-23 0 -50 6t-43 11l-15 6q-53 -23 -107 -23
q-24 0 -53.5 4.5t-47.5 8.5l-18 5q-9 -30 -11 -77q70 -16 122 -16q56 0 111 22z" />
    <glyph glyph-name="shangsanjiao" unicode="&#xe606;" 
d="M211 218h96l205 204l205 -204h96l-301 294z" />
    <glyph glyph-name="xiasanjiao" unicode="&#xe607;" 
d="M813 512h-96l-205 -205l-205 205h-96l301 -294z" />
    <glyph glyph-name="qian" unicode="&#xe603;" 
d="M694 609l-182 -182l-182 182q-6 6 -15 6t-15 -6t-6 -15t6 -15l161 -161h-109q-9 0 -15 -6t-6 -15t6 -15t15 -6h139v-90h-127q-9 0 -15 -6t-6 -15t6 -15t15 -6h127v-132q0 -8 6.5 -14.5t15 -6.5t15 6.5t6.5 14.5v132h127q9 0 15 6t6 15t-6 15t-15 6h-127v90h139
q8 0 14.5 6t6.5 15t-6.5 15t-14.5 6h-110l161 161q6 6 6 15t-6 15t-15 6t-15 -6zM512 831q-91 0 -173.5 -35.5t-142.5 -95.5t-95.5 -142.5t-35.5 -173.5t35.5 -173.5t95.5 -142.5t142.5 -95.5t173.5 -35.5t173.5 35.5t142.5 95.5t95.5 142.5t35.5 173.5t-35.5 173.5
t-95.5 142.5t-142.5 95.5t-173.5 35.5zM512 -20q-110 0 -203 54t-147 147t-54 203t54 203t147 147t203 54t203 -54t147 -147t54 -203t-54 -203t-147 -147t-203 -54z" />
    <glyph glyph-name="800gguganwangluodaikuan" unicode="&#xe604;" 
d="M512 827q90 0 171.5 -34t142.5 -96q62 -62 96 -143t34 -171t-34 -171t-95.5 -142.5t-142.5 -96t-171.5 -34.5t-171.5 34.5t-142.5 96t-96 142.5t-34.5 171t34.5 171.5t96 143t142.5 95.5t171 34v0zM492 8v0v144q-62 -4 -116 -24q-8 -3 -15 -6q4 -9 10 -19q34 -62 79 -91
q22 -3 42 -4v0zM778 649v0l-9 9q-22 -17 -52 -33q38 -102 41 -221h129q-8 143 -109 245v0zM736 685v0q-36 27 -76 44q17 -23 29 -46q5 -8 11 -21q17 9 36 23v0zM574 754v0q-25 4 -42 5v-144q59 2 116 23q1 0 6.5 2.5t8.5 3.5q-2 5 -9 19q-35 63 -80 91v0zM492 759v0
q-7 -1 -42 -5q-44 -28 -79 -91q-5 -9 -10 -19q3 -1 8 -3t7 -3q57 -21 116 -23v144v0zM365 729v0q-40 -17 -77 -44q20 -14 36 -23q8 16 11 21q13 24 30 46v0zM256 658v0q-1 -1 -4.5 -4t-4.5 -5q-103 -103 -110 -245h129q4 121 42 221q-30 16 -52 33v0zM137 363v0
q7 -143 110 -246l9 -9q23 18 52 34q-38 98 -42 221h-129v0zM288 81v0q34 -25 77 -44q-16 21 -30 46q-2 4 -11 21q-20 -11 -36 -23v0zM532 8v0q20 1 42 4q46 29 80 91q7 14 9 19q-7 3 -15 6q-54 20 -116 24v-144v0zM660 37v0q43 19 76 44q-16 12 -36 23q-7 -14 -11 -21
q-16 -28 -29 -46v0zM769 108v0l9 9q101 102 109 246h-129q-3 -121 -42 -221q29 -16 53 -34v0zM679 607v0q-4 -2 -17 -7q-64 -24 -130 -26v-170h185q-3 112 -38 203v0zM492 574v0q-65 2 -130 26q-3 1 -8.5 3.5t-8.5 3.5q-34 -92 -38 -203h185v170v0zM492 192v0v171h-185
q4 -112 38 -203q6 2 17 6q63 24 130 26v0zM532 192v0q67 -2 130 -26q11 -4 17 -6q35 91 38 203h-185v-171v0z" />
    <glyph glyph-name="zuzhijiagou" unicode="&#xe639;" 
d="M856 292q70 0 119 -49.5t49 -119t-49 -118.5t-118.5 -49t-119 49t-49.5 119q0 47 24.5 86.5t65.5 61.5l-68 137q-71 -50 -156 -50q-62 0 -119 28l-77 -129q37 -31 57.5 -74.5t20.5 -93.5q0 -90 -64 -154t-154 -64t-154 64t-64 154t64 154t154 64q43 0 82 -16l79 132
q-44 38 -69 91t-25 112q0 111 79 190t190 79t190 -79t79 -190q0 -96 -62 -171l83 -166q1 1 5.5 1.5t6.5 0.5v0z" />
    <glyph glyph-name="shuaxin1" unicode="&#xe63d;" 
d="M446 849h18q54 -48 128 -129q-83 -82 -143 -134q-1 15 -5 59t-5 58q-104 -43 -168.5 -134.5t-49.5 -198.5q1 -27 8.5 -52.5t23 -51.5t27.5 -43t35 -45t33 -41q-1 -6 -4 -26t-4 -27q-72 51 -119 123.5t-58 156.5v63q8 116 86.5 206.5t192.5 125.5q1 12 2 45.5t2 44.5v0z
M692 730q82 -48 135 -124.5t65 -167.5v-70q-11 -121 -98 -212.5t-209 -117.5q-2 -43 -5 -85h-18q-37 33 -127 125q73 76 144 137q4 -61 9 -123q114 34 187.5 129t58.5 209q-1 35 -12 67.5t-34 64.5t-40 51t-50 52q-8 9 -12 13l6 52v0v0z" />
    <glyph glyph-name="shouxufeilv" unicode="&#xe63c;" 
d="M669 868q-11 11 -26 11h-598q-15 0 -25.5 -10t-10.5 -24v-879q0 -15 10.5 -25t25.5 -10h357q15 0 25.5 10t10.5 24.5t-10.5 24.5t-25.5 10h-321v811h546l154 -161v-148q0 -14 10.5 -24t25.5 -10t25.5 10t10.5 24v162q0 13 -10 23zM427 604h-210q-11 0 -18.5 -7.5
t-7.5 -18t7.5 -18t18.5 -7.5h210q11 0 18.5 7.5t7.5 18t-7.5 18t-18.5 7.5zM373 415h-156q-11 0 -18.5 -7.5t-7.5 -18t7.5 -18t18.5 -7.5h156q11 0 19 7.5t8 18t-8 18t-19 7.5zM292 253h-89q-6 0 -10.5 -7.5t-4.5 -18.5t4.5 -18.5t10.5 -7.5h89q7 0 11.5 7.5t4.5 18.5
t-4.5 18.5t-11.5 7.5zM725 657h-89v91q0 10 -8 17.5t-19 7.5t-19 -7.5t-8 -17.5v-117q0 -11 8 -18.5t19 -7.5h116q12 0 19.5 7.5t7.5 18.5t-7.5 18.5t-19.5 7.5zM746 171h81q15 0 15 15t-15 15h-62l40 74q3 5 3 9q0 10 -11 17q-6 4 -12 4q-10 0 -16 -10l-59 -115l-60 115
q-6 10 -15 10q-6 0 -12 -4q-11 -6 -11 -17q0 -5 3 -9l40 -74h-61q-15 0 -15 -15t15 -15h80l16 -27v-21h-97q-14 0 -14 -15t14 -15h97v-79q0 -19 20 -19t20 19v79h96q15 0 15 15t-15 15h-96v21zM710.5 455q-120.5 0 -206 -85.5t-85.5 -206t85.5 -206t206 -85.5t206 85.5
t85.5 206t-85.5 206t-206 85.5zM710.5 -66q-95.5 0 -163.5 67.5t-68 163t68 163.5t163.5 68t163 -68t67.5 -163.5t-67.5 -163t-163 -67.5z" />
    <glyph glyph-name="chaxun" unicode="&#xe61f;" 
d="M934 65l-213 214q-1 1 -8 6q57 88 57 193q0 96 -47 178t-128 129t-176.5 47t-176.5 -47t-128 -129t-47 -178t47 -177.5t128 -129t177 -47.5q104 0 191 57q5 -6 6 -8l213 -214q22 -22 52.5 -22t52 22t21.5 53t-21 53zM419 236q-100 0 -170.5 71t-70.5 171t70.5 171t170 71
t170 -71t70.5 -171t-70.5 -171t-169.5 -71v0z" />
    <glyph glyph-name="RMB-copy" unicode="&#xe615;" 
d="M512 877q-100 0 -191.5 -39t-157.5 -105t-105 -157.5t-39 -191.5t39 -191.5t105 -157.5t157.5 -105t191.5 -39t191.5 39t157.5 105t105 157.5t39 191.5t-39 191.5t-105 157.5t-157.5 105t-191.5 39zM718 435v-71h-162v-98h162v-71h-162v-141h-88v141h-167v71h167v98h-167
v71h141l-172 279h101l120 -209q10 -20 23 -53h1q9 26 24 56l120 206h95l-174 -279h138z" />
    <glyph glyph-name="yousanjiao-copy-copy" unicode="&#xe641;" 
d="M270 384l448 -448l35 36l-412 412l413 412l-35 36l-414 -413z" />
    <glyph glyph-name="emidianhua2" unicode="&#xe620;" 
d="M146 831l96 65l39 -11l161 -225l-4 -36l-94 -63q-10 -9 -15 -19t-6 -18.5t3 -24.5t7.5 -26t13 -33.5t14.5 -36.5q27 -45 65.5 -99.5t67.5 -78.5q10 -8 28 -23t25.5 -21t21 -16t21 -12.5t18 -5t20 0t19.5 7.5l89 61l35 -4l168 -219l-5 -38l-91 -68q-286 -82 -562 295
q-61 80 -103 156.5t-61.5 136t-27 114t-3 93.5t15.5 71.5t22 50t22 27.5v0z" />
    <glyph glyph-name="zongtigailan" unicode="&#xe60f;" 
d="M512 72l-296 145l-45 24q0 -47 19 -58l290 -139q19 -9 31 -9t33 9l290 139q9 5 14 23.5t5 35.5l-45 -25l-296 -145v0v0zM190 474l290 -139q19 -10 31 -10t33 10l290 139q16 8 16 33.5t-16 34.5l-290 163q-17 11 -31 11t-33 -11l-290 -163q-16 -11 -16.5 -34.5t16.5 -33.5
v0zM512 678l1 -1l295 -169l-296 -133l-296 133l296 170v0v0zM513 680h-1h1v0zM190 328l290 -138q19 -10 31 -10t33 10l290 138q9 5 14 23.5t5 35.5q-7 -4 -19 -10.5t-19 -10l-7 -3.5l-296 -146l-296 146l-45 24q0 -48 19 -59v0v0zM190 328z" />
    <glyph glyph-name="shangpinliebiao" unicode="&#xe613;" 
d="M511 831q-91 0 -174 -35t-143 -95t-95.5 -143t-35.5 -174t35.5 -174t95.5 -143t143 -95t174 -35t174 35t142.5 95t95 143t35.5 174t-35.5 174t-95 143t-142.5 95t-174 35zM511 -5q-106 0 -195.5 52t-141.5 141.5t-52 195.5t52 195.5t141.5 141.5t195.5 52t195.5 -52
t141.5 -141.5t52 -195.5t-52 -195.5t-141.5 -141.5t-195.5 -52zM315 580h112v-112h-112v112zM455 580h112v-112h-112v112zM595 580h112v-112h-112v112zM595 440h112v-112h-112v112zM595 300h112v-112h-112v112zM455 300h112v-112h-112v112zM315 300h112v-112h-112v112z
M315 440h112v-112h-112v112zM455 440h112v-112h-112v112z" />
    <glyph glyph-name="zonglan1" unicode="&#xe605;" 
d="M850 768q-69 61 -155.5 94.5t-182.5 33.5q-157 0 -287 -88l290 -376l335 336v0zM498 350l-323 419q-82 -72 -128.5 -172t-46.5 -213q0 -139 68.5 -257t186.5 -186.5t257 -68.5t257 68.5t186.5 186.5t68.5 257v8.5t-0.5 9.5t-0.5 8l-525 -60v0zM1016 474q-25 141 -120 248
l-297 -296l417 48v0z" />
    <glyph glyph-name="shou" unicode="&#xe643;" 
d="M768.5 515q-29.5 0 -50 -20.5t-20.5 -50.5v83q0 30 -21 50.5t-51 20.5v0q-29 0 -50 -20.5t-21 -50.5v51q0 29 -20.5 50t-50.5 21v0q-29 0 -50 -21t-21 -50v210q0 29 -20.5 50t-50 21t-50.5 -21t-21 -50v-375v-59v-74l-84 84q-21 21 -52 21t-52.5 -21.5t-21.5 -52
t22 -51.5l232 -233q42 -51 102 -80t128 -29q119 0 204 81t91 198v0v157v59v32q0 29 -21 49.5t-50.5 20.5z" />
    <glyph glyph-name="x" unicode="&#xe621;" 
d="M512 -128q139 0 257 68.5t186.5 186.5t68.5 257t-68.5 257t-186.5 186.5t-257 68.5t-257 -68.5t-186.5 -186.5t-68.5 -257t68.5 -257t186.5 -186.5t257 -68.5zM344 589l171 -172l172 172l36 -38l-171 -171l170 -171l-36 -36l-171 171l-171 -171l-37 37l172 171l-171 171z
" />
    <glyph glyph-name="dingshi" unicode="&#xe63a;" 
d="M906 517l19 20q41 46 35 111t-56 111l-21 19q-50 46 -115.5 46.5t-107.5 -45.5l-15 -17q89 -30 157.5 -94t103.5 -151zM118 517q35 87 103.5 151t157.5 94l-15 17q-42 46 -107.5 45.5t-115.5 -46.5l-21 -19q-50 -46 -56 -111t35 -111zM549 321h-206v63h143v196h63v-259z
M796 84q52 53 80.5 122t28.5 146q0 105 -52 194.5t-141 141t-194 51.5t-194 -51.5t-141 -141t-52 -194.5q0 -77 28.5 -146t80.5 -122l-86 -87q-10 -9 -10 -22t9.5 -22t22.5 -9t22 9l89 89q103 -77 231 -77t231 77l89 -89q9 -9 22 -9t22.5 9t9.5 22t-9 22zM194 352
q0 88 43.5 163t118 118t162.5 43t162.5 -43t118 -118t43.5 -163t-43.5 -162.5t-118 -118t-162.5 -43.5t-162.5 43.5t-118 118t-43.5 162.5z" />
    <glyph glyph-name="jiazhibi" unicode="&#xe61b;" 
d="M289 741q5 -8 11.5 -14t20.5 -21q15 -15 29 -30q16 -18 35 -38h128h126q19 20 36 38q14 16 28 30.5t21 20.5q6 6 11 14t7 17t0 18t-9 17t-13 7t-13 -4.5t-17 -7.5t-25 -4t-23 7.5t-14.5 16.5t-15 17t-23 8t-23.5 -8t-16.5 -17t-15.5 -16t-21 -7q-15 0 -24 7t-15.5 16
t-15 17t-22.5 8t-22.5 -8t-16 -17t-15.5 -16.5t-21 -7.5q-16 0 -26 4t-17 7.5t-13 4.5t-14 -7q-7 -8 -9 -17t0 -18t7 -17v0zM289 741zM886 329q-10 39 -26 72t-37 60t-43 49q-50 52 -115 89h-306q-66 -37 -116 -89q-22 -22 -42.5 -49t-37 -60t-26.5 -71.5t-10 -82.5
q0 -73 22.5 -130.5t69.5 -98t119.5 -62t174.5 -21.5q101 0 173 21.5t119 62t69.5 98t22.5 130.5q0 44 -11 82v0zM718 413q-30 -2 -89 -6q-58 -4 -88 -4v-68h144v-204q5 -29 -19.5 -40.5t-79.5 -6.5q-2 0 -2 6q-6 33 -18 58q55 -6 51 20v111h-78v-246h-64v246h-74v-183h-64
v239h138v63q-25 -2 -74 -2q-48 -2 -72 -2q-10 29 -23 62q225 -8 352 25q6 0 8 2q54 -70 52 -70v0zM718 413z" />
    <glyph glyph-name="wangluo2" unicode="&#xe610;" horiz-adv-x="1026" 
d="M148 632q2 4 4.5 11.5t14 29.5t26 42.5t39 47t53.5 47.5t70.5 39t88.5 26q-36 -51 -69 -131q-1 -1 -7.5 0.5t-18 -2t-23 -8.5t-22.5 -19.5t-15 -33.5l-1 -1q-11 -2 -26 -5.5t-50.5 -15.5t-63.5 -27v0zM148 632zM290 640q-10 -3 -28 -7.5t-60.5 -21.5t-69.5 -38l-3 -15
t-3.5 -40t2 -60t16 -71t33.5 -76q9 -2 24 -4.5t59.5 -6.5t77.5 2q0 5 1 14t9 29.5t22 31.5l-10.5 31.5t-15 75.5t-3.5 104q-10 0 -27 14q-19 15 -24 38v0zM290 640zM210 264q4 -7 12 -17.5t38.5 -36.5t66.5 -45t96 -31.5t126 -6.5q-84 80 -101 106q-3 -1 -7.5 -1.5t-17 -1
t-23.5 2t-23 10t-18 21.5l-1 -1q-88 -12 -148 1v0zM210 264zM481 258q16 7 22 46q6 2 15.5 6t36.5 18.5t52 32.5t56 48.5t54 65.5q25 -2 43 12q7 -7 18 -18.5t35.5 -46t37.5 -67.5q-2 -7 -7 -18.5t-25 -42.5t-45 -57.5t-69.5 -55t-96.5 -43.5q-1 0 -22.5 15.5t-53.5 45.5
t-51 59v0zM481 258zM818 707q2 -2 5.5 -6.5t12.5 -19.5t16.5 -31.5t15.5 -43.5t11.5 -55t2 -65t-10.5 -75q-53 86 -80 106q3 5 6 13.5t3 29.5t-12 36l6 14.5t14 42t10 54.5v0zM818 707zM414 732q28 -23 29 -44q14 0 36.5 -3t81.5 -21.5t104 -47.5q2 2 5.5 4.5t14 7.5t20.5 7
t24 0.5t27 -9.5q24 45 29 128q-3 5 -10.5 13.5t-33.5 29.5t-56.5 37t-80 30t-102.5 16l-1 -1q-75 -103 -87 -147v0zM414 732zM382 586q2 -1 5.5 -0.5t14 3.5t18.5 8.5t16 18.5t10 32q13 -2 33.5 -5t72.5 -18.5t91 -38.5q-1 -3 -2 -7.5t-1.5 -18t1.5 -25t11 -25.5t24 -23
q-2 -3 -6.5 -9t-20.5 -23.5t-35 -34t-50.5 -37.5t-66.5 -37l-3 6t-9.5 13t-17 15.5t-25.5 10.5t-34 1q-3 0 -12 41q-14 61 -14 153v0zM382 586zM958 13h-379q-12 18 -30 30v56h-99v-56q-18 -12 -30 -30h-367q-22 0 -37 -15.5t-15 -36.5v0q0 -22 15 -37t37 -15h372
q28 -37 74.5 -37t74.5 37h384q21 0 36.5 15t15.5 37v0q0 21 -15.5 36.5t-36.5 15.5z" />
    <glyph glyph-name="staroff" unicode="&#xe622;" horiz-adv-x="1152" 
d="M576 713l85 -228l16 -42h44h221l-176 -130l-35 -26l11 -42l60 -224l-190 129l-35 24l-35 -23l-204 -130l71 221l14 43l-37 28l-176 130h221h44l16 41zM576 896l-145 -389h-415l332 -246l-125 -389l353 225l332 -225l-104 389l332 246h-415l-145 389v0z" />
    <glyph glyph-name="starton" unicode="&#xe623;" horiz-adv-x="1152" 
d="M576 896l-145 -389h-415l332 -246l-125 -389l353 225l332 -225l-104 389l332 246h-415z" />
    <glyph glyph-name="time" unicode="&#xe624;" 
d="M506 -79q-95 0 -182 37t-150 100t-100 150t-37 182t37 182t100 150t150 100t182 37t182 -37t150 -100t100 -150t37 -182t-37 -182t-100 -150t-150 -100t-182 -37zM506 771q-104 0 -191.5 -51t-138.5 -138.5t-51 -191.5t51 -191.5t138.5 -138.5t191.5 -51t191.5 51
t138.5 138.5t51 191.5t-51 191.5t-138.5 138.5t-191.5 51zM697 346h-88h-59h-44v0q-18 0 -31 13t-13 31v264q0 18 13 31t31 13t31 -13t13 -31v-220h59h88q18 0 31 -13t13 -31t-13 -31t-31 -13z" />
    <glyph glyph-name="weixin" unicode="&#xe625;" horiz-adv-x="1244" 
d="M1244 239q0 87 -52 162t-138.5 118t-183.5 43q-103 0 -189.5 -43t-136 -117.5t-49.5 -162t49.5 -162t136 -117.5t189.5 -43q44 0 132 22l120 -67l-33 111q71 54 113 119.5t42 136.5zM748 295q-16 0 -30 14t-14 30.5t14 30.5t30 14q24 0 39.5 -13.5t15.5 -31t-15.5 -31
t-39.5 -13.5zM990 295q-16 0 -29.5 14t-13.5 30.5t13.5 30.5t29.5 14q24 0 40 -13.5t16 -31t-16 -31t-40 -13.5zM842 586q19 0 42 -2q-28 134 -154.5 223t-289.5 89q-119 0 -220.5 -50t-160.5 -137t-59 -191q0 -176 176 -301l-44 -134l154 78q7 -1 30.5 -6t33 -6.5
t27.5 -4.5t32.5 -4t30.5 -1q19 0 41 2q-13 47 -13 93q0 96 49.5 177t135.5 128t189 47zM605 707q25 0 40 -15.5t15 -40.5t-15 -40t-40 -15q-26 0 -46 15.5t-20 39.5t20 40t46 16zM297 596q-26 0 -46 15.5t-20 39.5t20 40t46 16q25 0 40 -15.5t15 -40.5t-15 -40t-40 -15z" />
    <glyph glyph-name="jishiqi" unicode="&#xe63b;" 
d="M816 657q6 5 12 9l10 8q6 4 10 7q10 9 22.5 7.5t20.5 -10t9 -22t-7 -21.5l-8.5 -8.5l-10.5 -10.5q-6 -5 -13 -11q13 -16 26 -42.5t24.5 -58.5t18.5 -67.5t7 -70.5q0 -85 -32.5 -160t-88 -130.5t-130 -88t-160 -32.5t-160.5 32.5t-130.5 88t-88 130.5t-32.5 160.5
t32.5 160t88 130t130.5 88t160 32.5q88 0 163 -33t127 -87zM527 703q-70 0 -131.5 -26.5t-107 -72.5t-72 -107.5t-26.5 -131.5t26.5 -131.5t72 -107.5t107 -72t131.5 -26t131.5 26t107.5 72t72.5 107.5t26.5 131.5t-26.5 131.5t-72.5 107.5t-107.5 72.5t-131.5 26.5z
M595 839q0 -14 -7 -26t-17 -20t-22 -12t-22 -4q-11 0 -23 4t-22.5 12t-17 19.5t-6.5 26.5v57h137v-57zM546 355q-9 -6 -18 -5.5t-15 8.5q-6 7 -5 16t9 17l208 176q7 5 17 5t16 -8t5 -17t-10 -17zM558 645q0 -12 -9 -21.5t-22 -9.5t-22 9.5t-9 21.5q0 13 9 22t22 9t22 -9
t9 -22zM294 366q0 -13 -9 -22t-22 -9t-22 9t-9 22t9 22t22 9t22 -9t9 -22zM557 94.5q0 -13.5 -9 -22.5t-22 -9t-22 9t-9 22.5t9 22t22 8.5t22 -8.5t9 -22zM820 366q0 -13 -9 -22t-21 -9q-14 0 -23 9t-9 22t9 22t23 9q12 0 21 -9t9 -22z" />
    <glyph glyph-name="saas" unicode="&#xe668;" 
d="M435 410l77 -128l70 128h-147zM512 896l-448 -256v-512l448 -256l448 256v512zM736 147h-154l-70 135l-77 -135h-153l-71 135l71 128h153l-77 128l77 128h147l77 -128l-77 -128h154l70 -128z" />
  </font>
</defs>
</svg>
